G04 Layer_Color=2752767*
%FSLAX25Y25*%
%MOIN*%
G70*
G01*
G75*
%ADD33C,0.01000*%
%ADD37C,0.00800*%
%ADD96C,0.00200*%
%ADD97C,0.01500*%
%ADD98C,0.01600*%
D33*
X100300D02*
Y299700D01*
X100500Y299900D01*
X450000D01*
X100300Y0D02*
X449800D01*
X450000Y200D01*
Y299900D01*
X31396Y456583D02*
G03*
X31396Y456583I-3333J0D01*
G01*
X24729Y469917D02*
X26396D01*
X24729D02*
Y473250D01*
X26396D01*
Y474917D01*
X29729D01*
Y473250D02*
Y474917D01*
Y473250D02*
X31396D01*
Y469917D02*
Y473250D01*
X29729Y469917D02*
X31396D01*
X29729Y468250D02*
Y469917D01*
X26396Y468250D02*
X29729D01*
X26396D02*
Y469917D01*
Y439917D02*
X28062Y438250D01*
X24729Y439917D02*
X26396D01*
X24729D02*
X26396Y441583D01*
X24729Y443250D02*
X26396Y441583D01*
X24729Y443250D02*
X26396D01*
X28062Y444917D01*
X29729Y443250D01*
X31396D01*
X29729Y441583D02*
X31396Y443250D01*
X29729Y441583D02*
X31396Y439917D01*
X29729D02*
X31396D01*
X28062Y438250D02*
X29729Y439917D01*
X24729Y426583D02*
X28062Y423250D01*
X31396Y426583D01*
X28062Y429917D02*
X31396Y426583D01*
X24729D02*
X28062Y429917D01*
X24729Y408250D02*
X31396D01*
Y414917D01*
X24729D02*
X31396D01*
X24729Y408250D02*
Y414917D01*
Y393250D02*
X28062Y394917D01*
X31396Y393250D01*
X29729Y396583D02*
X31396Y393250D01*
X29729Y396583D02*
X31396Y399917D01*
X28062Y398250D02*
X31396Y399917D01*
X24729D02*
X28062Y398250D01*
X24729Y399917D02*
X26396Y396583D01*
X24729Y393250D02*
X26396Y396583D01*
X28062Y378250D02*
X31396Y384917D01*
X24729D02*
X31396D01*
X24729D02*
X28062Y378250D01*
X24729Y363250D02*
Y364917D01*
X26396Y366583D01*
X24729Y368250D02*
X26396Y366583D01*
X24729Y368250D02*
Y369917D01*
X26396D01*
X28062Y368250D01*
X29729Y369917D01*
X31396D01*
Y368250D02*
Y369917D01*
X29729Y366583D02*
X31396Y368250D01*
X29729Y366583D02*
X31396Y364917D01*
Y363250D02*
Y364917D01*
X29729Y363250D02*
X31396D01*
X28062Y364917D02*
X29729Y363250D01*
X26396D02*
X28062Y364917D01*
X24729Y363250D02*
X26396D01*
X719760Y471249D02*
X723759D01*
X719760Y456249D02*
X723759D01*
X719760Y441249D02*
X723759D01*
X719760Y426249D02*
X723759D01*
X719760Y411249D02*
X723759D01*
X719760Y396249D02*
X723759D01*
X719760Y381249D02*
X723759D01*
X719760Y366249D02*
X723759D01*
X658776Y472249D02*
X655777D01*
X654777Y471249D01*
Y469250D01*
X655777Y468250D01*
X658776D01*
X660776D02*
X662775D01*
X661775D01*
Y474248D01*
X660776Y473248D01*
X665774D02*
X666774Y474248D01*
X668773D01*
X669773Y473248D01*
Y469250D01*
X668773Y468250D01*
X666774D01*
X665774Y469250D01*
Y473248D01*
X675771Y468250D02*
X671772D01*
X675771Y472249D01*
Y473248D01*
X674771Y474248D01*
X672772D01*
X671772Y473248D01*
X677770Y474248D02*
Y468250D01*
Y471249D01*
X678770Y472249D01*
X680769D01*
X681769Y471249D01*
Y468250D01*
X686767D02*
Y474248D01*
X683768Y471249D01*
X687767D01*
X693765Y474248D02*
X691765Y473248D01*
X689766Y471249D01*
Y469250D01*
X690766Y468250D01*
X692765D01*
X693765Y469250D01*
Y470249D01*
X692765Y471249D01*
X689766D01*
X658776Y457249D02*
X655777D01*
X654777Y456249D01*
Y454250D01*
X655777Y453250D01*
X658776D01*
X660776D02*
X662775D01*
X661775D01*
Y459248D01*
X660776Y458248D01*
X665774D02*
X666774Y459248D01*
X668773D01*
X669773Y458248D01*
Y457249D01*
X668773Y456249D01*
X667773D01*
X668773D01*
X669773Y455249D01*
Y454250D01*
X668773Y453250D01*
X666774D01*
X665774Y454250D01*
X671772Y458248D02*
X672772Y459248D01*
X674771D01*
X675771Y458248D01*
Y454250D01*
X674771Y453250D01*
X672772D01*
X671772Y454250D01*
Y458248D01*
X677770Y459248D02*
Y453250D01*
Y456249D01*
X678770Y457249D01*
X680769D01*
X681769Y456249D01*
Y453250D01*
X683768Y459248D02*
X687767D01*
Y458248D01*
X683768Y454250D01*
Y453250D01*
X689766Y458248D02*
X690766Y459248D01*
X692765D01*
X693765Y458248D01*
Y454250D01*
X692765Y453250D01*
X690766D01*
X689766Y454250D01*
Y458248D01*
X654777Y442249D02*
X656777Y438250D01*
X658776Y442249D01*
X660776Y438250D02*
X662775D01*
X661775D01*
Y444248D01*
X660776Y443248D01*
X669773Y438250D02*
X665774D01*
X669773Y442249D01*
Y443248D01*
X668773Y444248D01*
X666774D01*
X665774Y443248D01*
X671772Y444248D02*
X675771D01*
Y443248D01*
X671772Y439250D01*
Y438250D01*
X677770Y444248D02*
Y438250D01*
Y441249D01*
X678770Y442249D01*
X680769D01*
X681769Y441249D01*
Y438250D01*
X683768Y444248D02*
X687767D01*
Y443248D01*
X683768Y439250D01*
Y438250D01*
X689766D02*
X691765D01*
X690766D01*
Y444248D01*
X689766Y443248D01*
X656777Y423250D02*
X654777Y425249D01*
Y427249D01*
X656777Y429248D01*
X659776Y423250D02*
Y429248D01*
X661775Y427249D01*
X663775Y429248D01*
Y423250D01*
X665774D02*
X667773D01*
X666774D01*
Y427249D01*
X665774D01*
X670772D02*
X674771Y423250D01*
X672772Y425249D01*
X674771Y427249D01*
X670772Y423250D01*
X679769D02*
X677770D01*
X676770Y424250D01*
Y426249D01*
X677770Y427249D01*
X679769D01*
X680769Y426249D01*
Y425249D01*
X676770D01*
X686767Y429248D02*
Y423250D01*
X683768D01*
X682768Y424250D01*
Y426249D01*
X683768Y427249D01*
X686767D01*
X688766Y423250D02*
X690766Y425249D01*
Y427249D01*
X688766Y429248D01*
X656777Y408250D02*
X654777Y410249D01*
Y412249D01*
X656777Y414248D01*
X659776Y408250D02*
Y414248D01*
X661775Y412249D01*
X663775Y414248D01*
Y408250D01*
X665774D02*
X667773D01*
X666774D01*
Y412249D01*
X665774D01*
X670772D02*
X674771Y408250D01*
X672772Y410249D01*
X674771Y412249D01*
X670772Y408250D01*
X679769D02*
X677770D01*
X676770Y409250D01*
Y411249D01*
X677770Y412249D01*
X679769D01*
X680769Y411249D01*
Y410249D01*
X676770D01*
X686767Y414248D02*
Y408250D01*
X683768D01*
X682768Y409250D01*
Y411249D01*
X683768Y412249D01*
X686767D01*
X688766Y408250D02*
X690766Y410249D01*
Y412249D01*
X688766Y414248D01*
X656777Y393250D02*
X654777Y395249D01*
Y397249D01*
X656777Y399248D01*
X659776Y393250D02*
Y399248D01*
X661775Y397249D01*
X663775Y399248D01*
Y393250D01*
X665774D02*
X667773D01*
X666774D01*
Y397249D01*
X665774D01*
X670772D02*
X674771Y393250D01*
X672772Y395249D01*
X674771Y397249D01*
X670772Y393250D01*
X679769D02*
X677770D01*
X676770Y394250D01*
Y396249D01*
X677770Y397249D01*
X679769D01*
X680769Y396249D01*
Y395249D01*
X676770D01*
X686767Y399248D02*
Y393250D01*
X683768D01*
X682768Y394250D01*
Y396249D01*
X683768Y397249D01*
X686767D01*
X688766Y393250D02*
X690766Y395249D01*
Y397249D01*
X688766Y399248D01*
X658776Y382249D02*
X655777D01*
X654777Y381249D01*
Y379250D01*
X655777Y378250D01*
X658776D01*
X664774D02*
X660776D01*
X664774Y382249D01*
Y383248D01*
X663775Y384248D01*
X661775D01*
X660776Y383248D01*
X666774D02*
X667773Y384248D01*
X669773D01*
X670772Y383248D01*
Y379250D01*
X669773Y378250D01*
X667773D01*
X666774Y379250D01*
Y383248D01*
X672772D02*
X673771Y384248D01*
X675771D01*
X676770Y383248D01*
Y382249D01*
X675771Y381249D01*
X674771D01*
X675771D01*
X676770Y380249D01*
Y379250D01*
X675771Y378250D01*
X673771D01*
X672772Y379250D01*
X678770Y384248D02*
Y378250D01*
Y381249D01*
X679769Y382249D01*
X681769D01*
X682768Y381249D01*
Y378250D01*
X688766D02*
X684768D01*
X688766Y382249D01*
Y383248D01*
X687767Y384248D01*
X685768D01*
X684768Y383248D01*
X690766D02*
X691765Y384248D01*
X693765D01*
X694765Y383248D01*
Y379250D01*
X693765Y378250D01*
X691765D01*
X690766Y379250D01*
Y383248D01*
X696764D02*
X697764Y384248D01*
X699763D01*
X700763Y383248D01*
Y382249D01*
X699763Y381249D01*
X698763D01*
X699763D01*
X700763Y380249D01*
Y379250D01*
X699763Y378250D01*
X697764D01*
X696764Y379250D01*
X658776Y367249D02*
X655777D01*
X654777Y366249D01*
Y364250D01*
X655777Y363250D01*
X658776D01*
X660776D02*
X662775D01*
X661775D01*
Y369248D01*
X660776Y368248D01*
X669773Y369248D02*
X665774D01*
Y366249D01*
X667773Y367249D01*
X668773D01*
X669773Y366249D01*
Y364250D01*
X668773Y363250D01*
X666774D01*
X665774Y364250D01*
X675771Y363250D02*
X671772D01*
X675771Y367249D01*
Y368248D01*
X674771Y369248D01*
X672772D01*
X671772Y368248D01*
X677770Y369248D02*
Y363250D01*
Y366249D01*
X678770Y367249D01*
X680769D01*
X681769Y366249D01*
Y363250D01*
X683768D02*
Y367249D01*
X686767D01*
X687767Y366249D01*
Y363250D01*
X693765D02*
X689766D01*
X693765Y367249D01*
Y368248D01*
X692765Y369248D01*
X690766D01*
X689766Y368248D01*
X695764Y363250D02*
X697764D01*
X696764D01*
Y369248D01*
X695764Y368248D01*
X700763D02*
X701762Y369248D01*
X703762D01*
X704761Y368248D01*
Y364250D01*
X703762Y363250D01*
X701762D01*
X700763Y364250D01*
Y368248D01*
X580198Y468250D02*
Y474248D01*
X583197D01*
X584196Y473248D01*
Y471249D01*
X583197Y470249D01*
X580198D01*
X582197D02*
X584196Y468250D01*
X587195D02*
X589195D01*
X590195Y469250D01*
Y471249D01*
X589195Y472249D01*
X587195D01*
X586196Y471249D01*
Y469250D01*
X587195Y468250D01*
X592194Y472249D02*
Y469250D01*
X593193Y468250D01*
X596193D01*
Y472249D01*
X598192Y468250D02*
Y472249D01*
X601191D01*
X602191Y471249D01*
Y468250D01*
X608189Y474248D02*
Y468250D01*
X605190D01*
X604190Y469250D01*
Y471249D01*
X605190Y472249D01*
X608189D01*
X613187Y468250D02*
X611188D01*
X610188Y469250D01*
Y471249D01*
X611188Y472249D01*
X613187D01*
X614187Y471249D01*
Y470249D01*
X610188D01*
X620185Y474248D02*
Y468250D01*
X617186D01*
X616186Y469250D01*
Y471249D01*
X617186Y472249D01*
X620185D01*
X580198Y453250D02*
Y459248D01*
X583197D01*
X584196Y458248D01*
Y456249D01*
X583197Y455249D01*
X580198D01*
X582197D02*
X584196Y453250D01*
X587195D02*
X589195D01*
X590195Y454250D01*
Y456249D01*
X589195Y457249D01*
X587195D01*
X586196Y456249D01*
Y454250D01*
X587195Y453250D01*
X592194Y457249D02*
Y454250D01*
X593193Y453250D01*
X596193D01*
Y457249D01*
X598192Y453250D02*
Y457249D01*
X601191D01*
X602191Y456249D01*
Y453250D01*
X608189Y459248D02*
Y453250D01*
X605190D01*
X604190Y454250D01*
Y456249D01*
X605190Y457249D01*
X608189D01*
X613187Y453250D02*
X611188D01*
X610188Y454250D01*
Y456249D01*
X611188Y457249D01*
X613187D01*
X614187Y456249D01*
Y455249D01*
X610188D01*
X620185Y459248D02*
Y453250D01*
X617186D01*
X616186Y454250D01*
Y456249D01*
X617186Y457249D01*
X620185D01*
X580198Y438250D02*
Y444248D01*
X583197D01*
X584196Y443248D01*
Y441249D01*
X583197Y440249D01*
X580198D01*
X582197D02*
X584196Y438250D01*
X587195D02*
X589195D01*
X590195Y439250D01*
Y441249D01*
X589195Y442249D01*
X587195D01*
X586196Y441249D01*
Y439250D01*
X587195Y438250D01*
X592194Y442249D02*
Y439250D01*
X593193Y438250D01*
X596193D01*
Y442249D01*
X598192Y438250D02*
Y442249D01*
X601191D01*
X602191Y441249D01*
Y438250D01*
X608189Y444248D02*
Y438250D01*
X605190D01*
X604190Y439250D01*
Y441249D01*
X605190Y442249D01*
X608189D01*
X613187Y438250D02*
X611188D01*
X610188Y439250D01*
Y441249D01*
X611188Y442249D01*
X613187D01*
X614187Y441249D01*
Y440249D01*
X610188D01*
X620185Y444248D02*
Y438250D01*
X617186D01*
X616186Y439250D01*
Y441249D01*
X617186Y442249D01*
X620185D01*
X582197Y423250D02*
X580198Y425249D01*
Y427249D01*
X582197Y429248D01*
X585196Y423250D02*
Y429248D01*
X587195Y427249D01*
X589195Y429248D01*
Y423250D01*
X591194D02*
X593193D01*
X592194D01*
Y427249D01*
X591194D01*
X596193D02*
X600191Y423250D01*
X598192Y425249D01*
X600191Y427249D01*
X596193Y423250D01*
X605190D02*
X603190D01*
X602191Y424250D01*
Y426249D01*
X603190Y427249D01*
X605190D01*
X606189Y426249D01*
Y425249D01*
X602191D01*
X612187Y429248D02*
Y423250D01*
X609188D01*
X608189Y424250D01*
Y426249D01*
X609188Y427249D01*
X612187D01*
X614187Y423250D02*
X616186Y425249D01*
Y427249D01*
X614187Y429248D01*
X582197Y408250D02*
X580198Y410249D01*
Y412249D01*
X582197Y414248D01*
X585196Y408250D02*
Y414248D01*
X587195Y412249D01*
X589195Y414248D01*
Y408250D01*
X591194D02*
X593193D01*
X592194D01*
Y412249D01*
X591194D01*
X596193D02*
X600191Y408250D01*
X598192Y410249D01*
X600191Y412249D01*
X596193Y408250D01*
X605190D02*
X603190D01*
X602191Y409250D01*
Y411249D01*
X603190Y412249D01*
X605190D01*
X606189Y411249D01*
Y410249D01*
X602191D01*
X612187Y414248D02*
Y408250D01*
X609188D01*
X608189Y409250D01*
Y411249D01*
X609188Y412249D01*
X612187D01*
X614187Y408250D02*
X616186Y410249D01*
Y412249D01*
X614187Y414248D01*
X582197Y393250D02*
X580198Y395249D01*
Y397249D01*
X582197Y399248D01*
X585196Y393250D02*
Y399248D01*
X587195Y397249D01*
X589195Y399248D01*
Y393250D01*
X591194D02*
X593193D01*
X592194D01*
Y397249D01*
X591194D01*
X596193D02*
X600191Y393250D01*
X598192Y395249D01*
X600191Y397249D01*
X596193Y393250D01*
X605190D02*
X603190D01*
X602191Y394250D01*
Y396249D01*
X603190Y397249D01*
X605190D01*
X606189Y396249D01*
Y395249D01*
X602191D01*
X612187Y399248D02*
Y393250D01*
X609188D01*
X608189Y394250D01*
Y396249D01*
X609188Y397249D01*
X612187D01*
X614187Y393250D02*
X616186Y395249D01*
Y397249D01*
X614187Y399248D01*
X580198Y378250D02*
Y384248D01*
X583197D01*
X584196Y383248D01*
Y381249D01*
X583197Y380249D01*
X580198D01*
X582197D02*
X584196Y378250D01*
X587195D02*
X589195D01*
X590195Y379250D01*
Y381249D01*
X589195Y382249D01*
X587195D01*
X586196Y381249D01*
Y379250D01*
X587195Y378250D01*
X592194Y382249D02*
Y379250D01*
X593193Y378250D01*
X596193D01*
Y382249D01*
X598192Y378250D02*
Y382249D01*
X601191D01*
X602191Y381249D01*
Y378250D01*
X608189Y384248D02*
Y378250D01*
X605190D01*
X604190Y379250D01*
Y381249D01*
X605190Y382249D01*
X608189D01*
X613187Y378250D02*
X611188D01*
X610188Y379250D01*
Y381249D01*
X611188Y382249D01*
X613187D01*
X614187Y381249D01*
Y380249D01*
X610188D01*
X620185Y384248D02*
Y378250D01*
X617186D01*
X616186Y379250D01*
Y381249D01*
X617186Y382249D01*
X620185D01*
X580198Y363250D02*
Y369248D01*
X583197D01*
X584196Y368248D01*
Y366249D01*
X583197Y365249D01*
X580198D01*
X582197D02*
X584196Y363250D01*
X587195D02*
X589195D01*
X590195Y364250D01*
Y366249D01*
X589195Y367249D01*
X587195D01*
X586196Y366249D01*
Y364250D01*
X587195Y363250D01*
X592194Y367249D02*
Y364250D01*
X593193Y363250D01*
X596193D01*
Y367249D01*
X598192Y363250D02*
Y367249D01*
X601191D01*
X602191Y366249D01*
Y363250D01*
X608189Y369248D02*
Y363250D01*
X605190D01*
X604190Y364250D01*
Y366249D01*
X605190Y367249D01*
X608189D01*
X613187Y363250D02*
X611188D01*
X610188Y364250D01*
Y366249D01*
X611188Y367249D01*
X613187D01*
X614187Y366249D01*
Y365249D01*
X610188D01*
X620185Y369248D02*
Y363250D01*
X617186D01*
X616186Y364250D01*
Y366249D01*
X617186Y367249D01*
X620185D01*
X521213Y468250D02*
Y474248D01*
X524212D01*
X525211Y473248D01*
Y471249D01*
X524212Y470249D01*
X521213D01*
X528211Y472249D02*
X530210D01*
X531210Y471249D01*
Y468250D01*
X528211D01*
X527211Y469250D01*
X528211Y470249D01*
X531210D01*
X537208Y474248D02*
Y468250D01*
X534209D01*
X533209Y469250D01*
Y471249D01*
X534209Y472249D01*
X537208D01*
X521213Y453250D02*
Y459248D01*
X524212D01*
X525211Y458248D01*
Y456249D01*
X524212Y455249D01*
X521213D01*
X528211Y457249D02*
X530210D01*
X531210Y456249D01*
Y453250D01*
X528211D01*
X527211Y454250D01*
X528211Y455249D01*
X531210D01*
X537208Y459248D02*
Y453250D01*
X534209D01*
X533209Y454250D01*
Y456249D01*
X534209Y457249D01*
X537208D01*
X521213Y444248D02*
Y440249D01*
X523212Y438250D01*
X525211Y440249D01*
Y444248D01*
X527211Y438250D02*
X529210D01*
X528211D01*
Y442249D01*
X527211D01*
X533209D02*
X535208D01*
X536208Y441249D01*
Y438250D01*
X533209D01*
X532209Y439250D01*
X533209Y440249D01*
X536208D01*
X521213Y423250D02*
Y429248D01*
X524212D01*
X525211Y428248D01*
Y426249D01*
X524212Y425249D01*
X521213D01*
X528211Y427249D02*
X530210D01*
X531210Y426249D01*
Y423250D01*
X528211D01*
X527211Y424250D01*
X528211Y425249D01*
X531210D01*
X537208Y429248D02*
Y423250D01*
X534209D01*
X533209Y424250D01*
Y426249D01*
X534209Y427249D01*
X537208D01*
X521213Y408250D02*
Y414248D01*
X524212D01*
X525211Y413248D01*
Y411249D01*
X524212Y410249D01*
X521213D01*
X528211Y412249D02*
X530210D01*
X531210Y411249D01*
Y408250D01*
X528211D01*
X527211Y409250D01*
X528211Y410249D01*
X531210D01*
X537208Y414248D02*
Y408250D01*
X534209D01*
X533209Y409250D01*
Y411249D01*
X534209Y412249D01*
X537208D01*
X521213Y393250D02*
Y399248D01*
X524212D01*
X525211Y398248D01*
Y396249D01*
X524212Y395249D01*
X521213D01*
X528211Y397249D02*
X530210D01*
X531210Y396249D01*
Y393250D01*
X528211D01*
X527211Y394250D01*
X528211Y395249D01*
X531210D01*
X537208Y399248D02*
Y393250D01*
X534209D01*
X533209Y394250D01*
Y396249D01*
X534209Y397249D01*
X537208D01*
X521213Y378250D02*
Y384248D01*
X524212D01*
X525211Y383248D01*
Y381249D01*
X524212Y380249D01*
X521213D01*
X528211Y382249D02*
X530210D01*
X531210Y381249D01*
Y378250D01*
X528211D01*
X527211Y379250D01*
X528211Y380249D01*
X531210D01*
X537208Y384248D02*
Y378250D01*
X534209D01*
X533209Y379250D01*
Y381249D01*
X534209Y382249D01*
X537208D01*
X521213Y363250D02*
Y369248D01*
X524212D01*
X525211Y368248D01*
Y366249D01*
X524212Y365249D01*
X521213D01*
X528211Y367249D02*
X530210D01*
X531210Y366249D01*
Y363250D01*
X528211D01*
X527211Y364250D01*
X528211Y365249D01*
X531210D01*
X537208Y369248D02*
Y363250D01*
X534209D01*
X533209Y364250D01*
Y366249D01*
X534209Y367249D01*
X537208D01*
X371258Y474248D02*
X375256D01*
X373257D01*
Y468250D01*
X378256D02*
X380255D01*
X381255Y469250D01*
Y471249D01*
X380255Y472249D01*
X378256D01*
X377256Y471249D01*
Y469250D01*
X378256Y468250D01*
X383254Y466251D02*
Y472249D01*
X386253D01*
X387253Y471249D01*
Y469250D01*
X386253Y468250D01*
X383254D01*
X395250Y474248D02*
Y468250D01*
X399249D01*
X402248Y472249D02*
X404247D01*
X405247Y471249D01*
Y468250D01*
X402248D01*
X401248Y469250D01*
X402248Y470249D01*
X405247D01*
X407246Y472249D02*
Y469250D01*
X408246Y468250D01*
X411245D01*
Y467250D01*
X410245Y466251D01*
X409245D01*
X411245Y468250D02*
Y472249D01*
X416243Y468250D02*
X414244D01*
X413244Y469250D01*
Y471249D01*
X414244Y472249D01*
X416243D01*
X417243Y471249D01*
Y470249D01*
X413244D01*
X419242Y472249D02*
Y468250D01*
Y470249D01*
X420242Y471249D01*
X421242Y472249D01*
X422241D01*
X431238Y471249D02*
X435237D01*
X443234Y474248D02*
Y468250D01*
X446234D01*
X447233Y469250D01*
Y470249D01*
X446234Y471249D01*
X443234D01*
X446234D01*
X447233Y472249D01*
Y473248D01*
X446234Y474248D01*
X443234D01*
X450232Y468250D02*
X452232D01*
X453231Y469250D01*
Y471249D01*
X452232Y472249D01*
X450232D01*
X449233Y471249D01*
Y469250D01*
X450232Y468250D01*
X456230Y473248D02*
Y472249D01*
X455231D01*
X457230D01*
X456230D01*
Y469250D01*
X457230Y468250D01*
X461229Y473248D02*
Y472249D01*
X460229D01*
X462228D01*
X461229D01*
Y469250D01*
X462228Y468250D01*
X466227D02*
X468226D01*
X469226Y469250D01*
Y471249D01*
X468226Y472249D01*
X466227D01*
X465227Y471249D01*
Y469250D01*
X466227Y468250D01*
X471226D02*
Y472249D01*
X472225D01*
X473225Y471249D01*
Y468250D01*
Y471249D01*
X474225Y472249D01*
X475224Y471249D01*
Y468250D01*
X483222Y474248D02*
Y468250D01*
X487220D01*
X490219Y472249D02*
X492219D01*
X493218Y471249D01*
Y468250D01*
X490219D01*
X489220Y469250D01*
X490219Y470249D01*
X493218D01*
X495218Y472249D02*
Y469250D01*
X496217Y468250D01*
X499216D01*
Y467250D01*
X498217Y466251D01*
X497217D01*
X499216Y468250D02*
Y472249D01*
X504215Y468250D02*
X502215D01*
X501216Y469250D01*
Y471249D01*
X502215Y472249D01*
X504215D01*
X505215Y471249D01*
Y470249D01*
X501216D01*
X507214Y472249D02*
Y468250D01*
Y470249D01*
X508214Y471249D01*
X509213Y472249D01*
X510213D01*
X371258Y459248D02*
X375256D01*
X373257D01*
Y453250D01*
X378256D02*
X380255D01*
X381255Y454250D01*
Y456249D01*
X380255Y457249D01*
X378256D01*
X377256Y456249D01*
Y454250D01*
X378256Y453250D01*
X383254Y451251D02*
Y457249D01*
X386253D01*
X387253Y456249D01*
Y454250D01*
X386253Y453250D01*
X383254D01*
X395250Y459248D02*
Y453250D01*
X399249D01*
X402248Y457249D02*
X404247D01*
X405247Y456249D01*
Y453250D01*
X402248D01*
X401248Y454250D01*
X402248Y455249D01*
X405247D01*
X407246Y457249D02*
Y454250D01*
X408246Y453250D01*
X411245D01*
Y452250D01*
X410245Y451251D01*
X409245D01*
X411245Y453250D02*
Y457249D01*
X416243Y453250D02*
X414244D01*
X413244Y454250D01*
Y456249D01*
X414244Y457249D01*
X416243D01*
X417243Y456249D01*
Y455249D01*
X413244D01*
X419242Y457249D02*
Y453250D01*
Y455249D01*
X420242Y456249D01*
X421242Y457249D01*
X422241D01*
X431238Y456249D02*
X435237D01*
X443234Y459248D02*
Y453250D01*
X446234D01*
X447233Y454250D01*
Y455249D01*
X446234Y456249D01*
X443234D01*
X446234D01*
X447233Y457249D01*
Y458248D01*
X446234Y459248D01*
X443234D01*
X450232Y453250D02*
X452232D01*
X453231Y454250D01*
Y456249D01*
X452232Y457249D01*
X450232D01*
X449233Y456249D01*
Y454250D01*
X450232Y453250D01*
X456230Y458248D02*
Y457249D01*
X455231D01*
X457230D01*
X456230D01*
Y454250D01*
X457230Y453250D01*
X461229Y458248D02*
Y457249D01*
X460229D01*
X462228D01*
X461229D01*
Y454250D01*
X462228Y453250D01*
X466227D02*
X468226D01*
X469226Y454250D01*
Y456249D01*
X468226Y457249D01*
X466227D01*
X465227Y456249D01*
Y454250D01*
X466227Y453250D01*
X471226D02*
Y457249D01*
X472225D01*
X473225Y456249D01*
Y453250D01*
Y456249D01*
X474225Y457249D01*
X475224Y456249D01*
Y453250D01*
X483222Y459248D02*
Y453250D01*
X487220D01*
X490219Y457249D02*
X492219D01*
X493218Y456249D01*
Y453250D01*
X490219D01*
X489220Y454250D01*
X490219Y455249D01*
X493218D01*
X495218Y457249D02*
Y454250D01*
X496217Y453250D01*
X499216D01*
Y452250D01*
X498217Y451251D01*
X497217D01*
X499216Y453250D02*
Y457249D01*
X504215Y453250D02*
X502215D01*
X501216Y454250D01*
Y456249D01*
X502215Y457249D01*
X504215D01*
X505215Y456249D01*
Y455249D01*
X501216D01*
X507214Y457249D02*
Y453250D01*
Y455249D01*
X508214Y456249D01*
X509213Y457249D01*
X510213D01*
X371258Y444248D02*
X375256D01*
X373257D01*
Y438250D01*
X378256D02*
X380255D01*
X381255Y439250D01*
Y441249D01*
X380255Y442249D01*
X378256D01*
X377256Y441249D01*
Y439250D01*
X378256Y438250D01*
X383254Y436251D02*
Y442249D01*
X386253D01*
X387253Y441249D01*
Y439250D01*
X386253Y438250D01*
X383254D01*
X395250Y444248D02*
Y438250D01*
X399249D01*
X402248Y442249D02*
X404247D01*
X405247Y441249D01*
Y438250D01*
X402248D01*
X401248Y439250D01*
X402248Y440249D01*
X405247D01*
X407246Y442249D02*
Y439250D01*
X408246Y438250D01*
X411245D01*
Y437250D01*
X410245Y436251D01*
X409245D01*
X411245Y438250D02*
Y442249D01*
X416243Y438250D02*
X414244D01*
X413244Y439250D01*
Y441249D01*
X414244Y442249D01*
X416243D01*
X417243Y441249D01*
Y440249D01*
X413244D01*
X419242Y442249D02*
Y438250D01*
Y440249D01*
X420242Y441249D01*
X421242Y442249D01*
X422241D01*
X431238Y441249D02*
X435237D01*
X443234Y444248D02*
Y438250D01*
X446234D01*
X447233Y439250D01*
Y440249D01*
X446234Y441249D01*
X443234D01*
X446234D01*
X447233Y442249D01*
Y443248D01*
X446234Y444248D01*
X443234D01*
X450232Y438250D02*
X452232D01*
X453231Y439250D01*
Y441249D01*
X452232Y442249D01*
X450232D01*
X449233Y441249D01*
Y439250D01*
X450232Y438250D01*
X456230Y443248D02*
Y442249D01*
X455231D01*
X457230D01*
X456230D01*
Y439250D01*
X457230Y438250D01*
X461229Y443248D02*
Y442249D01*
X460229D01*
X462228D01*
X461229D01*
Y439250D01*
X462228Y438250D01*
X466227D02*
X468226D01*
X469226Y439250D01*
Y441249D01*
X468226Y442249D01*
X466227D01*
X465227Y441249D01*
Y439250D01*
X466227Y438250D01*
X471226D02*
Y442249D01*
X472225D01*
X473225Y441249D01*
Y438250D01*
Y441249D01*
X474225Y442249D01*
X475224Y441249D01*
Y438250D01*
X483222Y444248D02*
Y438250D01*
X487220D01*
X490219Y442249D02*
X492219D01*
X493218Y441249D01*
Y438250D01*
X490219D01*
X489220Y439250D01*
X490219Y440249D01*
X493218D01*
X495218Y442249D02*
Y439250D01*
X496217Y438250D01*
X499216D01*
Y437250D01*
X498217Y436251D01*
X497217D01*
X499216Y438250D02*
Y442249D01*
X504215Y438250D02*
X502215D01*
X501216Y439250D01*
Y441249D01*
X502215Y442249D01*
X504215D01*
X505215Y441249D01*
Y440249D01*
X501216D01*
X507214Y442249D02*
Y438250D01*
Y440249D01*
X508214Y441249D01*
X509213Y442249D01*
X510213D01*
X371258Y429248D02*
X375256D01*
X373257D01*
Y423250D01*
X378256D02*
X380255D01*
X381255Y424250D01*
Y426249D01*
X380255Y427249D01*
X378256D01*
X377256Y426249D01*
Y424250D01*
X378256Y423250D01*
X383254Y421251D02*
Y427249D01*
X386253D01*
X387253Y426249D01*
Y424250D01*
X386253Y423250D01*
X383254D01*
X395250Y429248D02*
Y423250D01*
X399249D01*
X402248Y427249D02*
X404247D01*
X405247Y426249D01*
Y423250D01*
X402248D01*
X401248Y424250D01*
X402248Y425249D01*
X405247D01*
X407246Y427249D02*
Y424250D01*
X408246Y423250D01*
X411245D01*
Y422250D01*
X410245Y421251D01*
X409245D01*
X411245Y423250D02*
Y427249D01*
X416243Y423250D02*
X414244D01*
X413244Y424250D01*
Y426249D01*
X414244Y427249D01*
X416243D01*
X417243Y426249D01*
Y425249D01*
X413244D01*
X419242Y427249D02*
Y423250D01*
Y425249D01*
X420242Y426249D01*
X421242Y427249D01*
X422241D01*
X431238Y426249D02*
X435237D01*
X443234Y429248D02*
Y423250D01*
X446234D01*
X447233Y424250D01*
Y425249D01*
X446234Y426249D01*
X443234D01*
X446234D01*
X447233Y427249D01*
Y428248D01*
X446234Y429248D01*
X443234D01*
X450232Y423250D02*
X452232D01*
X453231Y424250D01*
Y426249D01*
X452232Y427249D01*
X450232D01*
X449233Y426249D01*
Y424250D01*
X450232Y423250D01*
X456230Y428248D02*
Y427249D01*
X455231D01*
X457230D01*
X456230D01*
Y424250D01*
X457230Y423250D01*
X461229Y428248D02*
Y427249D01*
X460229D01*
X462228D01*
X461229D01*
Y424250D01*
X462228Y423250D01*
X466227D02*
X468226D01*
X469226Y424250D01*
Y426249D01*
X468226Y427249D01*
X466227D01*
X465227Y426249D01*
Y424250D01*
X466227Y423250D01*
X471226D02*
Y427249D01*
X472225D01*
X473225Y426249D01*
Y423250D01*
Y426249D01*
X474225Y427249D01*
X475224Y426249D01*
Y423250D01*
X483222Y429248D02*
Y423250D01*
X487220D01*
X490219Y427249D02*
X492219D01*
X493218Y426249D01*
Y423250D01*
X490219D01*
X489220Y424250D01*
X490219Y425249D01*
X493218D01*
X495218Y427249D02*
Y424250D01*
X496217Y423250D01*
X499216D01*
Y422250D01*
X498217Y421251D01*
X497217D01*
X499216Y423250D02*
Y427249D01*
X504215Y423250D02*
X502215D01*
X501216Y424250D01*
Y426249D01*
X502215Y427249D01*
X504215D01*
X505215Y426249D01*
Y425249D01*
X501216D01*
X507214Y427249D02*
Y423250D01*
Y425249D01*
X508214Y426249D01*
X509213Y427249D01*
X510213D01*
X371258Y414248D02*
X375256D01*
X373257D01*
Y408250D01*
X378256D02*
X380255D01*
X381255Y409250D01*
Y411249D01*
X380255Y412249D01*
X378256D01*
X377256Y411249D01*
Y409250D01*
X378256Y408250D01*
X383254Y406251D02*
Y412249D01*
X386253D01*
X387253Y411249D01*
Y409250D01*
X386253Y408250D01*
X383254D01*
X395250Y414248D02*
Y408250D01*
X399249D01*
X402248Y412249D02*
X404247D01*
X405247Y411249D01*
Y408250D01*
X402248D01*
X401248Y409250D01*
X402248Y410249D01*
X405247D01*
X407246Y412249D02*
Y409250D01*
X408246Y408250D01*
X411245D01*
Y407250D01*
X410245Y406251D01*
X409245D01*
X411245Y408250D02*
Y412249D01*
X416243Y408250D02*
X414244D01*
X413244Y409250D01*
Y411249D01*
X414244Y412249D01*
X416243D01*
X417243Y411249D01*
Y410249D01*
X413244D01*
X419242Y412249D02*
Y408250D01*
Y410249D01*
X420242Y411249D01*
X421242Y412249D01*
X422241D01*
X431238Y411249D02*
X435237D01*
X443234Y414248D02*
Y408250D01*
X446234D01*
X447233Y409250D01*
Y410249D01*
X446234Y411249D01*
X443234D01*
X446234D01*
X447233Y412249D01*
Y413248D01*
X446234Y414248D01*
X443234D01*
X450232Y408250D02*
X452232D01*
X453231Y409250D01*
Y411249D01*
X452232Y412249D01*
X450232D01*
X449233Y411249D01*
Y409250D01*
X450232Y408250D01*
X456230Y413248D02*
Y412249D01*
X455231D01*
X457230D01*
X456230D01*
Y409250D01*
X457230Y408250D01*
X461229Y413248D02*
Y412249D01*
X460229D01*
X462228D01*
X461229D01*
Y409250D01*
X462228Y408250D01*
X466227D02*
X468226D01*
X469226Y409250D01*
Y411249D01*
X468226Y412249D01*
X466227D01*
X465227Y411249D01*
Y409250D01*
X466227Y408250D01*
X471226D02*
Y412249D01*
X472225D01*
X473225Y411249D01*
Y408250D01*
Y411249D01*
X474225Y412249D01*
X475224Y411249D01*
Y408250D01*
X483222Y414248D02*
Y408250D01*
X487220D01*
X490219Y412249D02*
X492219D01*
X493218Y411249D01*
Y408250D01*
X490219D01*
X489220Y409250D01*
X490219Y410249D01*
X493218D01*
X495218Y412249D02*
Y409250D01*
X496217Y408250D01*
X499216D01*
Y407250D01*
X498217Y406251D01*
X497217D01*
X499216Y408250D02*
Y412249D01*
X504215Y408250D02*
X502215D01*
X501216Y409250D01*
Y411249D01*
X502215Y412249D01*
X504215D01*
X505215Y411249D01*
Y410249D01*
X501216D01*
X507214Y412249D02*
Y408250D01*
Y410249D01*
X508214Y411249D01*
X509213Y412249D01*
X510213D01*
X371258Y399248D02*
X375256D01*
X373257D01*
Y393250D01*
X378256D02*
X380255D01*
X381255Y394250D01*
Y396249D01*
X380255Y397249D01*
X378256D01*
X377256Y396249D01*
Y394250D01*
X378256Y393250D01*
X383254Y391251D02*
Y397249D01*
X386253D01*
X387253Y396249D01*
Y394250D01*
X386253Y393250D01*
X383254D01*
X395250Y399248D02*
Y393250D01*
X399249D01*
X402248Y397249D02*
X404247D01*
X405247Y396249D01*
Y393250D01*
X402248D01*
X401248Y394250D01*
X402248Y395249D01*
X405247D01*
X407246Y397249D02*
Y394250D01*
X408246Y393250D01*
X411245D01*
Y392250D01*
X410245Y391251D01*
X409245D01*
X411245Y393250D02*
Y397249D01*
X416243Y393250D02*
X414244D01*
X413244Y394250D01*
Y396249D01*
X414244Y397249D01*
X416243D01*
X417243Y396249D01*
Y395249D01*
X413244D01*
X419242Y397249D02*
Y393250D01*
Y395249D01*
X420242Y396249D01*
X421242Y397249D01*
X422241D01*
X431238Y396249D02*
X435237D01*
X443234Y399248D02*
Y393250D01*
X446234D01*
X447233Y394250D01*
Y395249D01*
X446234Y396249D01*
X443234D01*
X446234D01*
X447233Y397249D01*
Y398248D01*
X446234Y399248D01*
X443234D01*
X450232Y393250D02*
X452232D01*
X453231Y394250D01*
Y396249D01*
X452232Y397249D01*
X450232D01*
X449233Y396249D01*
Y394250D01*
X450232Y393250D01*
X456230Y398248D02*
Y397249D01*
X455231D01*
X457230D01*
X456230D01*
Y394250D01*
X457230Y393250D01*
X461229Y398248D02*
Y397249D01*
X460229D01*
X462228D01*
X461229D01*
Y394250D01*
X462228Y393250D01*
X466227D02*
X468226D01*
X469226Y394250D01*
Y396249D01*
X468226Y397249D01*
X466227D01*
X465227Y396249D01*
Y394250D01*
X466227Y393250D01*
X471226D02*
Y397249D01*
X472225D01*
X473225Y396249D01*
Y393250D01*
Y396249D01*
X474225Y397249D01*
X475224Y396249D01*
Y393250D01*
X483222Y399248D02*
Y393250D01*
X487220D01*
X490219Y397249D02*
X492219D01*
X493218Y396249D01*
Y393250D01*
X490219D01*
X489220Y394250D01*
X490219Y395249D01*
X493218D01*
X495218Y397249D02*
Y394250D01*
X496217Y393250D01*
X499216D01*
Y392250D01*
X498217Y391251D01*
X497217D01*
X499216Y393250D02*
Y397249D01*
X504215Y393250D02*
X502215D01*
X501216Y394250D01*
Y396249D01*
X502215Y397249D01*
X504215D01*
X505215Y396249D01*
Y395249D01*
X501216D01*
X507214Y397249D02*
Y393250D01*
Y395249D01*
X508214Y396249D01*
X509213Y397249D01*
X510213D01*
X371258Y384248D02*
X375256D01*
X373257D01*
Y378250D01*
X378256D02*
X380255D01*
X381255Y379250D01*
Y381249D01*
X380255Y382249D01*
X378256D01*
X377256Y381249D01*
Y379250D01*
X378256Y378250D01*
X383254Y376251D02*
Y382249D01*
X386253D01*
X387253Y381249D01*
Y379250D01*
X386253Y378250D01*
X383254D01*
X395250Y384248D02*
Y378250D01*
X399249D01*
X402248Y382249D02*
X404247D01*
X405247Y381249D01*
Y378250D01*
X402248D01*
X401248Y379250D01*
X402248Y380249D01*
X405247D01*
X407246Y382249D02*
Y379250D01*
X408246Y378250D01*
X411245D01*
Y377250D01*
X410245Y376251D01*
X409245D01*
X411245Y378250D02*
Y382249D01*
X416243Y378250D02*
X414244D01*
X413244Y379250D01*
Y381249D01*
X414244Y382249D01*
X416243D01*
X417243Y381249D01*
Y380249D01*
X413244D01*
X419242Y382249D02*
Y378250D01*
Y380249D01*
X420242Y381249D01*
X421242Y382249D01*
X422241D01*
X431238Y381249D02*
X435237D01*
X443234Y384248D02*
Y378250D01*
X446234D01*
X447233Y379250D01*
Y380249D01*
X446234Y381249D01*
X443234D01*
X446234D01*
X447233Y382249D01*
Y383248D01*
X446234Y384248D01*
X443234D01*
X450232Y378250D02*
X452232D01*
X453231Y379250D01*
Y381249D01*
X452232Y382249D01*
X450232D01*
X449233Y381249D01*
Y379250D01*
X450232Y378250D01*
X456230Y383248D02*
Y382249D01*
X455231D01*
X457230D01*
X456230D01*
Y379250D01*
X457230Y378250D01*
X461229Y383248D02*
Y382249D01*
X460229D01*
X462228D01*
X461229D01*
Y379250D01*
X462228Y378250D01*
X466227D02*
X468226D01*
X469226Y379250D01*
Y381249D01*
X468226Y382249D01*
X466227D01*
X465227Y381249D01*
Y379250D01*
X466227Y378250D01*
X471226D02*
Y382249D01*
X472225D01*
X473225Y381249D01*
Y378250D01*
Y381249D01*
X474225Y382249D01*
X475224Y381249D01*
Y378250D01*
X483222Y384248D02*
Y378250D01*
X487220D01*
X490219Y382249D02*
X492219D01*
X493218Y381249D01*
Y378250D01*
X490219D01*
X489220Y379250D01*
X490219Y380249D01*
X493218D01*
X495218Y382249D02*
Y379250D01*
X496217Y378250D01*
X499216D01*
Y377250D01*
X498217Y376251D01*
X497217D01*
X499216Y378250D02*
Y382249D01*
X504215Y378250D02*
X502215D01*
X501216Y379250D01*
Y381249D01*
X502215Y382249D01*
X504215D01*
X505215Y381249D01*
Y380249D01*
X501216D01*
X507214Y382249D02*
Y378250D01*
Y380249D01*
X508214Y381249D01*
X509213Y382249D01*
X510213D01*
X371258Y369248D02*
X375256D01*
X373257D01*
Y363250D01*
X378256D02*
X380255D01*
X381255Y364250D01*
Y366249D01*
X380255Y367249D01*
X378256D01*
X377256Y366249D01*
Y364250D01*
X378256Y363250D01*
X383254Y361251D02*
Y367249D01*
X386253D01*
X387253Y366249D01*
Y364250D01*
X386253Y363250D01*
X383254D01*
X395250Y369248D02*
Y363250D01*
X399249D01*
X402248Y367249D02*
X404247D01*
X405247Y366249D01*
Y363250D01*
X402248D01*
X401248Y364250D01*
X402248Y365249D01*
X405247D01*
X407246Y367249D02*
Y364250D01*
X408246Y363250D01*
X411245D01*
Y362250D01*
X410245Y361251D01*
X409245D01*
X411245Y363250D02*
Y367249D01*
X416243Y363250D02*
X414244D01*
X413244Y364250D01*
Y366249D01*
X414244Y367249D01*
X416243D01*
X417243Y366249D01*
Y365249D01*
X413244D01*
X419242Y367249D02*
Y363250D01*
Y365249D01*
X420242Y366249D01*
X421242Y367249D01*
X422241D01*
X431238Y366249D02*
X435237D01*
X443234Y369248D02*
Y363250D01*
X446234D01*
X447233Y364250D01*
Y365249D01*
X446234Y366249D01*
X443234D01*
X446234D01*
X447233Y367249D01*
Y368248D01*
X446234Y369248D01*
X443234D01*
X450232Y363250D02*
X452232D01*
X453231Y364250D01*
Y366249D01*
X452232Y367249D01*
X450232D01*
X449233Y366249D01*
Y364250D01*
X450232Y363250D01*
X456230Y368248D02*
Y367249D01*
X455231D01*
X457230D01*
X456230D01*
Y364250D01*
X457230Y363250D01*
X461229Y368248D02*
Y367249D01*
X460229D01*
X462228D01*
X461229D01*
Y364250D01*
X462228Y363250D01*
X466227D02*
X468226D01*
X469226Y364250D01*
Y366249D01*
X468226Y367249D01*
X466227D01*
X465227Y366249D01*
Y364250D01*
X466227Y363250D01*
X471226D02*
Y367249D01*
X472225D01*
X473225Y366249D01*
Y363250D01*
Y366249D01*
X474225Y367249D01*
X475224Y366249D01*
Y363250D01*
X483222Y369248D02*
Y363250D01*
X487220D01*
X490219Y367249D02*
X492219D01*
X493218Y366249D01*
Y363250D01*
X490219D01*
X489220Y364250D01*
X490219Y365249D01*
X493218D01*
X495218Y367249D02*
Y364250D01*
X496217Y363250D01*
X499216D01*
Y362250D01*
X498217Y361251D01*
X497217D01*
X499216Y363250D02*
Y367249D01*
X504215Y363250D02*
X502215D01*
X501216Y364250D01*
Y366249D01*
X502215Y367249D01*
X504215D01*
X505215Y366249D01*
Y365249D01*
X501216D01*
X507214Y367249D02*
Y363250D01*
Y365249D01*
X508214Y366249D01*
X509213Y367249D01*
X510213D01*
X297878Y468250D02*
Y474248D01*
X300877D01*
X301876Y473248D01*
Y471249D01*
X300877Y470249D01*
X297878D01*
X299877D02*
X301876Y468250D01*
X304875D02*
X306875D01*
X307874Y469250D01*
Y471249D01*
X306875Y472249D01*
X304875D01*
X303876Y471249D01*
Y469250D01*
X304875Y468250D01*
X309874Y472249D02*
Y469250D01*
X310873Y468250D01*
X313872D01*
Y472249D01*
X315872Y468250D02*
Y472249D01*
X318871D01*
X319870Y471249D01*
Y468250D01*
X325869Y474248D02*
Y468250D01*
X322869D01*
X321870Y469250D01*
Y471249D01*
X322869Y472249D01*
X325869D01*
X297878Y453250D02*
Y459248D01*
X300877D01*
X301876Y458248D01*
Y456249D01*
X300877Y455249D01*
X297878D01*
X299877D02*
X301876Y453250D01*
X304875D02*
X306875D01*
X307874Y454250D01*
Y456249D01*
X306875Y457249D01*
X304875D01*
X303876Y456249D01*
Y454250D01*
X304875Y453250D01*
X309874Y457249D02*
Y454250D01*
X310873Y453250D01*
X313872D01*
Y457249D01*
X315872Y453250D02*
Y457249D01*
X318871D01*
X319870Y456249D01*
Y453250D01*
X325869Y459248D02*
Y453250D01*
X322869D01*
X321870Y454250D01*
Y456249D01*
X322869Y457249D01*
X325869D01*
X297878Y438250D02*
Y444248D01*
X300877D01*
X301876Y443248D01*
Y441249D01*
X300877Y440249D01*
X297878D01*
X299877D02*
X301876Y438250D01*
X304875D02*
X306875D01*
X307874Y439250D01*
Y441249D01*
X306875Y442249D01*
X304875D01*
X303876Y441249D01*
Y439250D01*
X304875Y438250D01*
X309874Y442249D02*
Y439250D01*
X310873Y438250D01*
X313872D01*
Y442249D01*
X315872Y438250D02*
Y442249D01*
X318871D01*
X319870Y441249D01*
Y438250D01*
X325869Y444248D02*
Y438250D01*
X322869D01*
X321870Y439250D01*
Y441249D01*
X322869Y442249D01*
X325869D01*
X297878Y423250D02*
Y429248D01*
X300877D01*
X301876Y428248D01*
Y426249D01*
X300877Y425249D01*
X297878D01*
X299877D02*
X301876Y423250D01*
X304875D02*
X306875D01*
X307874Y424250D01*
Y426249D01*
X306875Y427249D01*
X304875D01*
X303876Y426249D01*
Y424250D01*
X304875Y423250D01*
X309874Y427249D02*
Y424250D01*
X310873Y423250D01*
X313872D01*
Y427249D01*
X315872Y423250D02*
Y427249D01*
X318871D01*
X319870Y426249D01*
Y423250D01*
X325869Y429248D02*
Y423250D01*
X322869D01*
X321870Y424250D01*
Y426249D01*
X322869Y427249D01*
X325869D01*
X297878Y408250D02*
Y414248D01*
X300877D01*
X301876Y413248D01*
Y411249D01*
X300877Y410249D01*
X297878D01*
X299877D02*
X301876Y408250D01*
X304875D02*
X306875D01*
X307874Y409250D01*
Y411249D01*
X306875Y412249D01*
X304875D01*
X303876Y411249D01*
Y409250D01*
X304875Y408250D01*
X309874Y412249D02*
Y409250D01*
X310873Y408250D01*
X313872D01*
Y412249D01*
X315872Y408250D02*
Y412249D01*
X318871D01*
X319870Y411249D01*
Y408250D01*
X325869Y414248D02*
Y408250D01*
X322869D01*
X321870Y409250D01*
Y411249D01*
X322869Y412249D01*
X325869D01*
X297878Y393250D02*
Y399248D01*
X300877D01*
X301876Y398248D01*
Y396249D01*
X300877Y395249D01*
X297878D01*
X299877D02*
X301876Y393250D01*
X304875D02*
X306875D01*
X307874Y394250D01*
Y396249D01*
X306875Y397249D01*
X304875D01*
X303876Y396249D01*
Y394250D01*
X304875Y393250D01*
X309874Y397249D02*
Y394250D01*
X310873Y393250D01*
X313872D01*
Y397249D01*
X315872Y393250D02*
Y397249D01*
X318871D01*
X319870Y396249D01*
Y393250D01*
X325869Y399248D02*
Y393250D01*
X322869D01*
X321870Y394250D01*
Y396249D01*
X322869Y397249D01*
X325869D01*
X297878Y378250D02*
Y384248D01*
X300877D01*
X301876Y383248D01*
Y381249D01*
X300877Y380249D01*
X297878D01*
X299877D02*
X301876Y378250D01*
X304875D02*
X306875D01*
X307874Y379250D01*
Y381249D01*
X306875Y382249D01*
X304875D01*
X303876Y381249D01*
Y379250D01*
X304875Y378250D01*
X309874Y382249D02*
Y379250D01*
X310873Y378250D01*
X313872D01*
Y382249D01*
X315872Y378250D02*
Y382249D01*
X318871D01*
X319870Y381249D01*
Y378250D01*
X325869Y384248D02*
Y378250D01*
X322869D01*
X321870Y379250D01*
Y381249D01*
X322869Y382249D01*
X325869D01*
X297878Y363250D02*
Y369248D01*
X300877D01*
X301876Y368248D01*
Y366249D01*
X300877Y365249D01*
X297878D01*
X299877D02*
X301876Y363250D01*
X304875D02*
X306875D01*
X307874Y364250D01*
Y366249D01*
X306875Y367249D01*
X304875D01*
X303876Y366249D01*
Y364250D01*
X304875Y363250D01*
X309874Y367249D02*
Y364250D01*
X310873Y363250D01*
X313872D01*
Y367249D01*
X315872Y363250D02*
Y367249D01*
X318871D01*
X319870Y366249D01*
Y363250D01*
X325869Y369248D02*
Y363250D01*
X322869D01*
X321870Y364250D01*
Y366249D01*
X322869Y367249D01*
X325869D01*
X247290Y468250D02*
Y474248D01*
X250289D01*
X251289Y473248D01*
Y471249D01*
X250289Y470249D01*
X247290D01*
X253288Y474248D02*
X257287D01*
X255287D01*
Y468250D01*
X259286Y474248D02*
Y468250D01*
Y471249D01*
X263285D01*
Y474248D01*
Y468250D01*
X247290Y453250D02*
Y459248D01*
X250289D01*
X251289Y458248D01*
Y456249D01*
X250289Y455249D01*
X247290D01*
X253288Y459248D02*
X257287D01*
X255287D01*
Y453250D01*
X259286Y459248D02*
Y453250D01*
Y456249D01*
X263285D01*
Y459248D01*
Y453250D01*
X247290Y438250D02*
Y444248D01*
X250289D01*
X251289Y443248D01*
Y441249D01*
X250289Y440249D01*
X247290D01*
X253288Y444248D02*
X257287D01*
X255287D01*
Y438250D01*
X259286Y444248D02*
Y438250D01*
Y441249D01*
X263285D01*
Y444248D01*
Y438250D01*
X247290Y423250D02*
Y429248D01*
X250289D01*
X251289Y428248D01*
Y426249D01*
X250289Y425249D01*
X247290D01*
X253288Y429248D02*
X257287D01*
X255287D01*
Y423250D01*
X259286Y429248D02*
Y423250D01*
Y426249D01*
X263285D01*
Y429248D01*
Y423250D01*
X247290Y408250D02*
Y414248D01*
X250289D01*
X251289Y413248D01*
Y411249D01*
X250289Y410249D01*
X247290D01*
X253288Y414248D02*
X257287D01*
X255287D01*
Y408250D01*
X259286Y414248D02*
Y408250D01*
Y411249D01*
X263285D01*
Y414248D01*
Y408250D01*
X247290Y393250D02*
Y399248D01*
X250289D01*
X251289Y398248D01*
Y396249D01*
X250289Y395249D01*
X247290D01*
X253288Y399248D02*
X257287D01*
X255287D01*
Y393250D01*
X259286Y399248D02*
Y393250D01*
Y396249D01*
X263285D01*
Y399248D01*
Y393250D01*
X247290Y378250D02*
Y384248D01*
X250289D01*
X251289Y383248D01*
Y381249D01*
X250289Y380249D01*
X247290D01*
X253288Y384248D02*
X257287D01*
X255287D01*
Y378250D01*
X259286Y384248D02*
Y378250D01*
Y381249D01*
X263285D01*
Y384248D01*
Y378250D01*
X247290Y363250D02*
Y369248D01*
X251289Y363250D01*
Y369248D01*
X253288Y363250D02*
Y369248D01*
X256287D01*
X257287Y368248D01*
Y366249D01*
X256287Y365249D01*
X253288D01*
X259286Y369248D02*
X263285D01*
X261285D01*
Y363250D01*
X265284Y369248D02*
Y363250D01*
Y366249D01*
X269283D01*
Y369248D01*
Y363250D01*
X137322Y468250D02*
X139321D01*
X138322D01*
Y474248D01*
X137322Y473248D01*
X142320D02*
X143320Y474248D01*
X145319D01*
X146319Y473248D01*
Y472249D01*
X145319Y471249D01*
X146319Y470249D01*
Y469250D01*
X145319Y468250D01*
X143320D01*
X142320Y469250D01*
Y470249D01*
X143320Y471249D01*
X142320Y472249D01*
Y473248D01*
X143320Y471249D02*
X145319D01*
X148319Y468250D02*
Y469250D01*
X149318D01*
Y468250D01*
X148319D01*
X153317Y473248D02*
X154316Y474248D01*
X156316D01*
X157316Y473248D01*
Y469250D01*
X156316Y468250D01*
X154316D01*
X153317Y469250D01*
Y473248D01*
X159315D02*
X160315Y474248D01*
X162314D01*
X163314Y473248D01*
Y469250D01*
X162314Y468250D01*
X160315D01*
X159315Y469250D01*
Y473248D01*
X165313Y468250D02*
Y472249D01*
X166313D01*
X167312Y471249D01*
Y468250D01*
Y471249D01*
X168312Y472249D01*
X169312Y471249D01*
Y468250D01*
X171311D02*
X173310D01*
X172311D01*
Y472249D01*
X171311D01*
X176309Y468250D02*
X178309D01*
X177309D01*
Y474248D01*
X176309D01*
X189305Y468250D02*
X187306Y470249D01*
Y472249D01*
X189305Y474248D01*
X192304Y473248D02*
X193304Y474248D01*
X195303D01*
X196303Y473248D01*
Y469250D01*
X195303Y468250D01*
X193304D01*
X192304Y469250D01*
Y473248D01*
X198302Y468250D02*
Y469250D01*
X199302D01*
Y468250D01*
X198302D01*
X206300D02*
Y474248D01*
X203301Y471249D01*
X207299D01*
X213297Y474248D02*
X209299D01*
Y471249D01*
X211298Y472249D01*
X212298D01*
X213297Y471249D01*
Y469250D01*
X212298Y468250D01*
X210298D01*
X209299Y469250D01*
X215297Y474248D02*
X219296D01*
Y473248D01*
X215297Y469250D01*
Y468250D01*
X221295D02*
Y472249D01*
X222294D01*
X223294Y471249D01*
Y468250D01*
Y471249D01*
X224294Y472249D01*
X225294Y471249D01*
Y468250D01*
X227293D02*
Y472249D01*
X228293D01*
X229292Y471249D01*
Y468250D01*
Y471249D01*
X230292Y472249D01*
X231292Y471249D01*
Y468250D01*
X233291D02*
X235290Y470249D01*
Y472249D01*
X233291Y474248D01*
X141321Y453250D02*
X137322D01*
X141321Y457249D01*
Y458248D01*
X140321Y459248D01*
X138322D01*
X137322Y458248D01*
X143320Y459248D02*
X147319D01*
Y458248D01*
X143320Y454250D01*
Y453250D01*
X149318D02*
Y454250D01*
X150318D01*
Y453250D01*
X149318D01*
X158315Y459248D02*
X154316D01*
Y456249D01*
X156316Y457249D01*
X157316D01*
X158315Y456249D01*
Y454250D01*
X157316Y453250D01*
X155316D01*
X154316Y454250D01*
X164313Y459248D02*
X162314Y458248D01*
X160315Y456249D01*
Y454250D01*
X161314Y453250D01*
X163314D01*
X164313Y454250D01*
Y455249D01*
X163314Y456249D01*
X160315D01*
X166313Y453250D02*
Y457249D01*
X167312D01*
X168312Y456249D01*
Y453250D01*
Y456249D01*
X169312Y457249D01*
X170311Y456249D01*
Y453250D01*
X172311D02*
X174310D01*
X173310D01*
Y457249D01*
X172311D01*
X177309Y453250D02*
X179308D01*
X178309D01*
Y459248D01*
X177309D01*
X190305Y453250D02*
X188305Y455249D01*
Y457249D01*
X190305Y459248D01*
X193304Y458248D02*
X194304Y459248D01*
X196303D01*
X197303Y458248D01*
Y454250D01*
X196303Y453250D01*
X194304D01*
X193304Y454250D01*
Y458248D01*
X199302Y453250D02*
Y454250D01*
X200302D01*
Y453250D01*
X199302D01*
X204300Y459248D02*
X208299D01*
Y458248D01*
X204300Y454250D01*
Y453250D01*
X210298Y458248D02*
X211298Y459248D01*
X213297D01*
X214297Y458248D01*
Y454250D01*
X213297Y453250D01*
X211298D01*
X210298Y454250D01*
Y458248D01*
X216297D02*
X217296Y459248D01*
X219296D01*
X220295Y458248D01*
Y454250D01*
X219296Y453250D01*
X217296D01*
X216297Y454250D01*
Y458248D01*
X222294Y453250D02*
Y457249D01*
X223294D01*
X224294Y456249D01*
Y453250D01*
Y456249D01*
X225294Y457249D01*
X226293Y456249D01*
Y453250D01*
X228293D02*
Y457249D01*
X229292D01*
X230292Y456249D01*
Y453250D01*
Y456249D01*
X231292Y457249D01*
X232291Y456249D01*
Y453250D01*
X234291D02*
X236290Y455249D01*
Y457249D01*
X234291Y459248D01*
X141321Y438250D02*
X137322D01*
X141321Y442249D01*
Y443248D01*
X140321Y444248D01*
X138322D01*
X137322Y443248D01*
X143320D02*
X144320Y444248D01*
X146319D01*
X147319Y443248D01*
Y442249D01*
X146319Y441249D01*
X147319Y440249D01*
Y439250D01*
X146319Y438250D01*
X144320D01*
X143320Y439250D01*
Y440249D01*
X144320Y441249D01*
X143320Y442249D01*
Y443248D01*
X144320Y441249D02*
X146319D01*
X149318Y438250D02*
Y439250D01*
X150318D01*
Y438250D01*
X149318D01*
X154316Y443248D02*
X155316Y444248D01*
X157316D01*
X158315Y443248D01*
Y439250D01*
X157316Y438250D01*
X155316D01*
X154316Y439250D01*
Y443248D01*
X160315D02*
X161314Y444248D01*
X163314D01*
X164313Y443248D01*
Y439250D01*
X163314Y438250D01*
X161314D01*
X160315Y439250D01*
Y443248D01*
X166313Y438250D02*
Y442249D01*
X167312D01*
X168312Y441249D01*
Y438250D01*
Y441249D01*
X169312Y442249D01*
X170311Y441249D01*
Y438250D01*
X172311D02*
X174310D01*
X173310D01*
Y442249D01*
X172311D01*
X177309Y438250D02*
X179308D01*
X178309D01*
Y444248D01*
X177309D01*
X190305Y438250D02*
X188305Y440249D01*
Y442249D01*
X190305Y444248D01*
X193304Y443248D02*
X194304Y444248D01*
X196303D01*
X197303Y443248D01*
Y439250D01*
X196303Y438250D01*
X194304D01*
X193304Y439250D01*
Y443248D01*
X199302Y438250D02*
Y439250D01*
X200302D01*
Y438250D01*
X199302D01*
X204300Y444248D02*
X208299D01*
Y443248D01*
X204300Y439250D01*
Y438250D01*
X210298D02*
X212298D01*
X211298D01*
Y444248D01*
X210298Y443248D01*
X215297Y438250D02*
X217296D01*
X216297D01*
Y444248D01*
X215297Y443248D01*
X220295Y438250D02*
Y442249D01*
X221295D01*
X222294Y441249D01*
Y438250D01*
Y441249D01*
X223294Y442249D01*
X224294Y441249D01*
Y438250D01*
X226293D02*
Y442249D01*
X227293D01*
X228293Y441249D01*
Y438250D01*
Y441249D01*
X229292Y442249D01*
X230292Y441249D01*
Y438250D01*
X232291D02*
X234291Y440249D01*
Y442249D01*
X232291Y444248D01*
X137322Y428248D02*
X138322Y429248D01*
X140321D01*
X141321Y428248D01*
Y427249D01*
X140321Y426249D01*
X139321D01*
X140321D01*
X141321Y425249D01*
Y424250D01*
X140321Y423250D01*
X138322D01*
X137322Y424250D01*
X143320Y423250D02*
X145319D01*
X144320D01*
Y429248D01*
X143320Y428248D01*
X148319Y423250D02*
Y424250D01*
X149318D01*
Y423250D01*
X148319D01*
X157316Y429248D02*
X153317D01*
Y426249D01*
X155316Y427249D01*
X156316D01*
X157316Y426249D01*
Y424250D01*
X156316Y423250D01*
X154316D01*
X153317Y424250D01*
X159315Y428248D02*
X160315Y429248D01*
X162314D01*
X163314Y428248D01*
Y424250D01*
X162314Y423250D01*
X160315D01*
X159315Y424250D01*
Y428248D01*
X165313Y423250D02*
Y427249D01*
X166313D01*
X167312Y426249D01*
Y423250D01*
Y426249D01*
X168312Y427249D01*
X169312Y426249D01*
Y423250D01*
X171311D02*
X173310D01*
X172311D01*
Y427249D01*
X171311D01*
X176309Y423250D02*
X178309D01*
X177309D01*
Y429248D01*
X176309D01*
X189305Y423250D02*
X187306Y425249D01*
Y427249D01*
X189305Y429248D01*
X192304Y428248D02*
X193304Y429248D01*
X195303D01*
X196303Y428248D01*
Y424250D01*
X195303Y423250D01*
X193304D01*
X192304Y424250D01*
Y428248D01*
X198302Y423250D02*
Y424250D01*
X199302D01*
Y423250D01*
X198302D01*
X203301Y428248D02*
X204300Y429248D01*
X206300D01*
X207299Y428248D01*
Y427249D01*
X206300Y426249D01*
X207299Y425249D01*
Y424250D01*
X206300Y423250D01*
X204300D01*
X203301Y424250D01*
Y425249D01*
X204300Y426249D01*
X203301Y427249D01*
Y428248D01*
X204300Y426249D02*
X206300D01*
X209299Y428248D02*
X210298Y429248D01*
X212298D01*
X213297Y428248D01*
Y424250D01*
X212298Y423250D01*
X210298D01*
X209299Y424250D01*
Y428248D01*
X215297D02*
X216297Y429248D01*
X218296D01*
X219296Y428248D01*
Y424250D01*
X218296Y423250D01*
X216297D01*
X215297Y424250D01*
Y428248D01*
X221295Y423250D02*
Y427249D01*
X222294D01*
X223294Y426249D01*
Y423250D01*
Y426249D01*
X224294Y427249D01*
X225294Y426249D01*
Y423250D01*
X227293D02*
Y427249D01*
X228293D01*
X229292Y426249D01*
Y423250D01*
Y426249D01*
X230292Y427249D01*
X231292Y426249D01*
Y423250D01*
X233291D02*
X235290Y425249D01*
Y427249D01*
X233291Y429248D01*
X137322Y413248D02*
X138322Y414248D01*
X140321D01*
X141321Y413248D01*
Y412249D01*
X140321Y411249D01*
X139321D01*
X140321D01*
X141321Y410249D01*
Y409250D01*
X140321Y408250D01*
X138322D01*
X137322Y409250D01*
X147319Y414248D02*
X143320D01*
Y411249D01*
X145319Y412249D01*
X146319D01*
X147319Y411249D01*
Y409250D01*
X146319Y408250D01*
X144320D01*
X143320Y409250D01*
X149318Y408250D02*
Y409250D01*
X150318D01*
Y408250D01*
X149318D01*
X157316D02*
Y414248D01*
X154316Y411249D01*
X158315D01*
X160315Y413248D02*
X161314Y414248D01*
X163314D01*
X164313Y413248D01*
Y412249D01*
X163314Y411249D01*
X162314D01*
X163314D01*
X164313Y410249D01*
Y409250D01*
X163314Y408250D01*
X161314D01*
X160315Y409250D01*
X166313Y408250D02*
Y412249D01*
X167312D01*
X168312Y411249D01*
Y408250D01*
Y411249D01*
X169312Y412249D01*
X170311Y411249D01*
Y408250D01*
X172311D02*
X174310D01*
X173310D01*
Y412249D01*
X172311D01*
X177309Y408250D02*
X179308D01*
X178309D01*
Y414248D01*
X177309D01*
X190305Y408250D02*
X188305Y410249D01*
Y412249D01*
X190305Y414248D01*
X193304Y413248D02*
X194304Y414248D01*
X196303D01*
X197303Y413248D01*
Y409250D01*
X196303Y408250D01*
X194304D01*
X193304Y409250D01*
Y413248D01*
X199302Y408250D02*
Y409250D01*
X200302D01*
Y408250D01*
X199302D01*
X204300Y409250D02*
X205300Y408250D01*
X207299D01*
X208299Y409250D01*
Y413248D01*
X207299Y414248D01*
X205300D01*
X204300Y413248D01*
Y412249D01*
X205300Y411249D01*
X208299D01*
X210298Y413248D02*
X211298Y414248D01*
X213297D01*
X214297Y413248D01*
Y409250D01*
X213297Y408250D01*
X211298D01*
X210298Y409250D01*
Y413248D01*
X216297D02*
X217296Y414248D01*
X219296D01*
X220295Y413248D01*
Y409250D01*
X219296Y408250D01*
X217296D01*
X216297Y409250D01*
Y413248D01*
X222294Y408250D02*
Y412249D01*
X223294D01*
X224294Y411249D01*
Y408250D01*
Y411249D01*
X225294Y412249D01*
X226293Y411249D01*
Y408250D01*
X228293D02*
Y412249D01*
X229292D01*
X230292Y411249D01*
Y408250D01*
Y411249D01*
X231292Y412249D01*
X232291Y411249D01*
Y408250D01*
X234291D02*
X236290Y410249D01*
Y412249D01*
X234291Y414248D01*
X140321Y393250D02*
Y399248D01*
X137322Y396249D01*
X141321D01*
X143320Y398248D02*
X144320Y399248D01*
X146319D01*
X147319Y398248D01*
Y397249D01*
X146319Y396249D01*
X145319D01*
X146319D01*
X147319Y395249D01*
Y394250D01*
X146319Y393250D01*
X144320D01*
X143320Y394250D01*
X149318Y393250D02*
Y394250D01*
X150318D01*
Y393250D01*
X149318D01*
X154316Y398248D02*
X155316Y399248D01*
X157316D01*
X158315Y398248D01*
Y397249D01*
X157316Y396249D01*
X156316D01*
X157316D01*
X158315Y395249D01*
Y394250D01*
X157316Y393250D01*
X155316D01*
X154316Y394250D01*
X160315Y393250D02*
X162314D01*
X161314D01*
Y399248D01*
X160315Y398248D01*
X165313Y393250D02*
Y397249D01*
X166313D01*
X167312Y396249D01*
Y393250D01*
Y396249D01*
X168312Y397249D01*
X169312Y396249D01*
Y393250D01*
X171311D02*
X173310D01*
X172311D01*
Y397249D01*
X171311D01*
X176309Y393250D02*
X178309D01*
X177309D01*
Y399248D01*
X176309D01*
X189305Y393250D02*
X187306Y395249D01*
Y397249D01*
X189305Y399248D01*
X192304Y393250D02*
X194304D01*
X193304D01*
Y399248D01*
X192304Y398248D01*
X197303Y393250D02*
Y394250D01*
X198302D01*
Y393250D01*
X197303D01*
X202301D02*
X204300D01*
X203301D01*
Y399248D01*
X202301Y398248D01*
X207299D02*
X208299Y399248D01*
X210298D01*
X211298Y398248D01*
Y394250D01*
X210298Y393250D01*
X208299D01*
X207299Y394250D01*
Y398248D01*
X213297D02*
X214297Y399248D01*
X216297D01*
X217296Y398248D01*
Y394250D01*
X216297Y393250D01*
X214297D01*
X213297Y394250D01*
Y398248D01*
X219296Y393250D02*
Y397249D01*
X220295D01*
X221295Y396249D01*
Y393250D01*
Y396249D01*
X222294Y397249D01*
X223294Y396249D01*
Y393250D01*
X225294D02*
Y397249D01*
X226293D01*
X227293Y396249D01*
Y393250D01*
Y396249D01*
X228293Y397249D01*
X229292Y396249D01*
Y393250D01*
X231292D02*
X233291Y395249D01*
Y397249D01*
X231292Y399248D01*
X137322Y383248D02*
X138322Y384248D01*
X140321D01*
X141321Y383248D01*
Y382249D01*
X140321Y381249D01*
X141321Y380249D01*
Y379250D01*
X140321Y378250D01*
X138322D01*
X137322Y379250D01*
Y380249D01*
X138322Y381249D01*
X137322Y382249D01*
Y383248D01*
X138322Y381249D02*
X140321D01*
X143320Y383248D02*
X144320Y384248D01*
X146319D01*
X147319Y383248D01*
Y379250D01*
X146319Y378250D01*
X144320D01*
X143320Y379250D01*
Y383248D01*
X149318Y378250D02*
Y379250D01*
X150318D01*
Y378250D01*
X149318D01*
X154316Y383248D02*
X155316Y384248D01*
X157316D01*
X158315Y383248D01*
Y379250D01*
X157316Y378250D01*
X155316D01*
X154316Y379250D01*
Y383248D01*
X160315D02*
X161314Y384248D01*
X163314D01*
X164313Y383248D01*
Y379250D01*
X163314Y378250D01*
X161314D01*
X160315Y379250D01*
Y383248D01*
X166313Y378250D02*
Y382249D01*
X167312D01*
X168312Y381249D01*
Y378250D01*
Y381249D01*
X169312Y382249D01*
X170311Y381249D01*
Y378250D01*
X172311D02*
X174310D01*
X173310D01*
Y382249D01*
X172311D01*
X177309Y378250D02*
X179308D01*
X178309D01*
Y384248D01*
X177309D01*
X190305Y378250D02*
X188305Y380249D01*
Y382249D01*
X190305Y384248D01*
X197303Y378250D02*
X193304D01*
X197303Y382249D01*
Y383248D01*
X196303Y384248D01*
X194304D01*
X193304Y383248D01*
X199302Y378250D02*
Y379250D01*
X200302D01*
Y378250D01*
X199302D01*
X204300Y383248D02*
X205300Y384248D01*
X207299D01*
X208299Y383248D01*
Y379250D01*
X207299Y378250D01*
X205300D01*
X204300Y379250D01*
Y383248D01*
X210298D02*
X211298Y384248D01*
X213297D01*
X214297Y383248D01*
Y382249D01*
X213297Y381249D01*
X212298D01*
X213297D01*
X214297Y380249D01*
Y379250D01*
X213297Y378250D01*
X211298D01*
X210298Y379250D01*
X220295Y378250D02*
X216297D01*
X220295Y382249D01*
Y383248D01*
X219296Y384248D01*
X217296D01*
X216297Y383248D01*
X222294Y378250D02*
Y382249D01*
X223294D01*
X224294Y381249D01*
Y378250D01*
Y381249D01*
X225294Y382249D01*
X226293Y381249D01*
Y378250D01*
X228293D02*
Y382249D01*
X229292D01*
X230292Y381249D01*
Y378250D01*
Y381249D01*
X231292Y382249D01*
X232291Y381249D01*
Y378250D01*
X234291D02*
X236290Y380249D01*
Y382249D01*
X234291Y384248D01*
X137322Y368248D02*
X138322Y369248D01*
X140321D01*
X141321Y368248D01*
Y367249D01*
X140321Y366249D01*
X141321Y365249D01*
Y364250D01*
X140321Y363250D01*
X138322D01*
X137322Y364250D01*
Y365249D01*
X138322Y366249D01*
X137322Y367249D01*
Y368248D01*
X138322Y366249D02*
X140321D01*
X147319Y363250D02*
X143320D01*
X147319Y367249D01*
Y368248D01*
X146319Y369248D01*
X144320D01*
X143320Y368248D01*
X149318Y363250D02*
Y364250D01*
X150318D01*
Y363250D01*
X149318D01*
X158315Y369248D02*
X156316Y368248D01*
X154316Y366249D01*
Y364250D01*
X155316Y363250D01*
X157316D01*
X158315Y364250D01*
Y365249D01*
X157316Y366249D01*
X154316D01*
X160315Y368248D02*
X161314Y369248D01*
X163314D01*
X164313Y368248D01*
Y367249D01*
X163314Y366249D01*
X164313Y365249D01*
Y364250D01*
X163314Y363250D01*
X161314D01*
X160315Y364250D01*
Y365249D01*
X161314Y366249D01*
X160315Y367249D01*
Y368248D01*
X161314Y366249D02*
X163314D01*
X166313Y363250D02*
Y367249D01*
X167312D01*
X168312Y366249D01*
Y363250D01*
Y366249D01*
X169312Y367249D01*
X170311Y366249D01*
Y363250D01*
X172311D02*
X174310D01*
X173310D01*
Y367249D01*
X172311D01*
X177309Y363250D02*
X179308D01*
X178309D01*
Y369248D01*
X177309D01*
X190305Y363250D02*
X188305Y365249D01*
Y367249D01*
X190305Y369248D01*
X197303Y363250D02*
X193304D01*
X197303Y367249D01*
Y368248D01*
X196303Y369248D01*
X194304D01*
X193304Y368248D01*
X199302Y363250D02*
Y364250D01*
X200302D01*
Y363250D01*
X199302D01*
X204300D02*
X206300D01*
X205300D01*
Y369248D01*
X204300Y368248D01*
X209299D02*
X210298Y369248D01*
X212298D01*
X213297Y368248D01*
Y364250D01*
X212298Y363250D01*
X210298D01*
X209299Y364250D01*
Y368248D01*
X215297D02*
X216297Y369248D01*
X218296D01*
X219296Y368248D01*
Y364250D01*
X218296Y363250D01*
X216297D01*
X215297Y364250D01*
Y368248D01*
X221295Y363250D02*
Y367249D01*
X222294D01*
X223294Y366249D01*
Y363250D01*
Y366249D01*
X224294Y367249D01*
X225294Y366249D01*
Y363250D01*
X227293D02*
Y367249D01*
X228293D01*
X229292Y366249D01*
Y363250D01*
Y366249D01*
X230292Y367249D01*
X231292Y366249D01*
Y363250D01*
X233291D02*
X235290Y365249D01*
Y367249D01*
X233291Y369248D01*
X78338Y348250D02*
X80337D01*
X79337D01*
Y354248D01*
X78338Y353248D01*
X87335Y348250D02*
X83336D01*
X87335Y352249D01*
Y353248D01*
X86335Y354248D01*
X84336D01*
X83336Y353248D01*
X93333Y354248D02*
X89334D01*
Y351249D01*
X91333Y352249D01*
X92333D01*
X93333Y351249D01*
Y349250D01*
X92333Y348250D01*
X90334D01*
X89334Y349250D01*
X101330Y354248D02*
X105329D01*
X103330D01*
Y348250D01*
X108328D02*
X110327D01*
X111327Y349250D01*
Y351249D01*
X110327Y352249D01*
X108328D01*
X107328Y351249D01*
Y349250D01*
X108328Y348250D01*
X114326Y353248D02*
Y352249D01*
X113326D01*
X115326D01*
X114326D01*
Y349250D01*
X115326Y348250D01*
X119324Y352249D02*
X121324D01*
X122323Y351249D01*
Y348250D01*
X119324D01*
X118325Y349250D01*
X119324Y350249D01*
X122323D01*
X124323Y348250D02*
X126322D01*
X125322D01*
Y354248D01*
X124323D01*
X78338Y473248D02*
X79337Y474248D01*
X81337D01*
X82336Y473248D01*
Y472249D01*
X81337Y471249D01*
X80337D01*
X81337D01*
X82336Y470249D01*
Y469250D01*
X81337Y468250D01*
X79337D01*
X78338Y469250D01*
X82336Y453250D02*
X78338D01*
X82336Y457249D01*
Y458248D01*
X81337Y459248D01*
X79337D01*
X78338Y458248D01*
Y444248D02*
X82336D01*
Y443248D01*
X78338Y439250D01*
Y438250D01*
X84336D02*
X86335D01*
X85335D01*
Y444248D01*
X84336Y443248D01*
X82336Y423250D02*
X78338D01*
X82336Y427249D01*
Y428248D01*
X81337Y429248D01*
X79337D01*
X78338Y428248D01*
Y413248D02*
X79337Y414248D01*
X81337D01*
X82336Y413248D01*
Y412249D01*
X81337Y411249D01*
X80337D01*
X81337D01*
X82336Y410249D01*
Y409250D01*
X81337Y408250D01*
X79337D01*
X78338Y409250D01*
X84336Y414248D02*
X88334D01*
Y413248D01*
X84336Y409250D01*
Y408250D01*
X81337Y393250D02*
Y399248D01*
X78338Y396249D01*
X82336D01*
Y378250D02*
X78338D01*
X82336Y382249D01*
Y383248D01*
X81337Y384248D01*
X79337D01*
X78338Y383248D01*
X81337Y363250D02*
Y369248D01*
X78338Y366249D01*
X82336D01*
D37*
X110201Y246233D02*
X116105D01*
X110201Y281667D02*
X116105D01*
X110201Y246233D02*
Y281667D01*
D96*
X249902Y190000D02*
G03*
X249902Y190000I-1000J0D01*
G01*
X237698D02*
G03*
X237698Y190000I-1000J0D01*
G01*
X254300Y97500D02*
X254800Y97000D01*
X253800Y97500D02*
X254300D01*
X253800D02*
X254300Y98000D01*
X253800Y98500D02*
X254300Y98000D01*
X253800Y98500D02*
X254300D01*
X254800Y99000D01*
X255300Y98500D01*
X255800D01*
X255300Y98000D02*
X255800Y98500D01*
X255300Y98000D02*
X255800Y97500D01*
X255300D02*
X255800D01*
X254800Y97000D02*
X255300Y97500D01*
X183300Y189800D02*
X183800Y189300D01*
X182800Y189800D02*
X183300D01*
X182800D02*
X183300Y190300D01*
X182800Y190800D02*
X183300Y190300D01*
X182800Y190800D02*
X183300D01*
X183800Y191300D01*
X184300Y190800D01*
X184800D01*
X184300Y190300D02*
X184800Y190800D01*
X184300Y190300D02*
X184800Y189800D01*
X184300D02*
X184800D01*
X183800Y189300D02*
X184300Y189800D01*
X195900Y247700D02*
X196400Y247200D01*
X195400Y247700D02*
X195900D01*
X195400D02*
X195900Y248200D01*
X195400Y248700D02*
X195900Y248200D01*
X195400Y248700D02*
X195900D01*
X196400Y249200D01*
X196900Y248700D01*
X197400D01*
X196900Y248200D02*
X197400Y248700D01*
X196900Y248200D02*
X197400Y247700D01*
X196900D02*
X197400D01*
X196400Y247200D02*
X196900Y247700D01*
X188300Y241200D02*
X188800Y240700D01*
X187800Y241200D02*
X188300D01*
X187800D02*
X188300Y241700D01*
X187800Y242200D02*
X188300Y241700D01*
X187800Y242200D02*
X188300D01*
X188800Y242700D01*
X189300Y242200D01*
X189800D01*
X189300Y241700D02*
X189800Y242200D01*
X189300Y241700D02*
X189800Y241200D01*
X189300D02*
X189800D01*
X188800Y240700D02*
X189300Y241200D01*
X266900Y136000D02*
X267400Y135500D01*
X266400Y136000D02*
X266900D01*
X266400D02*
X266900Y136500D01*
X266400Y137000D02*
X266900Y136500D01*
X266400Y137000D02*
X266900D01*
X267400Y137500D01*
X267900Y137000D01*
X268400D01*
X267900Y136500D02*
X268400Y137000D01*
X267900Y136500D02*
X268400Y136000D01*
X267900D02*
X268400D01*
X267400Y135500D02*
X267900Y136000D01*
X237300Y266800D02*
X237800Y266300D01*
X236800Y266800D02*
X237300D01*
X236800D02*
X237300Y267300D01*
X236800Y267800D02*
X237300Y267300D01*
X236800Y267800D02*
X237300D01*
X237800Y268300D01*
X238300Y267800D01*
X238800D01*
X238300Y267300D02*
X238800Y267800D01*
X238300Y267300D02*
X238800Y266800D01*
X238300D02*
X238800D01*
X237800Y266300D02*
X238300Y266800D01*
X218700Y263300D02*
X219200Y262800D01*
X218200Y263300D02*
X218700D01*
X218200D02*
X218700Y263800D01*
X218200Y264300D02*
X218700Y263800D01*
X218200Y264300D02*
X218700D01*
X219200Y264800D01*
X219700Y264300D01*
X220200D01*
X219700Y263800D02*
X220200Y264300D01*
X219700Y263800D02*
X220200Y263300D01*
X219700D02*
X220200D01*
X219200Y262800D02*
X219700Y263300D01*
X221744Y167500D02*
X222244Y167000D01*
X221244Y167500D02*
X221744D01*
X221244D02*
X221744Y168000D01*
X221244Y168500D02*
X221744Y168000D01*
X221244Y168500D02*
X221744D01*
X222244Y169000D01*
X222744Y168500D01*
X223244D01*
X222744Y168000D02*
X223244Y168500D01*
X222744Y168000D02*
X223244Y167500D01*
X222744D02*
X223244D01*
X222244Y167000D02*
X222744Y167500D01*
X241300Y261900D02*
X241800Y261400D01*
X240800Y261900D02*
X241300D01*
X240800D02*
X241300Y262400D01*
X240800Y262900D02*
X241300Y262400D01*
X240800Y262900D02*
X241300D01*
X241800Y263400D01*
X242300Y262900D01*
X242800D01*
X242300Y262400D02*
X242800Y262900D01*
X242300Y262400D02*
X242800Y261900D01*
X242300D02*
X242800D01*
X241800Y261400D02*
X242300Y261900D01*
X258200Y31700D02*
X258700Y31200D01*
X257700Y31700D02*
X258200D01*
X257700D02*
X258200Y32200D01*
X257700Y32700D02*
X258200Y32200D01*
X257700Y32700D02*
X258200D01*
X258700Y33200D01*
X259200Y32700D01*
X259700D01*
X259200Y32200D02*
X259700Y32700D01*
X259200Y32200D02*
X259700Y31700D01*
X259200D02*
X259700D01*
X258700Y31200D02*
X259200Y31700D01*
X258100Y39000D02*
X258600Y38500D01*
X257600Y39000D02*
X258100D01*
X257600D02*
X258100Y39500D01*
X257600Y40000D02*
X258100Y39500D01*
X257600Y40000D02*
X258100D01*
X258600Y40500D01*
X259100Y40000D01*
X259600D01*
X259100Y39500D02*
X259600Y40000D01*
X259100Y39500D02*
X259600Y39000D01*
X259100D02*
X259600D01*
X258600Y38500D02*
X259100Y39000D01*
X258100Y46000D02*
X258600Y45500D01*
X257600Y46000D02*
X258100D01*
X257600D02*
X258100Y46500D01*
X257600Y47000D02*
X258100Y46500D01*
X257600Y47000D02*
X258100D01*
X258600Y47500D01*
X259100Y47000D01*
X259600D01*
X259100Y46500D02*
X259600Y47000D01*
X259100Y46500D02*
X259600Y46000D01*
X259100D02*
X259600D01*
X258600Y45500D02*
X259100Y46000D01*
X258100Y25400D02*
X258600Y24900D01*
X257600Y25400D02*
X258100D01*
X257600D02*
X258100Y25900D01*
X257600Y26400D02*
X258100Y25900D01*
X257600Y26400D02*
X258100D01*
X258600Y26900D01*
X259100Y26400D01*
X259600D01*
X259100Y25900D02*
X259600Y26400D01*
X259100Y25900D02*
X259600Y25400D01*
X259100D02*
X259600D01*
X258600Y24900D02*
X259100Y25400D01*
X220798Y77998D02*
X221298Y77498D01*
X220298Y77998D02*
X220798D01*
X220298D02*
X220798Y78498D01*
X220298Y78998D02*
X220798Y78498D01*
X220298Y78998D02*
X220798D01*
X221298Y79498D01*
X221798Y78998D01*
X222298D01*
X221798Y78498D02*
X222298Y78998D01*
X221798Y78498D02*
X222298Y77998D01*
X221798D02*
X222298D01*
X221298Y77498D02*
X221798Y77998D01*
X226900Y115900D02*
X227400Y115400D01*
X226400Y115900D02*
X226900D01*
X226400D02*
X226900Y116400D01*
X226400Y116900D02*
X226900Y116400D01*
X226400Y116900D02*
X226900D01*
X227400Y117400D01*
X227900Y116900D01*
X228400D01*
X227900Y116400D02*
X228400Y116900D01*
X227900Y116400D02*
X228400Y115900D01*
X227900D02*
X228400D01*
X227400Y115400D02*
X227900Y115900D01*
X251756Y261744D02*
X252256Y261244D01*
X251256Y261744D02*
X251756D01*
X251256D02*
X251756Y262244D01*
X251256Y262744D02*
X251756Y262244D01*
X251256Y262744D02*
X251756D01*
X252256Y263244D01*
X252756Y262744D01*
X253256D01*
X252756Y262244D02*
X253256Y262744D01*
X252756Y262244D02*
X253256Y261744D01*
X252756D02*
X253256D01*
X252256Y261244D02*
X252756Y261744D01*
X237100Y229000D02*
X237600Y228500D01*
X236600Y229000D02*
X237100D01*
X236600D02*
X237100Y229500D01*
X236600Y230000D02*
X237100Y229500D01*
X236600Y230000D02*
X237100D01*
X237600Y230500D01*
X238100Y230000D01*
X238600D01*
X238100Y229500D02*
X238600Y230000D01*
X238100Y229500D02*
X238600Y229000D01*
X238100D02*
X238600D01*
X237600Y228500D02*
X238100Y229000D01*
X281000Y227200D02*
X281500Y226700D01*
X280500Y227200D02*
X281000D01*
X280500D02*
X281000Y227700D01*
X280500Y228200D02*
X281000Y227700D01*
X280500Y228200D02*
X281000D01*
X281500Y228700D01*
X282000Y228200D01*
X282500D01*
X282000Y227700D02*
X282500Y228200D01*
X282000Y227700D02*
X282500Y227200D01*
X282000D02*
X282500D01*
X281500Y226700D02*
X282000Y227200D01*
X273700Y142800D02*
X274200Y142300D01*
X273200Y142800D02*
X273700D01*
X273200D02*
X273700Y143300D01*
X273200Y143800D02*
X273700Y143300D01*
X273200Y143800D02*
X273700D01*
X274200Y144300D01*
X274700Y143800D01*
X275200D01*
X274700Y143300D02*
X275200Y143800D01*
X274700Y143300D02*
X275200Y142800D01*
X274700D02*
X275200D01*
X274200Y142300D02*
X274700Y142800D01*
X280000Y146000D02*
X280500Y145500D01*
X279500Y146000D02*
X280000D01*
X279500D02*
X280000Y146500D01*
X279500Y147000D02*
X280000Y146500D01*
X279500Y147000D02*
X280000D01*
X280500Y147500D01*
X281000Y147000D01*
X281500D01*
X281000Y146500D02*
X281500Y147000D01*
X281000Y146500D02*
X281500Y146000D01*
X281000D02*
X281500D01*
X280500Y145500D02*
X281000Y146000D01*
X150400Y98300D02*
X150900Y97800D01*
X149900Y98300D02*
X150400D01*
X149900D02*
X150400Y98800D01*
X149900Y99300D02*
X150400Y98800D01*
X149900Y99300D02*
X150400D01*
X150900Y99800D01*
X151400Y99300D01*
X151900D01*
X151400Y98800D02*
X151900Y99300D01*
X151400Y98800D02*
X151900Y98300D01*
X151400D02*
X151900D01*
X150900Y97800D02*
X151400Y98300D01*
X161800Y104500D02*
X162300Y104000D01*
X161300Y104500D02*
X161800D01*
X161300D02*
X161800Y105000D01*
X161300Y105500D02*
X161800Y105000D01*
X161300Y105500D02*
X161800D01*
X162300Y106000D01*
X162800Y105500D01*
X163300D01*
X162800Y105000D02*
X163300Y105500D01*
X162800Y105000D02*
X163300Y104500D01*
X162800D02*
X163300D01*
X162300Y104000D02*
X162800Y104500D01*
X369200Y101100D02*
X369700Y100600D01*
X368700Y101100D02*
X369200D01*
X368700D02*
X369200Y101600D01*
X368700Y102100D02*
X369200Y101600D01*
X368700Y102100D02*
X369200D01*
X369700Y102600D01*
X370200Y102100D01*
X370700D01*
X370200Y101600D02*
X370700Y102100D01*
X370200Y101600D02*
X370700Y101100D01*
X370200D02*
X370700D01*
X369700Y100600D02*
X370200Y101100D01*
X181100Y103300D02*
X181600Y102800D01*
X180600Y103300D02*
X181100D01*
X180600D02*
X181100Y103800D01*
X180600Y104300D02*
X181100Y103800D01*
X180600Y104300D02*
X181100D01*
X181600Y104800D01*
X182100Y104300D01*
X182600D01*
X182100Y103800D02*
X182600Y104300D01*
X182100Y103800D02*
X182600Y103300D01*
X182100D02*
X182600D01*
X181600Y102800D02*
X182100Y103300D01*
X313200Y98300D02*
X313700Y97800D01*
X312700Y98300D02*
X313200D01*
X312700D02*
X313200Y98800D01*
X312700Y99300D02*
X313200Y98800D01*
X312700Y99300D02*
X313200D01*
X313700Y99800D01*
X314200Y99300D01*
X314700D01*
X314200Y98800D02*
X314700Y99300D01*
X314200Y98800D02*
X314700Y98300D01*
X314200D02*
X314700D01*
X313700Y97800D02*
X314200Y98300D01*
X294400Y156400D02*
X294900Y155900D01*
X293900Y156400D02*
X294400D01*
X293900D02*
X294400Y156900D01*
X293900Y157400D02*
X294400Y156900D01*
X293900Y157400D02*
X294400D01*
X294900Y157900D01*
X295400Y157400D01*
X295900D01*
X295400Y156900D02*
X295900Y157400D01*
X295400Y156900D02*
X295900Y156400D01*
X295400D02*
X295900D01*
X294900Y155900D02*
X295400Y156400D01*
X181900Y261900D02*
X182400Y261400D01*
X181400Y261900D02*
X181900D01*
X181400D02*
X181900Y262400D01*
X181400Y262900D02*
X181900Y262400D01*
X181400Y262900D02*
X181900D01*
X182400Y263400D01*
X182900Y262900D01*
X183400D01*
X182900Y262400D02*
X183400Y262900D01*
X182900Y262400D02*
X183400Y261900D01*
X182900D02*
X183400D01*
X182400Y261400D02*
X182900Y261900D01*
X308200Y107500D02*
X308700Y107000D01*
X307700Y107500D02*
X308200D01*
X307700D02*
X308200Y108000D01*
X307700Y108500D02*
X308200Y108000D01*
X307700Y108500D02*
X308200D01*
X308700Y109000D01*
X309200Y108500D01*
X309700D01*
X309200Y108000D02*
X309700Y108500D01*
X309200Y108000D02*
X309700Y107500D01*
X309200D02*
X309700D01*
X308700Y107000D02*
X309200Y107500D01*
X319500Y75600D02*
X320000Y75100D01*
X319000Y75600D02*
X319500D01*
X319000D02*
X319500Y76100D01*
X319000Y76600D02*
X319500Y76100D01*
X319000Y76600D02*
X319500D01*
X320000Y77100D01*
X320500Y76600D01*
X321000D01*
X320500Y76100D02*
X321000Y76600D01*
X320500Y76100D02*
X321000Y75600D01*
X320500D02*
X321000D01*
X320000Y75100D02*
X320500Y75600D01*
X332200Y95000D02*
X332700Y94500D01*
X331700Y95000D02*
X332200D01*
X331700D02*
X332200Y95500D01*
X331700Y96000D02*
X332200Y95500D01*
X331700Y96000D02*
X332200D01*
X332700Y96500D01*
X333200Y96000D01*
X333700D01*
X333200Y95500D02*
X333700Y96000D01*
X333200Y95500D02*
X333700Y95000D01*
X333200D02*
X333700D01*
X332700Y94500D02*
X333200Y95000D01*
X327100Y73000D02*
X327600Y72500D01*
X326600Y73000D02*
X327100D01*
X326600D02*
X327100Y73500D01*
X326600Y74000D02*
X327100Y73500D01*
X326600Y74000D02*
X327100D01*
X327600Y74500D01*
X328100Y74000D01*
X328600D01*
X328100Y73500D02*
X328600Y74000D01*
X328100Y73500D02*
X328600Y73000D01*
X328100D02*
X328600D01*
X327600Y72500D02*
X328100Y73000D01*
X305200Y75900D02*
X305700Y75400D01*
X304700Y75900D02*
X305200D01*
X304700D02*
X305200Y76400D01*
X304700Y76900D02*
X305200Y76400D01*
X304700Y76900D02*
X305200D01*
X305700Y77400D01*
X306200Y76900D01*
X306700D01*
X306200Y76400D02*
X306700Y76900D01*
X306200Y76400D02*
X306700Y75900D01*
X306200D02*
X306700D01*
X305700Y75400D02*
X306200Y75900D01*
X256700Y72600D02*
X257200Y72100D01*
X256200Y72600D02*
X256700D01*
X256200D02*
X256700Y73100D01*
X256200Y73600D02*
X256700Y73100D01*
X256200Y73600D02*
X256700D01*
X257200Y74100D01*
X257700Y73600D01*
X258200D01*
X257700Y73100D02*
X258200Y73600D01*
X257700Y73100D02*
X258200Y72600D01*
X257700D02*
X258200D01*
X257200Y72100D02*
X257700Y72600D01*
X259600Y94000D02*
X260100Y93500D01*
X259100Y94000D02*
X259600D01*
X259100D02*
X259600Y94500D01*
X259100Y95000D02*
X259600Y94500D01*
X259100Y95000D02*
X259600D01*
X260100Y95500D01*
X260600Y95000D01*
X261100D01*
X260600Y94500D02*
X261100Y95000D01*
X260600Y94500D02*
X261100Y94000D01*
X260600D02*
X261100D01*
X260100Y93500D02*
X260600Y94000D01*
X261800Y106600D02*
X262300Y106100D01*
X261300Y106600D02*
X261800D01*
X261300D02*
X261800Y107100D01*
X261300Y107600D02*
X261800Y107100D01*
X261300Y107600D02*
X261800D01*
X262300Y108100D01*
X262800Y107600D01*
X263300D01*
X262800Y107100D02*
X263300Y107600D01*
X262800Y107100D02*
X263300Y106600D01*
X262800D02*
X263300D01*
X262300Y106100D02*
X262800Y106600D01*
X249100Y92000D02*
X249600Y91500D01*
X248600Y92000D02*
X249100D01*
X248600D02*
X249100Y92500D01*
X248600Y93000D02*
X249100Y92500D01*
X248600Y93000D02*
X249100D01*
X249600Y93500D01*
X250100Y93000D01*
X250600D01*
X250100Y92500D02*
X250600Y93000D01*
X250100Y92500D02*
X250600Y92000D01*
X250100D02*
X250600D01*
X249600Y91500D02*
X250100Y92000D01*
X249900Y72000D02*
X250400Y71500D01*
X249400Y72000D02*
X249900D01*
X249400D02*
X249900Y72500D01*
X249400Y73000D02*
X249900Y72500D01*
X249400Y73000D02*
X249900D01*
X250400Y73500D01*
X250900Y73000D01*
X251400D01*
X250900Y72500D02*
X251400Y73000D01*
X250900Y72500D02*
X251400Y72000D01*
X250900D02*
X251400D01*
X250400Y71500D02*
X250900Y72000D01*
X269900Y73300D02*
X270400Y72800D01*
X269400Y73300D02*
X269900D01*
X269400D02*
X269900Y73800D01*
X269400Y74300D02*
X269900Y73800D01*
X269400Y74300D02*
X269900D01*
X270400Y74800D01*
X270900Y74300D01*
X271400D01*
X270900Y73800D02*
X271400Y74300D01*
X270900Y73800D02*
X271400Y73300D01*
X270900D02*
X271400D01*
X270400Y72800D02*
X270900Y73300D01*
X263500Y73100D02*
X264000Y72600D01*
X263000Y73100D02*
X263500D01*
X263000D02*
X263500Y73600D01*
X263000Y74100D02*
X263500Y73600D01*
X263000Y74100D02*
X263500D01*
X264000Y74600D01*
X264500Y74100D01*
X265000D01*
X264500Y73600D02*
X265000Y74100D01*
X264500Y73600D02*
X265000Y73100D01*
X264500D02*
X265000D01*
X264000Y72600D02*
X264500Y73100D01*
X247600Y65600D02*
X248100Y65100D01*
X247100Y65600D02*
X247600D01*
X247100D02*
X247600Y66100D01*
X247100Y66600D02*
X247600Y66100D01*
X247100Y66600D02*
X247600D01*
X248100Y67100D01*
X248600Y66600D01*
X249100D01*
X248600Y66100D02*
X249100Y66600D01*
X248600Y66100D02*
X249100Y65600D01*
X248600D02*
X249100D01*
X248100Y65100D02*
X248600Y65600D01*
X284900Y83800D02*
X285400Y83300D01*
X284400Y83800D02*
X284900D01*
X284400D02*
X284900Y84300D01*
X284400Y84800D02*
X284900Y84300D01*
X284400Y84800D02*
X284900D01*
X285400Y85300D01*
X285900Y84800D01*
X286400D01*
X285900Y84300D02*
X286400Y84800D01*
X285900Y84300D02*
X286400Y83800D01*
X285900D02*
X286400D01*
X285400Y83300D02*
X285900Y83800D01*
X334900Y72300D02*
X335400Y71800D01*
X334400Y72300D02*
X334900D01*
X334400D02*
X334900Y72800D01*
X334400Y73300D02*
X334900Y72800D01*
X334400Y73300D02*
X334900D01*
X335400Y73800D01*
X335900Y73300D01*
X336400D01*
X335900Y72800D02*
X336400Y73300D01*
X335900Y72800D02*
X336400Y72300D01*
X335900D02*
X336400D01*
X335400Y71800D02*
X335900Y72300D01*
X267300Y122600D02*
X267800Y122100D01*
X266800Y122600D02*
X267300D01*
X266800D02*
X267300Y123100D01*
X266800Y123600D02*
X267300Y123100D01*
X266800Y123600D02*
X267300D01*
X267800Y124100D01*
X268300Y123600D01*
X268800D01*
X268300Y123100D02*
X268800Y123600D01*
X268300Y123100D02*
X268800Y122600D01*
X268300D02*
X268800D01*
X267800Y122100D02*
X268300Y122600D01*
X156700Y57700D02*
X157200Y57200D01*
X156200Y57700D02*
X156700D01*
X156200D02*
X156700Y58200D01*
X156200Y58700D02*
X156700Y58200D01*
X156200Y58700D02*
X156700D01*
X157200Y59200D01*
X157700Y58700D01*
X158200D01*
X157700Y58200D02*
X158200Y58700D01*
X157700Y58200D02*
X158200Y57700D01*
X157700D02*
X158200D01*
X157200Y57200D02*
X157700Y57700D01*
X152700Y66700D02*
X153200Y66200D01*
X152200Y66700D02*
X152700D01*
X152200D02*
X152700Y67200D01*
X152200Y67700D02*
X152700Y67200D01*
X152200Y67700D02*
X152700D01*
X153200Y68200D01*
X153700Y67700D01*
X154200D01*
X153700Y67200D02*
X154200Y67700D01*
X153700Y67200D02*
X154200Y66700D01*
X153700D02*
X154200D01*
X153200Y66200D02*
X153700Y66700D01*
X163900Y54500D02*
X164400Y54000D01*
X163400Y54500D02*
X163900D01*
X163400D02*
X163900Y55000D01*
X163400Y55500D02*
X163900Y55000D01*
X163400Y55500D02*
X163900D01*
X164400Y56000D01*
X164900Y55500D01*
X165400D01*
X164900Y55000D02*
X165400Y55500D01*
X164900Y55000D02*
X165400Y54500D01*
X164900D02*
X165400D01*
X164400Y54000D02*
X164900Y54500D01*
X291300Y255300D02*
X291800Y254800D01*
X290800Y255300D02*
X291300D01*
X290800D02*
X291300Y255800D01*
X290800Y256300D02*
X291300Y255800D01*
X290800Y256300D02*
X291300D01*
X291800Y256800D01*
X292300Y256300D01*
X292800D01*
X292300Y255800D02*
X292800Y256300D01*
X292300Y255800D02*
X292800Y255300D01*
X292300D02*
X292800D01*
X291800Y254800D02*
X292300Y255300D01*
X276300Y26000D02*
X276800Y25500D01*
X275800Y26000D02*
X276300D01*
X275800D02*
X276300Y26500D01*
X275800Y27000D02*
X276300Y26500D01*
X275800Y27000D02*
X276300D01*
X276800Y27500D01*
X277300Y27000D01*
X277800D01*
X277300Y26500D02*
X277800Y27000D01*
X277300Y26500D02*
X277800Y26000D01*
X277300D02*
X277800D01*
X276800Y25500D02*
X277300Y26000D01*
X276300Y32600D02*
X276800Y32100D01*
X275800Y32600D02*
X276300D01*
X275800D02*
X276300Y33100D01*
X275800Y33600D02*
X276300Y33100D01*
X275800Y33600D02*
X276300D01*
X276800Y34100D01*
X277300Y33600D01*
X277800D01*
X277300Y33100D02*
X277800Y33600D01*
X277300Y33100D02*
X277800Y32600D01*
X277300D02*
X277800D01*
X276800Y32100D02*
X277300Y32600D01*
X276500Y40000D02*
X277000Y39500D01*
X276000Y40000D02*
X276500D01*
X276000D02*
X276500Y40500D01*
X276000Y41000D02*
X276500Y40500D01*
X276000Y41000D02*
X276500D01*
X277000Y41500D01*
X277500Y41000D01*
X278000D01*
X277500Y40500D02*
X278000Y41000D01*
X277500Y40500D02*
X278000Y40000D01*
X277500D02*
X278000D01*
X277000Y39500D02*
X277500Y40000D01*
X276500Y47200D02*
X277000Y46700D01*
X276000Y47200D02*
X276500D01*
X276000D02*
X276500Y47700D01*
X276000Y48200D02*
X276500Y47700D01*
X276000Y48200D02*
X276500D01*
X277000Y48700D01*
X277500Y48200D01*
X278000D01*
X277500Y47700D02*
X278000Y48200D01*
X277500Y47700D02*
X278000Y47200D01*
X277500D02*
X278000D01*
X277000Y46700D02*
X277500Y47200D01*
X129385Y250386D02*
X129885Y249886D01*
X128885Y250386D02*
X129385D01*
X128885D02*
X129385Y250886D01*
X128885Y251386D02*
X129385Y250886D01*
X128885Y251386D02*
X129385D01*
X129885Y251886D01*
X130385Y251386D01*
X130886D01*
X130385Y250886D02*
X130886Y251386D01*
X130385Y250886D02*
X130886Y250386D01*
X130385D02*
X130886D01*
X129885Y249886D02*
X130385Y250386D01*
X153300Y250600D02*
X153800Y250100D01*
X152800Y250600D02*
X153300D01*
X152800D02*
X153300Y251100D01*
X152800Y251600D02*
X153300Y251100D01*
X152800Y251600D02*
X153300D01*
X153800Y252100D01*
X154300Y251600D01*
X154800D01*
X154300Y251100D02*
X154800Y251600D01*
X154300Y251100D02*
X154800Y250600D01*
X154300D02*
X154800D01*
X153800Y250100D02*
X154300Y250600D01*
X117451Y191449D02*
X117951Y190949D01*
X116951Y191449D02*
X117451D01*
X116951D02*
X117451Y191949D01*
X116951Y192449D02*
X117451Y191949D01*
X116951Y192449D02*
X117451D01*
X117951Y192949D01*
X118451Y192449D01*
X118951D01*
X118451Y191949D02*
X118951Y192449D01*
X118451Y191949D02*
X118951Y191449D01*
X118451D02*
X118951D01*
X117951Y190949D02*
X118451Y191449D01*
X279500Y171300D02*
X280000Y170800D01*
X279000Y171300D02*
X279500D01*
X279000D02*
X279500Y171800D01*
X279000Y172300D02*
X279500Y171800D01*
X279000Y172300D02*
X279500D01*
X280000Y172800D01*
X280500Y172300D01*
X281000D01*
X280500Y171800D02*
X281000Y172300D01*
X280500Y171800D02*
X281000Y171300D01*
X280500D02*
X281000D01*
X280000Y170800D02*
X280500Y171300D01*
X221000Y149500D02*
X221500Y149000D01*
X220500Y149500D02*
X221000D01*
X220500D02*
X221000Y150000D01*
X220500Y150500D02*
X221000Y150000D01*
X220500Y150500D02*
X221000D01*
X221500Y151000D01*
X222000Y150500D01*
X222500D01*
X222000Y150000D02*
X222500Y150500D01*
X222000Y150000D02*
X222500Y149500D01*
X222000D02*
X222500D01*
X221500Y149000D02*
X222000Y149500D01*
X140100Y91300D02*
X140600Y90800D01*
X139600Y91300D02*
X140100D01*
X139600D02*
X140100Y91800D01*
X139600Y92300D02*
X140100Y91800D01*
X139600Y92300D02*
X140100D01*
X140600Y92800D01*
X141100Y92300D01*
X141600D01*
X141100Y91800D02*
X141600Y92300D01*
X141100Y91800D02*
X141600Y91300D01*
X141100D02*
X141600D01*
X140600Y90800D02*
X141100Y91300D01*
X149800Y84300D02*
X150300Y83800D01*
X149300Y84300D02*
X149800D01*
X149300D02*
X149800Y84800D01*
X149300Y85300D02*
X149800Y84800D01*
X149300Y85300D02*
X149800D01*
X150300Y85800D01*
X150800Y85300D01*
X151300D01*
X150800Y84800D02*
X151300Y85300D01*
X150800Y84800D02*
X151300Y84300D01*
X150800D02*
X151300D01*
X150300Y83800D02*
X150800Y84300D01*
X175800Y78500D02*
X176300Y78000D01*
X175300Y78500D02*
X175800D01*
X175300D02*
X175800Y79000D01*
X175300Y79500D02*
X175800Y79000D01*
X175300Y79500D02*
X175800D01*
X176300Y80000D01*
X176800Y79500D01*
X177300D01*
X176800Y79000D02*
X177300Y79500D01*
X176800Y79000D02*
X177300Y78500D01*
X176800D02*
X177300D01*
X176300Y78000D02*
X176800Y78500D01*
X241000Y64600D02*
X241500Y64100D01*
X240500Y64600D02*
X241000D01*
X240500D02*
X241000Y65100D01*
X240500Y65600D02*
X241000Y65100D01*
X240500Y65600D02*
X241000D01*
X241500Y66100D01*
X242000Y65600D01*
X242500D01*
X242000Y65100D02*
X242500Y65600D01*
X242000Y65100D02*
X242500Y64600D01*
X242000D02*
X242500D01*
X241500Y64100D02*
X242000Y64600D01*
X270600Y180400D02*
X271100Y179900D01*
X270100Y180400D02*
X270600D01*
X270100D02*
X270600Y180900D01*
X270100Y181400D02*
X270600Y180900D01*
X270100Y181400D02*
X270600D01*
X271100Y181900D01*
X271600Y181400D01*
X272100D01*
X271600Y180900D02*
X272100Y181400D01*
X271600Y180900D02*
X272100Y180400D01*
X271600D02*
X272100D01*
X271100Y179900D02*
X271600Y180400D01*
X274700Y175700D02*
X275200Y175200D01*
X274200Y175700D02*
X274700D01*
X274200D02*
X274700Y176200D01*
X274200Y176700D02*
X274700Y176200D01*
X274200Y176700D02*
X274700D01*
X275200Y177200D01*
X275700Y176700D01*
X276200D01*
X275700Y176200D02*
X276200Y176700D01*
X275700Y176200D02*
X276200Y175700D01*
X275700D02*
X276200D01*
X275200Y175200D02*
X275700Y175700D01*
X274600Y125700D02*
X275100Y125200D01*
X274100Y125700D02*
X274600D01*
X274100D02*
X274600Y126200D01*
X274100Y126700D02*
X274600Y126200D01*
X274100Y126700D02*
X274600D01*
X275100Y127200D01*
X275600Y126700D01*
X276100D01*
X275600Y126200D02*
X276100Y126700D01*
X275600Y126200D02*
X276100Y125700D01*
X275600D02*
X276100D01*
X275100Y125200D02*
X275600Y125700D01*
X252500Y183700D02*
X253000Y183200D01*
X252000Y183700D02*
X252500D01*
X252000D02*
X252500Y184200D01*
X252000Y184700D02*
X252500Y184200D01*
X252000Y184700D02*
X252500D01*
X253000Y185200D01*
X253500Y184700D01*
X254000D01*
X253500Y184200D02*
X254000Y184700D01*
X253500Y184200D02*
X254000Y183700D01*
X253500D02*
X254000D01*
X253000Y183200D02*
X253500Y183700D01*
X260300Y177900D02*
X260800Y177400D01*
X259800Y177900D02*
X260300D01*
X259800D02*
X260300Y178400D01*
X259800Y178900D02*
X260300Y178400D01*
X259800Y178900D02*
X260300D01*
X260800Y179400D01*
X261300Y178900D01*
X261800D01*
X261300Y178400D02*
X261800Y178900D01*
X261300Y178400D02*
X261800Y177900D01*
X261300D02*
X261800D01*
X260800Y177400D02*
X261300Y177900D01*
X149800Y187700D02*
X150300Y187200D01*
X149300Y187700D02*
X149800D01*
X149300D02*
X149800Y188200D01*
X149300Y188700D02*
X149800Y188200D01*
X149300Y188700D02*
X149800D01*
X150300Y189200D01*
X150800Y188700D01*
X151300D01*
X150800Y188200D02*
X151300Y188700D01*
X150800Y188200D02*
X151300Y187700D01*
X150800D02*
X151300D01*
X150300Y187200D02*
X150800Y187700D01*
X267200Y93100D02*
X267700Y92600D01*
X266700Y93100D02*
X267200D01*
X266700D02*
X267200Y93600D01*
X266700Y94100D02*
X267200Y93600D01*
X266700Y94100D02*
X267200D01*
X267700Y94600D01*
X268200Y94100D01*
X268700D01*
X268200Y93600D02*
X268700Y94100D01*
X268200Y93600D02*
X268700Y93100D01*
X268200D02*
X268700D01*
X267700Y92600D02*
X268200Y93100D01*
X238480Y4180D02*
X238980Y3680D01*
X237980Y4180D02*
X238480D01*
X237980D02*
X238480Y4680D01*
X237980Y5180D02*
X238480Y4680D01*
X237980Y5180D02*
X238480D01*
X238980Y5680D01*
X239480Y5180D01*
X239980D01*
X239480Y4680D02*
X239980Y5180D01*
X239480Y4680D02*
X239980Y4180D01*
X239480D02*
X239980D01*
X238980Y3680D02*
X239480Y4180D01*
X293400Y3900D02*
X293900Y3400D01*
X292900Y3900D02*
X293400D01*
X292900D02*
X293400Y4400D01*
X292900Y4900D02*
X293400Y4400D01*
X292900Y4900D02*
X293400D01*
X293900Y5400D01*
X294400Y4900D01*
X294900D01*
X294400Y4400D02*
X294900Y4900D01*
X294400Y4400D02*
X294900Y3900D01*
X294400D02*
X294900D01*
X293900Y3400D02*
X294400Y3900D01*
X343500Y54500D02*
X344000Y54000D01*
X343000Y54500D02*
X343500D01*
X343000D02*
X343500Y55000D01*
X343000Y55500D02*
X343500Y55000D01*
X343000Y55500D02*
X343500D01*
X344000Y56000D01*
X344500Y55500D01*
X345000D01*
X344500Y55000D02*
X345000Y55500D01*
X344500Y55000D02*
X345000Y54500D01*
X344500D02*
X345000D01*
X344000Y54000D02*
X344500Y54500D01*
X306784Y168890D02*
X307283Y168390D01*
X306283Y168890D02*
X306784D01*
X306283D02*
X306784Y169390D01*
X306283Y169890D02*
X306784Y169390D01*
X306283Y169890D02*
X306784D01*
X307283Y170390D01*
X307784Y169890D01*
X308283D01*
X307784Y169390D02*
X308283Y169890D01*
X307784Y169390D02*
X308283Y168890D01*
X307784D02*
X308283D01*
X307283Y168390D02*
X307784Y168890D01*
X212900Y9600D02*
X214900D01*
Y11600D01*
X212900D02*
X214900D01*
X212900Y9600D02*
Y11600D01*
Y19600D02*
X214900D01*
Y21600D01*
X212900D02*
X214900D01*
X212900Y19600D02*
Y21600D01*
Y29600D02*
X214900D01*
Y31600D01*
X212900D02*
X214900D01*
X212900Y29600D02*
Y31600D01*
Y39600D02*
X214900D01*
Y41600D01*
X212900D02*
X214900D01*
X212900Y39600D02*
Y41600D01*
Y49600D02*
X214900D01*
Y51600D01*
X212900D02*
X214900D01*
X212900Y49600D02*
Y51600D01*
X304000Y9100D02*
X306000D01*
Y11100D01*
X304000D02*
X306000D01*
X304000Y9100D02*
Y11100D01*
Y19100D02*
X306000D01*
Y21100D01*
X304000D02*
X306000D01*
X304000Y19100D02*
Y21100D01*
Y29100D02*
X306000D01*
Y31100D01*
X304000D02*
X306000D01*
X304000Y29100D02*
Y31100D01*
Y39100D02*
X306000D01*
Y41100D01*
X304000D02*
X306000D01*
X304000Y39100D02*
Y41100D01*
Y49100D02*
X306000D01*
Y51100D01*
X304000D02*
X306000D01*
X304000Y49100D02*
Y51100D01*
Y59100D02*
X306000D01*
Y61100D01*
X304000D02*
X306000D01*
X304000Y59100D02*
Y61100D01*
X132057Y43500D02*
X133057Y42500D01*
X134057Y43500D01*
X133057Y44500D02*
X134057Y43500D01*
X132057D02*
X133057Y44500D01*
X141900Y43500D02*
X142900Y42500D01*
X143900Y43500D01*
X142900Y44500D02*
X143900Y43500D01*
X141900D02*
X142900Y44500D01*
X175600Y154400D02*
X176100D01*
X175600D02*
Y155400D01*
X176100D01*
Y155900D01*
X177100D01*
Y155400D02*
Y155900D01*
Y155400D02*
X177600D01*
Y154400D02*
Y155400D01*
X177100Y154400D02*
X177600D01*
X177100Y153900D02*
Y154400D01*
X176100Y153900D02*
X177100D01*
X176100D02*
Y154400D01*
X195600D02*
X196100D01*
X195600D02*
Y155400D01*
X196100D01*
Y155900D01*
X197100D01*
Y155400D02*
Y155900D01*
Y155400D02*
X197600D01*
Y154400D02*
Y155400D01*
X197100Y154400D02*
X197600D01*
X197100Y153900D02*
Y154400D01*
X196100Y153900D02*
X197100D01*
X196100D02*
Y154400D01*
X195600Y134400D02*
X196100D01*
X195600D02*
Y135400D01*
X196100D01*
Y135900D01*
X197100D01*
Y135400D02*
Y135900D01*
Y135400D02*
X197600D01*
Y134400D02*
Y135400D01*
X197100Y134400D02*
X197600D01*
X197100Y133900D02*
Y134400D01*
X196100Y133900D02*
X197100D01*
X196100D02*
Y134400D01*
X225000Y202000D02*
X227000D01*
Y204000D01*
X225000D02*
X227000D01*
X225000Y202000D02*
Y204000D01*
X235000Y202000D02*
X237000D01*
Y204000D01*
X235000D02*
X237000D01*
X235000Y202000D02*
Y204000D01*
X245000Y202000D02*
X247000D01*
Y204000D01*
X245000D02*
X247000D01*
X245000Y202000D02*
Y204000D01*
X255000Y202000D02*
X257000D01*
Y204000D01*
X255000D02*
X257000D01*
X255000Y202000D02*
Y204000D01*
X265000Y202000D02*
X267000D01*
Y204000D01*
X265000D02*
X267000D01*
X265000Y202000D02*
Y204000D01*
X275000Y202000D02*
X277000D01*
Y204000D01*
X275000D02*
X277000D01*
X275000Y202000D02*
Y204000D01*
X204800Y169400D02*
X205800Y169900D01*
X206800Y169400D01*
X206300Y170400D02*
X206800Y169400D01*
X206300Y170400D02*
X206800Y171400D01*
X205800Y170900D02*
X206800Y171400D01*
X204800D02*
X205800Y170900D01*
X204800Y171400D02*
X205300Y170400D01*
X204800Y169400D02*
X205300Y170400D01*
X204800Y189400D02*
X205800Y189900D01*
X206800Y189400D01*
X206300Y190400D02*
X206800Y189400D01*
X206300Y190400D02*
X206800Y191400D01*
X205800Y190900D02*
X206800Y191400D01*
X204800D02*
X205800Y190900D01*
X204800Y191400D02*
X205300Y190400D01*
X204800Y189400D02*
X205300Y190400D01*
X129885Y262950D02*
X130886Y264950D01*
X128885D02*
X130886D01*
X128885D02*
X129885Y262950D01*
X147886D02*
X148886Y264950D01*
X146886D02*
X148886D01*
X146886D02*
X147886Y262950D01*
X310000Y240000D02*
X311000Y240500D01*
X312000Y240000D01*
X311500Y241000D02*
X312000Y240000D01*
X311500Y241000D02*
X312000Y242000D01*
X311000Y241500D02*
X312000Y242000D01*
X310000D02*
X311000Y241500D01*
X310000Y242000D02*
X310500Y241000D01*
X310000Y240000D02*
X310500Y241000D01*
X310000Y220000D02*
X311000Y220500D01*
X312000Y220000D01*
X311500Y221000D02*
X312000Y220000D01*
X311500Y221000D02*
X312000Y222000D01*
X311000Y221500D02*
X312000Y222000D01*
X310000D02*
X311000Y221500D01*
X310000Y222000D02*
X310500Y221000D01*
X310000Y220000D02*
X310500Y221000D01*
X167300Y17900D02*
X169300D01*
Y19900D01*
X167300D02*
X169300D01*
X167300Y17900D02*
Y19900D01*
Y27900D02*
X169300D01*
Y29900D01*
X167300D02*
X169300D01*
X167300Y27900D02*
Y29900D01*
Y37900D02*
X169300D01*
Y39900D01*
X167300D02*
X169300D01*
X167300Y37900D02*
Y39900D01*
X179600Y17700D02*
X181600D01*
Y19700D01*
X179600D02*
X181600D01*
X179600Y17700D02*
Y19700D01*
Y27700D02*
X181600D01*
Y29700D01*
X179600D02*
X181600D01*
X179600Y27700D02*
Y29700D01*
Y37700D02*
X181600D01*
Y39700D01*
X179600D02*
X181600D01*
X179600Y37700D02*
Y39700D01*
X388000Y75000D02*
X390000D01*
Y77000D01*
X388000D02*
X390000D01*
X388000Y75000D02*
Y77000D01*
Y55000D02*
X390000D01*
Y57000D01*
X388000D02*
X390000D01*
X388000Y55000D02*
Y57000D01*
Y65000D02*
X390000D01*
Y67000D01*
X388000D02*
X390000D01*
X388000Y65000D02*
Y67000D01*
Y85000D02*
X390000D01*
Y87000D01*
X388000D02*
X390000D01*
X388000Y85000D02*
Y87000D01*
Y95000D02*
X390000D01*
Y97000D01*
X388000D02*
X390000D01*
X388000Y95000D02*
Y97000D01*
Y105000D02*
X390000D01*
Y107000D01*
X388000D02*
X390000D01*
X388000Y105000D02*
Y107000D01*
Y115000D02*
X390000D01*
Y117000D01*
X388000D02*
X390000D01*
X388000Y115000D02*
Y117000D01*
X331776Y150181D02*
X333776D01*
Y152181D01*
X331776D02*
X333776D01*
X331776Y150181D02*
Y152181D01*
Y160181D02*
X333776D01*
Y162181D01*
X331776D02*
X333776D01*
X331776Y160181D02*
Y162181D01*
X411400Y179020D02*
X413400D01*
Y181020D01*
X411400D02*
X413400D01*
X411400Y179020D02*
Y181020D01*
X401400Y179020D02*
X403400D01*
Y181020D01*
X401400D02*
X403400D01*
X401400Y179020D02*
Y181020D01*
X391400Y179020D02*
X393400D01*
Y181020D01*
X391400D02*
X393400D01*
X391400Y179020D02*
Y181020D01*
X381400Y179020D02*
X383400D01*
Y181020D01*
X381400D02*
X383400D01*
X381400Y179020D02*
Y181020D01*
X371400Y179020D02*
X373400D01*
Y181020D01*
X371400D02*
X373400D01*
X371400Y179020D02*
Y181020D01*
X330299Y179020D02*
Y179520D01*
X330799Y180020D01*
X330299Y180520D02*
X330799Y180020D01*
X330299Y180520D02*
Y181020D01*
X330799D01*
X331299Y180520D01*
X331799Y181020D01*
X332299D01*
Y180520D02*
Y181020D01*
X331799Y180020D02*
X332299Y180520D01*
X331799Y180020D02*
X332299Y179520D01*
Y179020D02*
Y179520D01*
X331799Y179020D02*
X332299D01*
X331299Y179520D02*
X331799Y179020D01*
X330799D02*
X331299Y179520D01*
X330299Y179020D02*
X330799D01*
X330299Y287287D02*
Y287787D01*
X330799Y288287D01*
X330299Y288787D02*
X330799Y288287D01*
X330299Y288787D02*
Y289287D01*
X330799D01*
X331299Y288787D01*
X331799Y289287D01*
X332299D01*
Y288787D02*
Y289287D01*
X331799Y288287D02*
X332299Y288787D01*
X331799Y288287D02*
X332299Y287787D01*
Y287287D02*
Y287787D01*
X331799Y287287D02*
X332299D01*
X331299Y287787D02*
X331799Y287287D01*
X330799D02*
X331299Y287787D01*
X330299Y287287D02*
X330799D01*
X438567D02*
Y287787D01*
X439067Y288287D01*
X438567Y288787D02*
X439067Y288287D01*
X438567Y288787D02*
Y289287D01*
X439067D01*
X439567Y288787D01*
X440067Y289287D01*
X440567D01*
Y288787D02*
Y289287D01*
X440067Y288287D02*
X440567Y288787D01*
X440067Y288287D02*
X440567Y287787D01*
Y287287D02*
Y287787D01*
X440067Y287287D02*
X440567D01*
X439567Y287787D02*
X440067Y287287D01*
X439067D02*
X439567Y287787D01*
X438567Y287287D02*
X439067D01*
X438567Y179020D02*
Y179520D01*
X439067Y180020D01*
X438567Y180520D02*
X439067Y180020D01*
X438567Y180520D02*
Y181020D01*
X439067D01*
X439567Y180520D01*
X440067Y181020D01*
X440567D01*
Y180520D02*
Y181020D01*
X440067Y180020D02*
X440567Y180520D01*
X440067Y180020D02*
X440567Y179520D01*
Y179020D02*
Y179520D01*
X440067Y179020D02*
X440567D01*
X439567Y179520D02*
X440067Y179020D01*
X439067D02*
X439567Y179520D01*
X438567Y179020D02*
X439067D01*
D97*
X18750Y478750D02*
X806336D01*
X18750Y358750D02*
X806336D01*
X18750Y343750D02*
X806336D01*
Y493750D01*
X18750D02*
X806336D01*
X18750Y343750D02*
Y493750D01*
X715260Y343750D02*
Y493750D01*
X650278Y343750D02*
Y493750D01*
X575698Y343750D02*
Y493750D01*
X516713Y343750D02*
Y493750D01*
X366758Y343750D02*
Y493750D01*
X293378Y343750D02*
Y493750D01*
X242790Y343750D02*
Y493750D01*
X132822Y343750D02*
Y493750D01*
X73838Y343750D02*
Y493750D01*
D98*
X719760Y490448D02*
Y483250D01*
Y486849D01*
X724559D01*
Y490448D01*
Y483250D01*
X728158D02*
X730557D01*
X731756Y484450D01*
Y486849D01*
X730557Y488048D01*
X728158D01*
X726958Y486849D01*
Y484450D01*
X728158Y483250D01*
X734156D02*
X736555D01*
X735355D01*
Y490448D01*
X734156D01*
X743753Y483250D02*
X741353D01*
X740154Y484450D01*
Y486849D01*
X741353Y488048D01*
X743753D01*
X744952Y486849D01*
Y485649D01*
X740154D01*
X754549Y490448D02*
Y483250D01*
X759348D01*
X765346D02*
X762947D01*
X761747Y484450D01*
Y486849D01*
X762947Y488048D01*
X765346D01*
X766545Y486849D01*
Y485649D01*
X761747D01*
X768945Y483250D02*
Y488048D01*
X772543D01*
X773743Y486849D01*
Y483250D01*
X778541Y480851D02*
X779741D01*
X780941Y482050D01*
Y488048D01*
X777342D01*
X776142Y486849D01*
Y484450D01*
X777342Y483250D01*
X780941D01*
X784540Y489248D02*
Y488048D01*
X783340D01*
X785739D01*
X784540D01*
Y484450D01*
X785739Y483250D01*
X789338Y490448D02*
Y483250D01*
Y486849D01*
X790538Y488048D01*
X792937D01*
X794136Y486849D01*
Y483250D01*
X654777Y490448D02*
X659576D01*
X657177D01*
Y483250D01*
X665574D02*
X663175D01*
X661975Y484450D01*
Y486849D01*
X663175Y488048D01*
X665574D01*
X666774Y486849D01*
Y485649D01*
X661975D01*
X669173Y483250D02*
Y488048D01*
X670372D01*
X671572Y486849D01*
Y483250D01*
Y486849D01*
X672772Y488048D01*
X673971Y486849D01*
Y483250D01*
X676370Y480851D02*
Y488048D01*
X679969D01*
X681169Y486849D01*
Y484450D01*
X679969Y483250D01*
X676370D01*
X683568D02*
X685967D01*
X684768D01*
Y490448D01*
X683568D01*
X690766Y488048D02*
X693165D01*
X694365Y486849D01*
Y483250D01*
X690766D01*
X689566Y484450D01*
X690766Y485649D01*
X694365D01*
X697963Y489248D02*
Y488048D01*
X696764D01*
X699163D01*
X697963D01*
Y484450D01*
X699163Y483250D01*
X706361D02*
X703962D01*
X702762Y484450D01*
Y486849D01*
X703962Y488048D01*
X706361D01*
X707560Y486849D01*
Y485649D01*
X702762D01*
X580198Y483250D02*
Y490448D01*
X583797D01*
X584996Y489248D01*
Y486849D01*
X583797Y485649D01*
X580198D01*
X588595Y488048D02*
X590994D01*
X592194Y486849D01*
Y483250D01*
X588595D01*
X587395Y484450D01*
X588595Y485649D01*
X592194D01*
X599392Y490448D02*
Y483250D01*
X595793D01*
X594593Y484450D01*
Y486849D01*
X595793Y488048D01*
X599392D01*
X613787Y489248D02*
X612587Y490448D01*
X610188D01*
X608988Y489248D01*
Y488048D01*
X610188Y486849D01*
X612587D01*
X613787Y485649D01*
Y484450D01*
X612587Y483250D01*
X610188D01*
X608988Y484450D01*
X616186Y490448D02*
Y483250D01*
Y486849D01*
X617386Y488048D01*
X619785D01*
X620985Y486849D01*
Y483250D01*
X624583Y488048D02*
X626983D01*
X628182Y486849D01*
Y483250D01*
X624583D01*
X623384Y484450D01*
X624583Y485649D01*
X628182D01*
X630581Y480851D02*
Y488048D01*
X634180D01*
X635380Y486849D01*
Y484450D01*
X634180Y483250D01*
X630581D01*
X641378D02*
X638979D01*
X637779Y484450D01*
Y486849D01*
X638979Y488048D01*
X641378D01*
X642578Y486849D01*
Y485649D01*
X637779D01*
X521213Y490448D02*
Y485649D01*
X523612Y483250D01*
X526011Y485649D01*
Y490448D01*
X528410Y483250D02*
X530810D01*
X529610D01*
Y488048D01*
X528410D01*
X535608D02*
X538007D01*
X539207Y486849D01*
Y483250D01*
X535608D01*
X534409Y484450D01*
X535608Y485649D01*
X539207D01*
X541606Y483250D02*
X546405Y488048D01*
X548804Y483250D02*
Y490448D01*
X552403D01*
X553602Y489248D01*
Y486849D01*
X552403Y485649D01*
X548804D01*
X557201Y488048D02*
X559600D01*
X560800Y486849D01*
Y483250D01*
X557201D01*
X556002Y484450D01*
X557201Y485649D01*
X560800D01*
X567998Y490448D02*
Y483250D01*
X564399D01*
X563199Y484450D01*
Y486849D01*
X564399Y488048D01*
X567998D01*
X371258Y490448D02*
Y483250D01*
X374857D01*
X376056Y484450D01*
Y489248D01*
X374857Y490448D01*
X371258D01*
X378455Y488048D02*
Y483250D01*
Y485649D01*
X379655Y486849D01*
X380855Y488048D01*
X382054D01*
X385653Y483250D02*
X388052D01*
X386853D01*
Y488048D01*
X385653D01*
X391651Y483250D02*
X394050D01*
X392851D01*
Y490448D01*
X391651D01*
X397649Y483250D02*
X400048D01*
X398849D01*
Y490448D01*
X397649D01*
X410845D02*
Y483250D01*
X415643D01*
X419242Y488048D02*
X421641D01*
X422841Y486849D01*
Y483250D01*
X419242D01*
X418043Y484450D01*
X419242Y485649D01*
X422841D01*
X425240Y488048D02*
Y484450D01*
X426440Y483250D01*
X430039D01*
Y482050D01*
X428839Y480851D01*
X427639D01*
X430039Y483250D02*
Y488048D01*
X436037Y483250D02*
X433638D01*
X432438Y484450D01*
Y486849D01*
X433638Y488048D01*
X436037D01*
X437236Y486849D01*
Y485649D01*
X432438D01*
X439636Y488048D02*
Y483250D01*
Y485649D01*
X440835Y486849D01*
X442035Y488048D01*
X443234D01*
X454031Y483250D02*
Y490448D01*
X457630D01*
X458829Y489248D01*
Y486849D01*
X457630Y485649D01*
X454031D01*
X462428Y488048D02*
X464827D01*
X466027Y486849D01*
Y483250D01*
X462428D01*
X461229Y484450D01*
X462428Y485649D01*
X466027D01*
X468426Y483250D02*
X470826D01*
X469626D01*
Y488048D01*
X468426D01*
X474424D02*
Y483250D01*
Y485649D01*
X475624Y486849D01*
X476824Y488048D01*
X478023D01*
X297878Y490448D02*
Y483250D01*
Y486849D01*
X302676D01*
Y490448D01*
Y483250D01*
X306275D02*
X308674D01*
X309874Y484450D01*
Y486849D01*
X308674Y488048D01*
X306275D01*
X305075Y486849D01*
Y484450D01*
X306275Y483250D01*
X312273D02*
X314672D01*
X313473D01*
Y490448D01*
X312273D01*
X321870Y483250D02*
X319471D01*
X318271Y484450D01*
Y486849D01*
X319471Y488048D01*
X321870D01*
X323069Y486849D01*
Y485649D01*
X318271D01*
X332666Y490448D02*
X337465D01*
X335066D01*
Y483250D01*
X339864Y488048D02*
Y484450D01*
X341064Y483250D01*
X344662D01*
Y482050D01*
X343463Y480851D01*
X342263D01*
X344662Y483250D02*
Y488048D01*
X347062Y480851D02*
Y488048D01*
X350660D01*
X351860Y486849D01*
Y484450D01*
X350660Y483250D01*
X347062D01*
X357858D02*
X355459D01*
X354259Y484450D01*
Y486849D01*
X355459Y488048D01*
X357858D01*
X359058Y486849D01*
Y485649D01*
X354259D01*
X247290Y483250D02*
Y490448D01*
X250889D01*
X252088Y489248D01*
Y486849D01*
X250889Y485649D01*
X247290D01*
X254488Y483250D02*
X256887D01*
X255687D01*
Y490448D01*
X254488D01*
X261685Y488048D02*
X264085D01*
X265284Y486849D01*
Y483250D01*
X261685D01*
X260486Y484450D01*
X261685Y485649D01*
X265284D01*
X268883Y489248D02*
Y488048D01*
X267683D01*
X270083D01*
X268883D01*
Y484450D01*
X270083Y483250D01*
X277280D02*
X274881D01*
X273681Y484450D01*
Y486849D01*
X274881Y488048D01*
X277280D01*
X278480Y486849D01*
Y485649D01*
X273681D01*
X285678Y490448D02*
Y483250D01*
X282079D01*
X280879Y484450D01*
Y486849D01*
X282079Y488048D01*
X285678D01*
X137322Y490448D02*
Y483250D01*
Y486849D01*
X142121D01*
Y490448D01*
Y483250D01*
X145719D02*
X148119D01*
X149318Y484450D01*
Y486849D01*
X148119Y488048D01*
X145719D01*
X144520Y486849D01*
Y484450D01*
X145719Y483250D01*
X151717D02*
X154117D01*
X152917D01*
Y490448D01*
X151717D01*
X161314Y483250D02*
X158915D01*
X157715Y484450D01*
Y486849D01*
X158915Y488048D01*
X161314D01*
X162514Y486849D01*
Y485649D01*
X157715D01*
X176909Y489248D02*
X175710Y490448D01*
X173310D01*
X172111Y489248D01*
Y488048D01*
X173310Y486849D01*
X175710D01*
X176909Y485649D01*
Y484450D01*
X175710Y483250D01*
X173310D01*
X172111Y484450D01*
X179308Y483250D02*
X181708D01*
X180508D01*
Y488048D01*
X179308D01*
X185307D02*
X190105D01*
X185307Y483250D01*
X190105D01*
X196103D02*
X193704D01*
X192504Y484450D01*
Y486849D01*
X193704Y488048D01*
X196103D01*
X197303Y486849D01*
Y485649D01*
X192504D01*
X83136Y489248D02*
X81936Y490448D01*
X79537D01*
X78338Y489248D01*
Y484450D01*
X79537Y483250D01*
X81936D01*
X83136Y484450D01*
X86735Y483250D02*
X89134D01*
X90334Y484450D01*
Y486849D01*
X89134Y488048D01*
X86735D01*
X85535Y486849D01*
Y484450D01*
X86735Y483250D01*
X92733Y488048D02*
Y484450D01*
X93932Y483250D01*
X97531D01*
Y488048D01*
X99931Y483250D02*
Y488048D01*
X103529D01*
X104729Y486849D01*
Y483250D01*
X108328Y489248D02*
Y488048D01*
X107128D01*
X109528D01*
X108328D01*
Y484450D01*
X109528Y483250D01*
X32548Y489248D02*
X31349Y490448D01*
X28950D01*
X27750Y489248D01*
Y488048D01*
X28950Y486849D01*
X31349D01*
X32548Y485649D01*
Y484450D01*
X31349Y483250D01*
X28950D01*
X27750Y484450D01*
X34948Y488048D02*
Y484450D01*
X36147Y483250D01*
X39746D01*
Y482050D01*
X38546Y480851D01*
X37347D01*
X39746Y483250D02*
Y488048D01*
X42145Y483250D02*
Y488048D01*
X43345D01*
X44545Y486849D01*
Y483250D01*
Y486849D01*
X45744Y488048D01*
X46944Y486849D01*
Y483250D01*
X49343Y490448D02*
Y483250D01*
X52942D01*
X54141Y484450D01*
Y485649D01*
Y486849D01*
X52942Y488048D01*
X49343D01*
X57740Y483250D02*
X60140D01*
X61339Y484450D01*
Y486849D01*
X60140Y488048D01*
X57740D01*
X56541Y486849D01*
Y484450D01*
X57740Y483250D01*
X63738D02*
X66138D01*
X64938D01*
Y490448D01*
X63738D01*
M02*
