G04 Layer_Color=128*
%FSLAX25Y25*%
%MOIN*%
G70*
G01*
G75*
%ADD33C,0.01000*%
%ADD37C,0.00800*%
%ADD96C,0.00200*%
D33*
X100300D02*
Y299700D01*
X100500Y299900D01*
X450000D01*
X100300Y0D02*
X449800D01*
X450000Y200D01*
Y299900D01*
D37*
X110201Y246233D02*
X116105D01*
X110201Y281667D02*
X116105D01*
X110201Y246233D02*
Y281667D01*
D96*
X435433Y180020D02*
X443701D01*
X439567Y175886D02*
Y184153D01*
X435433Y288287D02*
X443701D01*
X439567Y284154D02*
Y292421D01*
X327165Y288287D02*
X335433D01*
X331299Y284154D02*
Y292421D01*
X327165Y180020D02*
X335433D01*
X331299Y175886D02*
Y184153D01*
X370628Y180020D02*
X374172D01*
X372400Y178248D02*
Y181791D01*
X380628Y180020D02*
X384172D01*
X382400Y178248D02*
Y181791D01*
X390628Y180020D02*
X394172D01*
X392400Y178248D02*
Y181791D01*
X400628Y180020D02*
X404172D01*
X402400Y178248D02*
Y181791D01*
X410628Y180020D02*
X414172D01*
X412400Y178248D02*
Y181791D01*
X331004Y161181D02*
X334547D01*
X332776Y159409D02*
Y162953D01*
X331004Y151181D02*
X334547D01*
X332776Y149409D02*
Y152953D01*
X387228Y116000D02*
X390772D01*
X389000Y114228D02*
Y117772D01*
X387228Y106000D02*
X390772D01*
X389000Y104228D02*
Y107772D01*
X387228Y96000D02*
X390772D01*
X389000Y94228D02*
Y97772D01*
X387228Y86000D02*
X390772D01*
X389000Y84228D02*
Y87772D01*
X387228Y66000D02*
X390772D01*
X389000Y64228D02*
Y67772D01*
X387228Y56000D02*
X390772D01*
X389000Y54228D02*
Y57772D01*
X387228Y76000D02*
X390772D01*
X389000Y74228D02*
Y77772D01*
X178828Y38700D02*
X182372D01*
X180600Y36928D02*
Y40472D01*
X178828Y28700D02*
X182372D01*
X180600Y26928D02*
Y30472D01*
X178828Y18700D02*
X182372D01*
X180600Y16928D02*
Y20472D01*
X166528Y38900D02*
X170072D01*
X168300Y37128D02*
Y40672D01*
X166528Y28900D02*
X170072D01*
X168300Y27128D02*
Y30672D01*
X166528Y18900D02*
X170072D01*
X168300Y17128D02*
Y20672D01*
X308835Y221000D02*
X313165D01*
X311000Y218835D02*
Y223165D01*
X308835Y241000D02*
X313165D01*
X311000Y238835D02*
Y243165D01*
X143886Y263950D02*
X151885D01*
X147886Y259950D02*
Y267950D01*
X125885Y263950D02*
X133886D01*
X129885Y259950D02*
Y267950D01*
X203635Y190400D02*
X207965D01*
X205800Y188235D02*
Y192565D01*
X203635Y170400D02*
X207965D01*
X205800Y168235D02*
Y172565D01*
X274228Y203000D02*
X277772D01*
X276000Y201228D02*
Y204772D01*
X264228Y203000D02*
X267772D01*
X266000Y201228D02*
Y204772D01*
X254228Y203000D02*
X257772D01*
X256000Y201228D02*
Y204772D01*
X244228Y203000D02*
X247772D01*
X246000Y201228D02*
Y204772D01*
X234228Y203000D02*
X237772D01*
X236000Y201228D02*
Y204772D01*
X224228Y203000D02*
X227772D01*
X226000Y201228D02*
Y204772D01*
X195700Y134900D02*
X197500D01*
X196600Y134000D02*
Y135800D01*
X195700Y154900D02*
X197500D01*
X196600Y154000D02*
Y155800D01*
X175700Y154900D02*
X177500D01*
X176600Y154000D02*
Y155800D01*
X141325Y43500D02*
X144475D01*
X142900Y41925D02*
Y45075D01*
X131483Y43500D02*
X134632D01*
X133057Y41925D02*
Y45075D01*
X235320Y190000D02*
X238076D01*
X236698Y188622D02*
Y191378D01*
X247524Y190000D02*
X250280D01*
X248902Y188622D02*
Y191378D01*
X303228Y60100D02*
X306772D01*
X305000Y58328D02*
Y61872D01*
X303228Y50100D02*
X306772D01*
X305000Y48328D02*
Y51872D01*
X303228Y40100D02*
X306772D01*
X305000Y38328D02*
Y41872D01*
X303228Y30100D02*
X306772D01*
X305000Y28328D02*
Y31872D01*
X303228Y20100D02*
X306772D01*
X305000Y18328D02*
Y21872D01*
X303228Y10100D02*
X306772D01*
X305000Y8328D02*
Y11872D01*
X212128Y50600D02*
X215672D01*
X213900Y48828D02*
Y52372D01*
X212128Y40600D02*
X215672D01*
X213900Y38828D02*
Y42372D01*
X212128Y30600D02*
X215672D01*
X213900Y28828D02*
Y32372D01*
X212128Y20600D02*
X215672D01*
X213900Y18828D02*
Y22372D01*
X212128Y10600D02*
X215672D01*
X213900Y8828D02*
Y12372D01*
X305884Y169390D02*
X308683D01*
X307283Y167990D02*
Y170790D01*
X342600Y55000D02*
X345400D01*
X344000Y53600D02*
Y56400D01*
X292500Y4400D02*
X295300D01*
X293900Y3000D02*
Y5800D01*
X237580Y4680D02*
X240380D01*
X238980Y3280D02*
Y6080D01*
X266300Y93600D02*
X269100D01*
X267700Y92200D02*
Y95000D01*
X148900Y188200D02*
X151700D01*
X150300Y186800D02*
Y189600D01*
X259400Y178400D02*
X262200D01*
X260800Y177000D02*
Y179800D01*
X251600Y184200D02*
X254400D01*
X253000Y182800D02*
Y185600D01*
X273700Y126200D02*
X276500D01*
X275100Y124800D02*
Y127600D01*
X273800Y176200D02*
X276600D01*
X275200Y174800D02*
Y177600D01*
X269700Y180900D02*
X272500D01*
X271100Y179500D02*
Y182300D01*
X240100Y65100D02*
X242900D01*
X241500Y63700D02*
Y66500D01*
X174900Y79000D02*
X177700D01*
X176300Y77600D02*
Y80400D01*
X148900Y84800D02*
X151700D01*
X150300Y83400D02*
Y86200D01*
X139200Y91800D02*
X142000D01*
X140600Y90400D02*
Y93200D01*
X220100Y150000D02*
X222900D01*
X221500Y148600D02*
Y151400D01*
X278600Y171800D02*
X281400D01*
X280000Y170400D02*
Y173200D01*
X116551Y191949D02*
X119351D01*
X117951Y190549D02*
Y193349D01*
X152400Y251100D02*
X155200D01*
X153800Y249700D02*
Y252500D01*
X128486Y250886D02*
X131286D01*
X129885Y249486D02*
Y252286D01*
X275600Y47700D02*
X278400D01*
X277000Y46300D02*
Y49100D01*
X275600Y40500D02*
X278400D01*
X277000Y39100D02*
Y41900D01*
X275400Y33100D02*
X278200D01*
X276800Y31700D02*
Y34500D01*
X275400Y26500D02*
X278200D01*
X276800Y25100D02*
Y27900D01*
X290400Y255800D02*
X293200D01*
X291800Y254400D02*
Y257200D01*
X163000Y55000D02*
X165800D01*
X164400Y53600D02*
Y56400D01*
X151800Y67200D02*
X154600D01*
X153200Y65800D02*
Y68600D01*
X155800Y58200D02*
X158600D01*
X157200Y56800D02*
Y59600D01*
X266400Y123100D02*
X269200D01*
X267800Y121700D02*
Y124500D01*
X334000Y72800D02*
X336800D01*
X335400Y71400D02*
Y74200D01*
X284000Y84300D02*
X286800D01*
X285400Y82900D02*
Y85700D01*
X246700Y66100D02*
X249500D01*
X248100Y64700D02*
Y67500D01*
X262600Y73600D02*
X265400D01*
X264000Y72200D02*
Y75000D01*
X269000Y73800D02*
X271800D01*
X270400Y72400D02*
Y75200D01*
X249000Y72500D02*
X251800D01*
X250400Y71100D02*
Y73900D01*
X248200Y92500D02*
X251000D01*
X249600Y91100D02*
Y93900D01*
X260900Y107100D02*
X263700D01*
X262300Y105700D02*
Y108500D01*
X258700Y94500D02*
X261500D01*
X260100Y93100D02*
Y95900D01*
X255800Y73100D02*
X258600D01*
X257200Y71700D02*
Y74500D01*
X304300Y76400D02*
X307100D01*
X305700Y75000D02*
Y77800D01*
X326200Y73500D02*
X329000D01*
X327600Y72100D02*
Y74900D01*
X331300Y95500D02*
X334100D01*
X332700Y94100D02*
Y96900D01*
X318600Y76100D02*
X321400D01*
X320000Y74700D02*
Y77500D01*
X307300Y108000D02*
X310100D01*
X308700Y106600D02*
Y109400D01*
X181000Y262400D02*
X183800D01*
X182400Y261000D02*
Y263800D01*
X293500Y156900D02*
X296300D01*
X294900Y155500D02*
Y158300D01*
X312300Y98800D02*
X315100D01*
X313700Y97400D02*
Y100200D01*
X180200Y103800D02*
X183000D01*
X181600Y102400D02*
Y105200D01*
X368300Y101600D02*
X371100D01*
X369700Y100200D02*
Y103000D01*
X160900Y105000D02*
X163700D01*
X162300Y103600D02*
Y106400D01*
X149500Y98800D02*
X152300D01*
X150900Y97400D02*
Y100200D01*
X279100Y146500D02*
X281900D01*
X280500Y145100D02*
Y147900D01*
X272800Y143300D02*
X275600D01*
X274200Y141900D02*
Y144700D01*
X280100Y227700D02*
X282900D01*
X281500Y226300D02*
Y229100D01*
X236200Y229500D02*
X239000D01*
X237600Y228100D02*
Y230900D01*
X250856Y262244D02*
X253656D01*
X252256Y260844D02*
Y263644D01*
X226000Y116400D02*
X228800D01*
X227400Y115000D02*
Y117800D01*
X219898Y78498D02*
X222698D01*
X221298Y77098D02*
Y79898D01*
X257200Y25900D02*
X260000D01*
X258600Y24500D02*
Y27300D01*
X257200Y46500D02*
X260000D01*
X258600Y45100D02*
Y47900D01*
X257200Y39500D02*
X260000D01*
X258600Y38100D02*
Y40900D01*
X257300Y32200D02*
X260100D01*
X258700Y30800D02*
Y33600D01*
X240400Y262400D02*
X243200D01*
X241800Y261000D02*
Y263800D01*
X220844Y168000D02*
X223644D01*
X222244Y166600D02*
Y169400D01*
X217800Y263800D02*
X220600D01*
X219200Y262400D02*
Y265200D01*
X236400Y267300D02*
X239200D01*
X237800Y265900D02*
Y268700D01*
X266000Y136500D02*
X268800D01*
X267400Y135100D02*
Y137900D01*
X187400Y241700D02*
X190200D01*
X188800Y240300D02*
Y243100D01*
X195000Y248200D02*
X197800D01*
X196400Y246800D02*
Y249600D01*
X182400Y190300D02*
X185200D01*
X183800Y188900D02*
Y191700D01*
X253400Y98000D02*
X256200D01*
X254800Y96600D02*
Y99400D01*
M02*
