M48
;Layer_Color=9474304
;FILE_FORMAT=2:5
INCH,LZ
;TYPE=PLATED
T1F00S00C0.01800
T2F00S00C0.02756
T3F00S00C0.02800
T4F00S00C0.03150
T5F00S00C0.03543
T6F00S00C0.04331
T7F00S00C0.08000
%
T01
X01966Y01349
Y01549
X01766
T02
X0236698Y019
X0248902
T03
X01532Y00672
X01503Y00848
X01509Y00988
X01406Y00918
X01623Y0105
X01816Y01038
X01763Y0079
X01644Y0055
X01572Y00582
X0221298Y0078498
X02415Y00651
X02481Y00661
X02504Y00725
X02572Y00731
X0264Y00736
X02704Y00738
X02677Y00936
X02601Y00945
X02548Y0098
X02496Y00925
X02623Y01071
X02678Y01231
X02751Y01262
X02742Y01433
X02805Y01465
X02674Y01365
X02215Y015
X02274Y01164
X03087Y0108
X03057Y00764
X02854Y00843
X0277Y00477
Y00405
X02768Y00331
Y00265
X02586Y00259
X02587Y00322
X02586Y00395
Y00465
X023898Y000468
X02939Y00044
X032Y00761
X03276Y00735
X03354Y00728
X03327Y00955
X03137Y00988
X03697Y01016
X0344Y0055
X02949Y01569
X0307283Y016939
X028Y01718
X02752Y01762
X02711Y01809
X02608Y01784
X0253Y01842
X0222244Y0168
X01838Y01903
X01888Y02417
X01964Y02482
X01824Y02624
X02192Y02638
X02378Y02673
X02418Y02624
X0252256Y0262244
X02918Y02558
X02815Y02277
X02376Y02295
X01538Y02511
X0129885Y0250886
X0117951Y0191949
X01503Y01882
T04
X0133057Y00435
X01429
T05
X01683Y00189
Y00289
Y00389
X01806Y00387
Y00287
Y00187
X02139Y00206
Y00306
Y00406
Y00506
Y00106
X0305Y00101
Y00201
Y00301
Y00401
Y00501
Y00601
X0389Y0056
Y0066
Y0076
Y0086
Y0096
Y0106
Y0116
X0332776Y0151181
Y0161181
X03724Y018002
X03824
X03924
X04024
X04124
X0276Y0203
X0266
X0256
X0246
X0236
X0226
T06
X02058Y01704
Y01904
X0311Y0221
Y0241
T07
X0129885Y026395
X0147886
M30
