G04 Layer_Color=65535*
%FSLAX25Y25*%
%MOIN*%
G70*
G01*
G75*
%ADD44C,0.01000*%
%ADD47C,0.00800*%
%ADD58C,0.00197*%
%ADD59C,0.02756*%
%ADD60C,0.00500*%
%ADD61C,0.00600*%
%ADD62C,0.00787*%
G36*
X414844Y13708D02*
X414872Y13680D01*
Y13653D01*
Y13514D01*
X414844Y13458D01*
X414789Y13319D01*
Y13292D01*
X414761Y13264D01*
X414706Y13125D01*
Y13097D01*
X414678Y13041D01*
Y13014D01*
X414650Y12986D01*
X414594Y12958D01*
X414483Y12930D01*
X414372D01*
X414261Y12875D01*
X414178Y12819D01*
X414150Y12792D01*
X414094Y12764D01*
X413983Y12708D01*
X413872Y12653D01*
X413678Y12569D01*
X413456Y12486D01*
X413178Y12375D01*
X413150D01*
X413039Y12319D01*
X412900Y12264D01*
X412706Y12208D01*
X412289Y12070D01*
X412095Y12014D01*
X411901Y11986D01*
X411873D01*
X411817Y11958D01*
X411706Y11931D01*
X411595Y11903D01*
X411317Y11792D01*
X411206Y11709D01*
X411095Y11625D01*
X411040Y11597D01*
X410929Y11486D01*
X410790Y11403D01*
X410596Y11320D01*
X410540D01*
X410429Y11264D01*
X410290Y11181D01*
X410179Y11070D01*
X410151Y11042D01*
X410123Y10987D01*
X410040Y10931D01*
X409929D01*
X409818Y10903D01*
X409707Y10848D01*
X409568Y10737D01*
X409401Y10626D01*
X409207Y10431D01*
X409179Y10403D01*
X409152Y10376D01*
X408985Y10265D01*
X408902Y10237D01*
X408846D01*
X408790Y10292D01*
X408763Y10431D01*
Y10459D01*
X408790Y10570D01*
X408874Y10681D01*
X409013Y10764D01*
X409040Y10792D01*
X409152Y10848D01*
X409235Y10903D01*
X409263Y10987D01*
X409290Y11014D01*
X409318Y11098D01*
X409401Y11209D01*
X409540Y11348D01*
X409735Y11570D01*
X410012Y11875D01*
X410401Y12236D01*
X410457Y12292D01*
X410596Y12431D01*
X410790Y12597D01*
X411012Y12847D01*
X411262Y13069D01*
X411512Y13292D01*
X411734Y13486D01*
X411901Y13625D01*
X411929D01*
X411956Y13653D01*
X412123Y13680D01*
X412456D01*
X412484Y13653D01*
X412512Y13625D01*
X412539Y13569D01*
X412595Y13541D01*
X412706Y13486D01*
X412873Y13430D01*
X413095Y13402D01*
X413623D01*
X413789Y13430D01*
X414094Y13486D01*
X414261Y13541D01*
X414372Y13597D01*
X414400Y13625D01*
X414483Y13680D01*
X414594Y13708D01*
X414733Y13736D01*
X414789D01*
X414844Y13708D01*
D02*
G37*
G36*
X407819Y23983D02*
X408041Y23927D01*
X408291Y23872D01*
X408568Y23761D01*
X408818Y23622D01*
X409068Y23427D01*
X409096D01*
X409124Y23372D01*
X409263Y23289D01*
X409429Y23178D01*
X409513Y23150D01*
X409568Y23122D01*
X409596D01*
X409651Y23094D01*
X409707Y23066D01*
Y22983D01*
X409735Y22955D01*
X409873D01*
X409929Y22983D01*
X409957D01*
X409985Y23011D01*
X410151Y23039D01*
X410401Y23066D01*
X410845D01*
X411012Y23039D01*
X411206Y23011D01*
X411679Y22928D01*
X411901Y22817D01*
X412123Y22705D01*
X412151Y22678D01*
X412234Y22594D01*
X412373Y22400D01*
X412539Y22150D01*
X412595Y21983D01*
X412678Y21761D01*
X412762Y21539D01*
X412817Y21289D01*
X412900Y21012D01*
X412956Y20678D01*
X412984Y20317D01*
X413012Y19929D01*
Y19901D01*
Y19873D01*
X413039Y19734D01*
X413095Y19512D01*
X413206Y19262D01*
X413234Y19207D01*
X413317Y19095D01*
X413373Y18901D01*
X413428Y18734D01*
Y18679D01*
Y18596D01*
X413456Y18484D01*
Y18457D01*
X413484Y18373D01*
X413511Y18290D01*
Y18207D01*
Y18151D01*
Y18096D01*
X413484Y18040D01*
X413456Y17985D01*
X413428Y17929D01*
Y17818D01*
Y17790D01*
X413456Y17735D01*
X413511Y17679D01*
X413567Y17651D01*
X413595D01*
X413650Y17679D01*
X413733Y17707D01*
X413817Y17762D01*
X413845Y17790D01*
X413956Y17818D01*
X414122Y17846D01*
X414317Y17818D01*
X414345D01*
X414372Y17790D01*
X414511Y17735D01*
X414539D01*
X414567Y17707D01*
X414678Y17679D01*
X414761D01*
Y17651D01*
X414789Y17596D01*
X414872Y17485D01*
X415011Y17290D01*
X415039Y17263D01*
X415094Y17179D01*
X415205Y17040D01*
X415316Y16902D01*
X415400Y16679D01*
X415511Y16485D01*
X415566Y16235D01*
X415594Y15985D01*
Y15763D01*
Y15707D01*
X415566Y15596D01*
X415511Y15402D01*
X415455Y15180D01*
X415261Y14680D01*
X415122Y14458D01*
X414955Y14236D01*
X414928Y14208D01*
X414872Y14152D01*
X414761Y14097D01*
X414594Y14014D01*
X414400Y13902D01*
X414150Y13847D01*
X413845Y13791D01*
X413511Y13763D01*
X413345D01*
X413234Y13791D01*
X412928Y13819D01*
X412512Y13875D01*
X412456D01*
X412262Y13902D01*
X412040Y13875D01*
X411762Y13763D01*
X411734D01*
X411706Y13736D01*
X411540Y13653D01*
X411401Y13569D01*
X411262Y13458D01*
X411095Y13319D01*
X410929Y13153D01*
X410901Y13125D01*
X410845Y13069D01*
X410762Y12986D01*
X410679Y12875D01*
X410484Y12625D01*
X410429Y12514D01*
X410373Y12431D01*
Y12403D01*
X410346Y12347D01*
X410290Y12292D01*
X410234Y12264D01*
X410179Y12236D01*
X410096Y12181D01*
X409929Y12070D01*
X409873Y12042D01*
X409762Y11931D01*
X409540Y11764D01*
X409263Y11514D01*
X408902Y11209D01*
X408485Y10848D01*
X408013Y10403D01*
X407485Y9904D01*
X407457Y9876D01*
X407430Y9848D01*
X407291Y9709D01*
X407180Y9598D01*
X407096D01*
X407069Y9626D01*
X407041Y9598D01*
Y9543D01*
Y9515D01*
X407013Y9459D01*
X406930Y9376D01*
X406791Y9293D01*
X406763Y9265D01*
X406652Y9237D01*
X406486Y9209D01*
X406319Y9182D01*
X406263D01*
X406152Y9209D01*
X406013Y9293D01*
X405986Y9348D01*
X405958Y9431D01*
Y9459D01*
X405930Y9515D01*
X405847Y9654D01*
X405791Y9765D01*
X405708Y9904D01*
Y9931D01*
X405680Y9959D01*
X405597Y10126D01*
X405486Y10292D01*
X405458Y10348D01*
Y10403D01*
Y10431D01*
Y10459D01*
X405403Y10487D01*
X405347Y10514D01*
X405319D01*
X405291Y10542D01*
X405264Y10598D01*
Y10626D01*
X405236Y10653D01*
X405208Y10764D01*
X405153Y10903D01*
X405014Y11125D01*
X404847Y11431D01*
X404597Y11792D01*
X404264Y12264D01*
X404236Y12319D01*
X404181Y12375D01*
X404125Y12486D01*
X404014Y12680D01*
X403847Y12930D01*
X403653Y13264D01*
X403403Y13680D01*
X403375Y13736D01*
X403320Y13847D01*
X403209Y14041D01*
X403098Y14291D01*
X402876Y14847D01*
X402764Y15097D01*
X402709Y15346D01*
Y15374D01*
Y15402D01*
X402681Y15541D01*
X402653Y15707D01*
Y15763D01*
X402626Y15819D01*
Y15846D01*
X402570Y15874D01*
X402514Y15902D01*
X402403Y15957D01*
X402320D01*
X402237Y15985D01*
X402126D01*
X401959Y16013D01*
X401792Y16041D01*
X401376Y16124D01*
X401348D01*
X401293Y16152D01*
X401182Y16180D01*
X401070Y16207D01*
X400848Y16291D01*
X400765Y16318D01*
X400709Y16374D01*
X400682Y16402D01*
X400654Y16485D01*
X400626Y16568D01*
X400571Y16707D01*
X400543Y16902D01*
X400515Y17124D01*
X400487Y17429D01*
Y17457D01*
Y17513D01*
X400459Y17679D01*
Y17707D01*
Y17762D01*
Y17846D01*
Y17901D01*
Y17929D01*
Y17957D01*
Y18040D01*
X400487Y18151D01*
X400543Y18429D01*
X400682Y18790D01*
Y18818D01*
X400709Y18873D01*
X400820Y19068D01*
X400987Y19262D01*
X401070Y19345D01*
X401182Y19401D01*
X401237Y19429D01*
X401320Y19484D01*
X401404Y19540D01*
X401459Y19595D01*
Y19623D01*
X401515Y19651D01*
X401570Y19679D01*
X401626Y19706D01*
X401737Y19734D01*
X401876Y19762D01*
X401903D01*
X401959Y19790D01*
X402126Y19817D01*
X402348Y19845D01*
X402681D01*
X402709Y19817D01*
X402737D01*
X402764Y19762D01*
X402848Y19734D01*
X402959Y19679D01*
X403098D01*
X403209Y19734D01*
X403403Y19845D01*
X403514Y19929D01*
X403625Y20040D01*
X403653Y20067D01*
X403681Y20095D01*
X403820Y20290D01*
X403986Y20539D01*
X404097Y20817D01*
Y20845D01*
X404125Y20873D01*
X404181Y21039D01*
X404264Y21261D01*
X404375Y21484D01*
X404403Y21539D01*
X404458Y21622D01*
X404569Y21734D01*
X404708Y21900D01*
X404903Y22150D01*
X405180Y22428D01*
X405514Y22789D01*
X405569Y22844D01*
X405680Y22955D01*
X405847Y23122D01*
X406041Y23344D01*
X406263Y23539D01*
X406458Y23733D01*
X406597Y23872D01*
X406708Y23927D01*
X406736Y23955D01*
X406874Y23983D01*
X406985D01*
X407124Y24011D01*
X407652D01*
X407819Y23983D01*
D02*
G37*
G36*
X411651Y32536D02*
X412067D01*
X412456Y32508D01*
X412595Y32480D01*
X412734Y32453D01*
X412845Y32425D01*
X412900Y32397D01*
X412928Y32369D01*
X413012Y32286D01*
X413067Y32175D01*
X413095Y32036D01*
Y32008D01*
X413123Y31981D01*
X413150D01*
X413206Y31953D01*
X413234D01*
X413317Y31925D01*
X413373D01*
X413428Y31897D01*
X413456Y31870D01*
X413539Y31814D01*
X413650Y31758D01*
X413845Y31731D01*
X413900D01*
X413983Y31703D01*
X414094D01*
X414372Y31592D01*
X414539Y31536D01*
X414733Y31425D01*
X414761D01*
X414817Y31370D01*
X415011Y31259D01*
X415233Y31148D01*
X415316Y31120D01*
X415344Y31092D01*
X415372D01*
X415427Y31036D01*
X415539Y30981D01*
X415705Y30870D01*
X415927Y30731D01*
X416205Y30564D01*
X416510Y30342D01*
X416899Y30064D01*
X416955Y30037D01*
X417066Y29926D01*
X417233Y29815D01*
X417455Y29648D01*
X417649Y29481D01*
X417816Y29315D01*
X417927Y29176D01*
X417982Y29093D01*
Y29065D01*
X418038Y29037D01*
X418093Y28954D01*
X418177Y28843D01*
X418316Y28704D01*
X418510Y28482D01*
X418760Y28232D01*
X418788Y28204D01*
X418899Y28065D01*
X419065Y27898D01*
X419260Y27648D01*
X419454Y27371D01*
X419676Y27065D01*
X419899Y26732D01*
X420093Y26371D01*
Y26343D01*
X420121Y26260D01*
X420176Y26121D01*
X420232Y25871D01*
X420260Y25566D01*
X420287Y25371D01*
X420315Y25149D01*
X420343Y24899D01*
Y24622D01*
X420371Y24288D01*
Y23955D01*
Y23927D01*
Y23872D01*
Y23761D01*
Y23622D01*
X420398Y23289D01*
Y22900D01*
X420426Y22483D01*
X420454Y22122D01*
Y21956D01*
X420482Y21817D01*
Y21706D01*
X420509Y21650D01*
Y21622D01*
Y21567D01*
X420537Y21484D01*
Y21400D01*
Y21261D01*
Y21095D01*
Y20873D01*
Y20845D01*
Y20817D01*
Y20734D01*
Y20623D01*
Y20373D01*
X420509Y20012D01*
X420482Y19623D01*
X420454Y19234D01*
X420398Y18790D01*
X420343Y18401D01*
Y18373D01*
X420315Y18290D01*
X420287Y18151D01*
X420232Y17985D01*
X420176Y17735D01*
X420065Y17429D01*
X419954Y17096D01*
X419787Y16679D01*
Y16652D01*
X419760Y16624D01*
X419732Y16541D01*
X419676Y16402D01*
X419621Y16263D01*
X419565Y16096D01*
X419482Y15874D01*
X419399Y15652D01*
X419232Y15124D01*
X419038Y14486D01*
X418871Y13763D01*
X418677Y12958D01*
Y12930D01*
Y12903D01*
X418649Y12792D01*
Y12653D01*
X418621Y12431D01*
Y12153D01*
X418593Y11820D01*
Y11375D01*
Y10487D01*
Y9654D01*
Y9626D01*
Y9570D01*
Y9459D01*
Y9348D01*
Y9015D01*
X418566Y8626D01*
X418538Y8237D01*
X418482Y7876D01*
X418454Y7737D01*
X418427Y7599D01*
X418399Y7487D01*
X418343Y7432D01*
X418316Y7376D01*
X418288Y7321D01*
X418260Y7238D01*
Y7210D01*
Y7154D01*
X418232Y7071D01*
X418204Y6932D01*
X418149Y6765D01*
X418066Y6571D01*
X417955Y6321D01*
X417788Y6044D01*
Y6016D01*
X417732Y5960D01*
X417677Y5877D01*
X417621Y5849D01*
X417566Y5877D01*
X417510Y5905D01*
X417455Y5960D01*
X417399Y6071D01*
X417344Y6238D01*
X417316Y6432D01*
X417288Y6738D01*
Y6765D01*
Y6793D01*
X417260Y6932D01*
X417233Y7154D01*
X417122Y7404D01*
Y7432D01*
X417094Y7460D01*
X417010Y7599D01*
X416899Y7737D01*
X416844Y7793D01*
X416760Y7821D01*
X416733Y7848D01*
X416705Y7876D01*
X416622Y7987D01*
X416566Y8154D01*
Y8209D01*
X416510Y8293D01*
X416455Y8376D01*
X416399Y8432D01*
X416344Y8404D01*
X416288Y8376D01*
X416177Y8293D01*
X416150Y8265D01*
X416094Y8209D01*
X415983Y8126D01*
X415816Y7987D01*
X415789Y7960D01*
X415677Y7848D01*
X415539Y7710D01*
X415400Y7571D01*
X415372Y7543D01*
X415316Y7432D01*
X415205Y7293D01*
X415122Y7126D01*
Y7099D01*
X415094Y7043D01*
X415039Y6960D01*
X414983Y6849D01*
X414900Y6710D01*
X414761Y6543D01*
X414622Y6321D01*
X414428Y6099D01*
X414400Y6071D01*
X414345Y6016D01*
X414150Y5849D01*
X414122Y5821D01*
X414067Y5766D01*
X413928Y5627D01*
X413900Y5599D01*
X413872Y5571D01*
X413845D01*
X413817Y5544D01*
X413733Y5488D01*
X413650Y5377D01*
X413511Y5266D01*
X413373Y5155D01*
X413261Y5044D01*
X413150Y4988D01*
X413095Y4961D01*
X413067D01*
X413012Y4988D01*
X412956Y5071D01*
X412928Y5210D01*
Y5238D01*
Y5294D01*
X412956Y5405D01*
X412984Y5544D01*
Y5571D01*
X413012Y5655D01*
X413039Y5766D01*
Y5849D01*
Y5877D01*
Y5932D01*
X412984D01*
X412956Y5905D01*
X412928Y5821D01*
Y5793D01*
X412873Y5738D01*
X412789Y5655D01*
X412706Y5544D01*
X412595Y5405D01*
X412456Y5238D01*
X412428Y5210D01*
X412401Y5155D01*
X412262Y4961D01*
X412095Y4766D01*
X412067Y4683D01*
X412040Y4627D01*
Y4599D01*
X411984Y4516D01*
X411929Y4461D01*
X411845Y4405D01*
X411734Y4377D01*
X411595D01*
X411567Y4405D01*
Y4488D01*
X411540Y4627D01*
Y4655D01*
X411512Y4766D01*
X411484Y4849D01*
X411456Y4905D01*
X411429Y4877D01*
X411401Y4822D01*
X411373Y4710D01*
Y4683D01*
X411317Y4627D01*
X411234Y4544D01*
X411068Y4461D01*
X411012Y4433D01*
X410956Y4405D01*
X410901Y4349D01*
X410818Y4238D01*
X410762Y4127D01*
X410679Y3961D01*
X410596Y3739D01*
X410568Y3683D01*
X410540Y3572D01*
X410484Y3378D01*
X410373Y3183D01*
X410290Y2961D01*
X410151Y2767D01*
X410040Y2655D01*
X409901Y2600D01*
X409818D01*
X409762Y2628D01*
X409735Y2655D01*
X409762Y2711D01*
X409790Y2850D01*
X409818Y2933D01*
X409846Y3072D01*
Y3100D01*
X409873Y3128D01*
X409929Y3294D01*
X410012Y3544D01*
X410096Y3850D01*
X410262Y4516D01*
X410318Y4794D01*
X410346Y5044D01*
Y5071D01*
Y5127D01*
Y5266D01*
Y5460D01*
Y5516D01*
Y5571D01*
Y5599D01*
X410373Y5627D01*
X410457Y5655D01*
X410623D01*
X410707Y5599D01*
X410818Y5516D01*
X410873Y5405D01*
X410929Y5294D01*
X411068Y4988D01*
X411123Y5405D01*
Y5432D01*
X411151Y5488D01*
Y5599D01*
Y5738D01*
Y5766D01*
Y5849D01*
X411123Y5932D01*
Y6071D01*
X411012Y6377D01*
X410956Y6516D01*
X410845Y6654D01*
Y6682D01*
X410790Y6738D01*
X410734Y6877D01*
Y6960D01*
X410790Y7043D01*
X410873Y7071D01*
X411040Y7099D01*
X411123D01*
X411206Y7071D01*
X411290Y7015D01*
X411401Y6932D01*
X411484Y6821D01*
X411567Y6682D01*
X411623Y6460D01*
Y6432D01*
X411651Y6377D01*
X411679Y6238D01*
X411734Y6044D01*
X411762Y5988D01*
X411790Y5877D01*
X411817Y5738D01*
X411845Y5599D01*
X411929Y5127D01*
X412289Y5655D01*
Y5683D01*
X412345Y5738D01*
X412428Y5877D01*
X412484Y5988D01*
X412539Y6127D01*
Y6155D01*
X412567Y6210D01*
X412678Y6377D01*
X412817Y6599D01*
X412984Y6821D01*
X413012Y6877D01*
X413123Y6960D01*
X413234Y7043D01*
X413373Y7099D01*
X413400D01*
X413484Y7043D01*
X413511Y7015D01*
X413539Y6904D01*
X413567Y6821D01*
Y6710D01*
Y6571D01*
X413539Y6377D01*
X413511Y5821D01*
X414039Y6349D01*
X414067Y6377D01*
X414122Y6432D01*
X414206Y6543D01*
X414317Y6654D01*
X414539Y6960D01*
X414622Y7154D01*
X414706Y7321D01*
Y7349D01*
X414733Y7404D01*
X414817Y7571D01*
X414983Y7821D01*
X415233Y8043D01*
X415261Y8071D01*
X415372Y8154D01*
X415511Y8265D01*
X415677Y8432D01*
X415844Y8598D01*
X415983Y8765D01*
X416094Y8932D01*
X416150Y9070D01*
Y9098D01*
X416205Y9182D01*
X416288Y9237D01*
X416427Y9293D01*
X416566D01*
X416677Y9237D01*
X416733Y9154D01*
X416760Y9070D01*
Y9043D01*
X416788Y8987D01*
X416844Y8876D01*
X416899Y8737D01*
X417066Y8460D01*
X417288Y8182D01*
X417344Y8154D01*
X417371Y8071D01*
X417455Y7932D01*
X417483Y7904D01*
X417538Y7793D01*
X417621Y7654D01*
X417732Y7515D01*
X417760Y7487D01*
X417816Y7404D01*
X417871Y7321D01*
X417899Y7293D01*
X417927D01*
Y7321D01*
X417955Y7376D01*
Y7460D01*
X417982Y7599D01*
Y7765D01*
Y7987D01*
Y8654D01*
Y8682D01*
Y8765D01*
Y8876D01*
Y9015D01*
X417955Y9348D01*
X417899Y9681D01*
Y9737D01*
X417843Y9876D01*
X417816Y9987D01*
Y10126D01*
X417788Y10292D01*
X417760Y10487D01*
X417732Y10709D01*
X417705Y10987D01*
X417677Y11264D01*
X417649Y11597D01*
X417621Y11986D01*
Y12375D01*
X417594Y12819D01*
Y13319D01*
Y13375D01*
Y13514D01*
Y13708D01*
Y13958D01*
X417621Y14458D01*
X417649Y14708D01*
X417677Y14902D01*
Y14930D01*
X417705Y14985D01*
X417732Y15069D01*
X417760Y15180D01*
X417899Y15430D01*
X418121Y15707D01*
X418149Y15735D01*
X418204Y15819D01*
X418316Y15957D01*
X418454Y16152D01*
X418593Y16430D01*
X418760Y16763D01*
X418926Y17152D01*
X419065Y17624D01*
Y17651D01*
X419093Y17679D01*
Y17762D01*
X419121Y17874D01*
X419176Y18123D01*
X419260Y18484D01*
X419343Y18873D01*
X419399Y19345D01*
X419426Y19817D01*
X419454Y20290D01*
Y20317D01*
Y20401D01*
Y20539D01*
X419426Y20706D01*
X419399Y21095D01*
X419315Y21456D01*
Y21484D01*
X419287Y21567D01*
X419232Y21706D01*
X419204Y21845D01*
X419149Y21983D01*
X419121Y22095D01*
X419093Y22206D01*
X419065Y22233D01*
X419038Y22261D01*
X419010Y22372D01*
X418982Y22511D01*
X418954Y22678D01*
Y22705D01*
X418926Y22789D01*
X418899Y22872D01*
X418843Y22928D01*
X418815D01*
X418788Y22900D01*
Y22872D01*
X418760Y22761D01*
Y22733D01*
X418732Y22650D01*
X418704Y22511D01*
X418593Y22289D01*
X418566Y22233D01*
X418510Y22122D01*
X418399Y21983D01*
X418288Y21872D01*
X418232Y21845D01*
X418093Y21734D01*
X417871Y21567D01*
X417594Y21400D01*
X417288Y21206D01*
X416955Y21067D01*
X416649Y20956D01*
X416372Y20900D01*
X416122D01*
X416038Y20928D01*
X415983Y20956D01*
X415844Y20984D01*
X415622Y21067D01*
X415344Y21178D01*
X415066Y21289D01*
X414817Y21400D01*
X414594Y21511D01*
X414456Y21650D01*
X414428Y21678D01*
X414317Y21761D01*
X414122Y21845D01*
X413900Y21900D01*
X413845D01*
X413706Y21928D01*
X413511Y21956D01*
X413289Y22011D01*
X413067Y22067D01*
X412873Y22150D01*
X412734Y22289D01*
X412706Y22344D01*
X412678Y22428D01*
Y22456D01*
X412734Y22567D01*
X412817Y22761D01*
X412900Y22872D01*
X413012Y23011D01*
X413039Y23039D01*
X413067Y23066D01*
X413178Y23261D01*
X413289Y23511D01*
Y23650D01*
Y23788D01*
Y23816D01*
X413261Y23927D01*
X413206Y24038D01*
X413095Y24205D01*
X412956Y24372D01*
X412762Y24510D01*
X412484Y24649D01*
X412151Y24733D01*
X412095D01*
X412012Y24760D01*
X411790D01*
X411734Y24733D01*
X411706Y24649D01*
X411679Y24510D01*
Y24483D01*
X411651Y24372D01*
X411567Y24288D01*
X411456Y24205D01*
X411345D01*
X411234Y24261D01*
X411095Y24344D01*
X411068Y24372D01*
X411012Y24427D01*
X410845Y24483D01*
X410734Y24510D01*
X410596Y24538D01*
X410568D01*
X410540Y24566D01*
X410373Y24594D01*
X410207Y24649D01*
X410123Y24677D01*
X410068Y24705D01*
X410040Y24733D01*
X409957Y24760D01*
X409790Y24788D01*
X409568D01*
X409457Y24816D01*
X409235Y24927D01*
X409096Y24983D01*
X408929Y25094D01*
X408902D01*
X408846Y25149D01*
X408679Y25233D01*
X408485Y25288D01*
X408429D01*
X408374Y25260D01*
X408346Y25233D01*
X408291Y25149D01*
X408207Y25038D01*
X408096Y24899D01*
X407985Y24760D01*
X407846Y24649D01*
X407707Y24566D01*
X407596Y24538D01*
X407485D01*
X407457Y24566D01*
X407430Y24594D01*
X407319Y24622D01*
X407152Y24649D01*
X406930Y24622D01*
X406791D01*
X406680Y24677D01*
X406597Y24760D01*
X406569Y24788D01*
X406513Y24844D01*
X406375Y24899D01*
X406097D01*
X405986Y24871D01*
X405902D01*
X405819Y24844D01*
Y24816D01*
Y24788D01*
X405847Y24705D01*
X405875Y24677D01*
X405902Y24594D01*
X405930Y24510D01*
Y24455D01*
Y24427D01*
X405902Y24316D01*
X405847Y24149D01*
X405708Y23983D01*
X405680Y23955D01*
X405569Y23872D01*
X405403Y23788D01*
X405180Y23761D01*
X405014D01*
X404903Y23816D01*
X404736Y23872D01*
X404542Y24011D01*
X404514Y24038D01*
X404431Y24094D01*
X404319Y24122D01*
X404236Y24094D01*
X404181Y24038D01*
X404153Y24011D01*
X404097Y23955D01*
X404014Y23927D01*
X403986Y23955D01*
Y23983D01*
Y24011D01*
X403959Y23983D01*
X403903Y23927D01*
X403875Y23900D01*
X403792Y23844D01*
X403736Y23816D01*
X403625Y23788D01*
X403486Y23761D01*
X403236D01*
X403125Y23788D01*
X403014D01*
X402709Y23900D01*
X402542Y23955D01*
X402376Y24066D01*
X402348Y24094D01*
X402320Y24122D01*
X402153Y24233D01*
X401987Y24316D01*
X401903Y24372D01*
X401765D01*
X401709Y24427D01*
X401654Y24483D01*
X401570Y24566D01*
X401459Y24705D01*
X401376Y24899D01*
X401265Y25149D01*
X401098Y25566D01*
X400848Y25288D01*
X400820Y25233D01*
X400737Y25149D01*
X400626Y25038D01*
X400571Y25010D01*
X400515Y24983D01*
X400487D01*
X400432Y24955D01*
X400348Y24927D01*
X400210Y24816D01*
X400182Y24788D01*
X400099Y24705D01*
X399960Y24566D01*
X399793Y24372D01*
X399765Y24344D01*
X399682Y24233D01*
X399626Y24149D01*
X399571Y24094D01*
X399543Y24066D01*
X399487Y23983D01*
X399376Y23816D01*
X399265Y23622D01*
X399099Y23316D01*
X398932Y22955D01*
X398765Y22511D01*
X398599Y21983D01*
Y21956D01*
X398571Y21845D01*
X398516Y21706D01*
X398460Y21539D01*
X398432Y21373D01*
X398377Y21234D01*
X398349Y21123D01*
X398321Y21067D01*
Y21039D01*
X398293Y20984D01*
X398266Y20845D01*
X398210Y20623D01*
Y20567D01*
X398182Y20428D01*
X398127Y20262D01*
X398071Y20040D01*
Y20012D01*
X398016Y19929D01*
X397960Y19817D01*
X397849Y19790D01*
X397821D01*
X397766Y19817D01*
X397710D01*
X397682Y19790D01*
X397655Y19762D01*
X397627Y19734D01*
X397599Y19651D01*
Y19623D01*
Y19568D01*
X397571Y19401D01*
Y19373D01*
Y19318D01*
X397544Y19234D01*
X397516Y19123D01*
X397432Y18818D01*
X397322Y18484D01*
Y18457D01*
X397266Y18373D01*
X397238Y18235D01*
X397155Y18040D01*
X397072Y17735D01*
X396960Y17374D01*
X396849Y16902D01*
X396738Y16318D01*
Y16291D01*
X396710Y16235D01*
X396655Y16069D01*
X396599Y15874D01*
X396572Y15819D01*
X396544Y15791D01*
Y15763D01*
X396516Y15735D01*
X396488Y15652D01*
X396433Y15513D01*
X396377Y15319D01*
X396266Y15041D01*
X396155Y14680D01*
Y14652D01*
X396127Y14597D01*
X396100Y14486D01*
X396044Y14319D01*
X396016Y14124D01*
X395961Y13847D01*
X395905Y13541D01*
X395877Y13153D01*
Y13125D01*
Y13069D01*
Y12986D01*
X395850Y12875D01*
X395822Y12597D01*
X395794Y12236D01*
X395739Y11875D01*
X395655Y11486D01*
X395600Y11125D01*
X395516Y10820D01*
Y10792D01*
X395489Y10737D01*
X395461Y10626D01*
X395433Y10514D01*
X395405Y10292D01*
Y10209D01*
Y10153D01*
X395433D01*
X395461Y10126D01*
X395489D01*
X395627Y10181D01*
X395711Y10237D01*
X395850Y10320D01*
X395988Y10431D01*
X396155Y10598D01*
X396183Y10626D01*
X396238Y10681D01*
X396322Y10764D01*
X396461Y10903D01*
X396710Y11209D01*
X396988Y11597D01*
X397016Y11625D01*
X397099Y11709D01*
X397183Y11792D01*
X397238Y11820D01*
X397322D01*
Y11875D01*
Y11903D01*
X397349Y11931D01*
X397405D01*
X397432Y11903D01*
X397488Y11847D01*
X397516Y11820D01*
X397544Y11709D01*
X397571Y11597D01*
Y11459D01*
Y11431D01*
X397544Y11348D01*
Y11209D01*
X397516Y11042D01*
X397488Y10848D01*
Y10598D01*
X397460Y10070D01*
Y10042D01*
Y9959D01*
Y9848D01*
Y9737D01*
X397488Y9459D01*
X397516Y9320D01*
X397544Y9237D01*
X397571Y9182D01*
X397599Y9098D01*
X397655Y8987D01*
X397710Y8932D01*
X397738D01*
X397766Y8959D01*
X397877Y9015D01*
X397988Y9126D01*
X398016Y9154D01*
X398071Y9182D01*
X398238Y9293D01*
X398266Y9320D01*
X398321Y9376D01*
X398432Y9459D01*
X398571Y9598D01*
Y9626D01*
X398627Y9681D01*
X398710Y9765D01*
X398821Y9931D01*
X398849Y9959D01*
X398932Y10070D01*
X399043Y10181D01*
X399127Y10265D01*
Y10292D01*
X399182Y10320D01*
X399265Y10459D01*
X399349Y10598D01*
X399404Y10709D01*
Y10737D01*
X399432Y10792D01*
X399487Y10875D01*
X399571Y10931D01*
X399599D01*
X399654Y10959D01*
X399737D01*
X399793Y10931D01*
Y10903D01*
X399821Y10848D01*
Y10764D01*
X399849Y10653D01*
Y10514D01*
Y10348D01*
Y10292D01*
Y10153D01*
Y9959D01*
Y9737D01*
X399821Y9515D01*
X399793Y9293D01*
X399765Y9098D01*
X399737Y8987D01*
Y8932D01*
X399765D01*
X399821Y8959D01*
X399876Y9015D01*
X399960Y9126D01*
X399987Y9154D01*
X400015Y9182D01*
X400126Y9348D01*
X400265Y9543D01*
X400376Y9737D01*
Y9765D01*
X400404Y9792D01*
X400459Y9904D01*
X400543Y9959D01*
X400598Y9987D01*
X400654Y9959D01*
X400682Y9904D01*
X400709Y9820D01*
Y9709D01*
Y9654D01*
Y9570D01*
X400682Y9431D01*
Y9404D01*
Y9265D01*
Y9098D01*
X400654Y8848D01*
Y8821D01*
Y8793D01*
Y8654D01*
X400626Y8432D01*
Y8209D01*
Y8182D01*
Y8126D01*
Y8015D01*
X400598Y7904D01*
X400571Y7571D01*
X400543Y7182D01*
X400487Y6765D01*
X400404Y6349D01*
X400348Y6016D01*
X400293Y5905D01*
X400265Y5793D01*
Y5766D01*
X400237Y5738D01*
X400210Y5627D01*
X400182Y5488D01*
Y5460D01*
X400210Y5432D01*
X400237D01*
X400293Y5460D01*
X400348Y5488D01*
X400376Y5544D01*
Y5571D01*
X400404Y5627D01*
X400515Y5766D01*
X400571Y5849D01*
X400682Y5988D01*
Y6016D01*
X400737Y6044D01*
X400820Y6182D01*
X400904Y6349D01*
X400959Y6516D01*
Y6543D01*
X400987Y6627D01*
X401015Y6710D01*
X401070Y6765D01*
X401098Y6793D01*
X401126Y6821D01*
X401154Y6877D01*
X401209Y6960D01*
X401293Y7099D01*
X401376Y7265D01*
X401487Y7515D01*
X401515Y7543D01*
X401543Y7626D01*
X401598Y7737D01*
X401654Y7876D01*
X401765Y8154D01*
X401820Y8265D01*
Y8348D01*
Y8376D01*
X401848Y8432D01*
Y8515D01*
X401876Y8626D01*
X401903Y8765D01*
X401959Y8932D01*
Y8959D01*
X401987Y9015D01*
X402042Y9182D01*
X402126Y9348D01*
X402181Y9404D01*
X402237Y9431D01*
X402264D01*
X402348Y9404D01*
X402403Y9376D01*
X402431Y9293D01*
Y9154D01*
Y9126D01*
Y9098D01*
Y9015D01*
X402403Y8904D01*
X402376Y8626D01*
X402292Y8321D01*
Y8293D01*
X402264Y8237D01*
X402237Y8154D01*
X402209Y8043D01*
X402098Y7737D01*
X401959Y7349D01*
Y7321D01*
X401931Y7265D01*
X401903Y7182D01*
X401848Y7071D01*
X401765Y6821D01*
X401737Y6682D01*
X401709Y6599D01*
Y6571D01*
X401681Y6543D01*
X401654Y6377D01*
X401626Y6155D01*
X401598Y5877D01*
Y5849D01*
Y5821D01*
Y5738D01*
X401626Y5599D01*
Y5432D01*
X401654Y5238D01*
X401681Y4961D01*
X401709Y4655D01*
Y4627D01*
Y4572D01*
X401737Y4433D01*
Y4294D01*
Y4127D01*
X401765Y3905D01*
Y3433D01*
Y3405D01*
Y3350D01*
Y3183D01*
X401792Y2989D01*
Y2933D01*
X401820Y2905D01*
X401876Y2961D01*
Y3017D01*
X401903Y3100D01*
X401959Y3211D01*
X401987Y3378D01*
Y3405D01*
X402015Y3433D01*
X402042Y3516D01*
X402098Y3600D01*
X402181Y3739D01*
X402320Y3905D01*
X402487Y4100D01*
X402709Y4322D01*
X402737Y4349D01*
X402820Y4405D01*
X402903Y4488D01*
X402986Y4627D01*
X403014Y4655D01*
X403070Y4738D01*
X403181Y4905D01*
X403292Y5099D01*
X403320Y5155D01*
X403375Y5238D01*
X403459Y5349D01*
X403486Y5432D01*
X403514Y5460D01*
X403542Y5516D01*
X403570Y5655D01*
X403625Y5849D01*
Y5905D01*
X403681Y6016D01*
X403764Y6155D01*
X403875Y6321D01*
X403903Y6349D01*
X403986Y6432D01*
X404097Y6516D01*
X404208Y6543D01*
X404264D01*
Y6516D01*
X404292Y6488D01*
X404319Y6404D01*
Y6321D01*
Y6293D01*
X404292Y6238D01*
X404264Y6099D01*
X404236Y5960D01*
Y5932D01*
X404208Y5849D01*
X404181Y5738D01*
Y5683D01*
Y5655D01*
Y5544D01*
X404125Y5377D01*
X404070Y5155D01*
X404042Y5099D01*
X404014Y4988D01*
Y4849D01*
X404070Y4683D01*
X404097Y4655D01*
X404125Y4544D01*
X404181Y4349D01*
X404236Y4072D01*
Y4044D01*
Y4016D01*
X404264Y3850D01*
X404292Y3711D01*
X404319Y3655D01*
X404347Y3627D01*
X404403Y3683D01*
X404514Y3794D01*
X404569Y3877D01*
X404653Y4016D01*
Y4044D01*
X404708Y4100D01*
X404792Y4238D01*
X404903Y4405D01*
X404958Y4433D01*
X404986Y4461D01*
X405014D01*
X405042Y4488D01*
X405069Y4572D01*
Y4738D01*
Y4766D01*
Y4794D01*
Y4905D01*
X405097Y4988D01*
X405125Y5044D01*
X405180D01*
X405208Y5071D01*
X405236Y5127D01*
X405291Y5183D01*
X405375Y5294D01*
X405458Y5460D01*
X405541Y5655D01*
Y5683D01*
X405597Y5766D01*
X405625Y5877D01*
X405680Y6016D01*
X405791Y6321D01*
X405875Y6599D01*
Y6627D01*
Y6654D01*
X405930Y6765D01*
X406013Y6849D01*
X406069Y6904D01*
X406180D01*
X406263Y6877D01*
X406319Y6821D01*
X406347Y6710D01*
Y6682D01*
X406319Y6543D01*
X406263Y6321D01*
X406152Y6016D01*
Y5988D01*
X406124Y5960D01*
X406097Y5793D01*
X406041Y5627D01*
X406013Y5571D01*
Y5516D01*
Y5488D01*
X406041Y5432D01*
X406069Y5294D01*
X406097Y5183D01*
X406152Y5044D01*
Y5016D01*
X406180Y4961D01*
X406236Y4849D01*
X406263Y4710D01*
X406347Y4433D01*
X406402Y4127D01*
X406486Y3655D01*
X406791Y4016D01*
X406819Y4044D01*
X406847Y4072D01*
X406958Y4238D01*
X407069Y4377D01*
X407124Y4433D01*
Y4461D01*
Y4488D01*
X407180Y4599D01*
X407208Y4710D01*
X407291Y4822D01*
X407374Y4988D01*
X407485Y5183D01*
X407513Y5210D01*
X407541Y5294D01*
X407624Y5377D01*
X407680Y5516D01*
X407846Y5849D01*
X407902Y6016D01*
X407930Y6182D01*
Y6210D01*
Y6238D01*
X407985Y6377D01*
X408041Y6571D01*
X408124Y6738D01*
X408152Y6765D01*
X408180Y6821D01*
X408263Y6849D01*
X408374Y6877D01*
X408457D01*
X408540Y6821D01*
X408624Y6765D01*
Y6738D01*
X408652Y6682D01*
X408624Y6543D01*
X408568Y6321D01*
Y6266D01*
X408513Y6127D01*
X408457Y5988D01*
X408374Y5849D01*
Y5821D01*
Y5793D01*
X408346Y5738D01*
Y5655D01*
Y5516D01*
Y5349D01*
X408374Y5127D01*
Y5071D01*
X408402Y4933D01*
X408429Y4738D01*
X408513Y4516D01*
X408596Y4266D01*
X408707Y4044D01*
X408846Y3850D01*
X409040Y3739D01*
X409068D01*
X409096Y3711D01*
X409235Y3572D01*
X409290Y3461D01*
X409346Y3322D01*
X409374Y3155D01*
X409401Y2961D01*
Y2905D01*
X409374Y2794D01*
X409318Y2683D01*
X409179Y2600D01*
X409152D01*
X409096Y2655D01*
X409040Y2711D01*
X408985Y2850D01*
Y2878D01*
X408957Y2961D01*
X408846Y3100D01*
X408790Y3211D01*
X408679Y3322D01*
Y3350D01*
X408624Y3378D01*
X408540Y3516D01*
X408457Y3683D01*
X408402Y3794D01*
Y3822D01*
X408291D01*
X408263Y3877D01*
X408180Y3961D01*
X408152Y4044D01*
X408096Y4155D01*
Y4183D01*
X408068Y4211D01*
X408041Y4349D01*
X407985Y4516D01*
X407957Y4710D01*
Y4738D01*
X407930Y4849D01*
X407902Y4933D01*
X407874Y4905D01*
X407846Y4877D01*
X407791Y4794D01*
X407680Y4655D01*
X407569Y4461D01*
X407402Y4211D01*
Y4183D01*
X407374Y4155D01*
X407263Y3988D01*
X407096Y3766D01*
X406902Y3516D01*
X406708Y3266D01*
X406486Y3044D01*
X406291Y2878D01*
X406208Y2850D01*
X406124Y2822D01*
X406097Y2850D01*
X406069D01*
X406041Y2878D01*
X406013Y2905D01*
X405986Y2961D01*
X405958Y3017D01*
Y3044D01*
Y3100D01*
X405986Y3183D01*
Y3266D01*
Y3405D01*
X406013Y3572D01*
Y3600D01*
Y3627D01*
X406041Y3766D01*
X406013Y3961D01*
X405958Y4127D01*
X405930Y4155D01*
X405902Y4266D01*
X405875Y4377D01*
X405847Y4516D01*
Y4544D01*
Y4599D01*
X405791Y4627D01*
X405736Y4655D01*
X405708D01*
X405653Y4627D01*
X405569Y4599D01*
X405430Y4516D01*
X405403Y4488D01*
X405347Y4433D01*
X405291Y4322D01*
X405264Y4238D01*
Y4211D01*
X405208Y4155D01*
X405180Y4072D01*
X405097Y3961D01*
X405014Y3822D01*
X404875Y3627D01*
X404847Y3600D01*
X404819Y3544D01*
X404736Y3433D01*
X404653Y3322D01*
X404458Y3072D01*
X404375Y2961D01*
X404292Y2878D01*
X404264Y2822D01*
X404153Y2739D01*
X404014Y2655D01*
X403847Y2600D01*
X403764D01*
X403709Y2628D01*
X403653Y2655D01*
Y2711D01*
X403681Y2767D01*
X403709Y2905D01*
Y2961D01*
X403736Y3072D01*
X403764Y3294D01*
Y3600D01*
Y3627D01*
Y3683D01*
Y3794D01*
Y3905D01*
X403709Y4127D01*
X403681Y4211D01*
X403653Y4266D01*
X403625Y4294D01*
X403570Y4349D01*
X403514Y4433D01*
X403486Y4544D01*
Y4572D01*
Y4599D01*
X403459Y4572D01*
X403431Y4544D01*
X403403Y4488D01*
X403375Y4405D01*
X403348Y4377D01*
X403292Y4266D01*
X403153Y4100D01*
X402959Y3961D01*
X402931Y3933D01*
X402820Y3850D01*
X402653Y3683D01*
X402542Y3572D01*
X402431Y3433D01*
Y3405D01*
X402376Y3378D01*
X402292Y3211D01*
X402181Y2989D01*
X402153Y2878D01*
X402126Y2794D01*
Y2767D01*
X402098Y2711D01*
X402015Y2628D01*
X401848Y2600D01*
X401737D01*
X401626Y2628D01*
X401570Y2683D01*
Y2711D01*
X401543Y2767D01*
X401515Y2905D01*
X401487Y3100D01*
Y3128D01*
Y3183D01*
X401459Y3350D01*
Y3378D01*
Y3433D01*
X401431Y3600D01*
X401376Y3683D01*
Y3739D01*
Y3794D01*
Y3877D01*
X401348Y4016D01*
X401320Y4211D01*
X401293Y4488D01*
X401265Y4794D01*
Y4822D01*
X401237Y4933D01*
Y5099D01*
X401209Y5266D01*
X401154Y5432D01*
X401126Y5599D01*
X401098Y5710D01*
X401043Y5738D01*
X400987Y5710D01*
X400932Y5627D01*
X400848Y5460D01*
Y5432D01*
X400765Y5322D01*
X400626Y5183D01*
X400543Y5099D01*
X400404Y5016D01*
X400376D01*
X400348Y4961D01*
X400182Y4877D01*
X399987Y4794D01*
X399793Y4738D01*
X399765Y4766D01*
X399737Y4794D01*
X399710Y4849D01*
Y4877D01*
Y4933D01*
Y5016D01*
Y5127D01*
Y5155D01*
X399737Y5238D01*
X399793Y5349D01*
X399849Y5460D01*
X399876Y5488D01*
X399904Y5599D01*
X399960Y5738D01*
X400015Y5960D01*
X400071Y6238D01*
X400099Y6599D01*
X400154Y6988D01*
Y7460D01*
Y7626D01*
Y7654D01*
X400126Y7765D01*
X400099Y7876D01*
Y8043D01*
Y8071D01*
Y8154D01*
X400043Y8265D01*
X399987Y8376D01*
X399960Y8404D01*
X399932Y8432D01*
X399849D01*
X399737Y8376D01*
X399682Y8348D01*
X399654Y8321D01*
X399599Y8293D01*
X399571D01*
X399543Y8321D01*
X399515Y8376D01*
X399487Y8460D01*
X399460Y8598D01*
X399432Y8765D01*
X399404Y9015D01*
X399376Y9709D01*
X398682Y9015D01*
X398654Y8987D01*
X398571Y8904D01*
X398460Y8821D01*
X398349Y8709D01*
X398210Y8571D01*
X398071Y8487D01*
X397960Y8404D01*
X397905Y8376D01*
X397877D01*
X397849Y8348D01*
Y8321D01*
Y8293D01*
X397877Y8265D01*
X397849Y8182D01*
X397794Y8071D01*
X397766Y8043D01*
X397682Y7987D01*
X397571Y7960D01*
X397516Y7987D01*
X397460Y8015D01*
X397432Y8043D01*
X397405Y8099D01*
X397349Y8209D01*
X397322Y8348D01*
Y8404D01*
Y8515D01*
X397266Y8654D01*
X397210Y8765D01*
Y8793D01*
X397155Y8848D01*
X397127Y8987D01*
X397072Y9154D01*
X397016Y9348D01*
X396988Y9626D01*
X396933Y9931D01*
Y10292D01*
Y10848D01*
X396794Y10542D01*
X396766Y10487D01*
X396710Y10431D01*
X396627Y10348D01*
X396544Y10237D01*
X396377Y10126D01*
X396183Y9987D01*
X395961Y9820D01*
X395933Y9792D01*
X395850Y9737D01*
X395739Y9681D01*
X395627Y9598D01*
X395489Y9487D01*
X395378Y9404D01*
X395294Y9348D01*
X395267Y9293D01*
Y9265D01*
X395239Y9237D01*
X395183Y9265D01*
X395155D01*
X395100Y9293D01*
X394989Y9265D01*
X394850Y9182D01*
X394739D01*
X394628Y9209D01*
X394600Y9265D01*
Y9293D01*
Y9320D01*
X394628Y9459D01*
X394655Y9598D01*
X394711Y9709D01*
X394739Y9765D01*
X394794Y9848D01*
X394822Y9987D01*
X394905Y10209D01*
X394989Y10487D01*
X395017Y10681D01*
X395072Y10903D01*
X395128Y11125D01*
X395183Y11403D01*
Y11431D01*
X395211Y11486D01*
Y11625D01*
X395239Y11792D01*
X395267Y12014D01*
X395294Y12319D01*
X395322Y12708D01*
X395350Y13153D01*
Y13180D01*
Y13208D01*
Y13375D01*
X395378Y13625D01*
Y13902D01*
X395405Y14152D01*
X395433Y14402D01*
Y14569D01*
X395461Y14597D01*
Y14624D01*
X395516Y14680D01*
X395572Y14791D01*
X395627Y14874D01*
X395683Y14985D01*
Y15013D01*
X395711Y15041D01*
X395794Y15208D01*
X395877Y15402D01*
X395933Y15624D01*
Y15652D01*
Y15680D01*
X395961Y15763D01*
Y15846D01*
Y15985D01*
X395988Y16152D01*
Y16346D01*
Y16374D01*
Y16457D01*
Y16568D01*
X396016Y16735D01*
X396044Y17096D01*
X396072Y17540D01*
Y17568D01*
Y17624D01*
X396100Y17735D01*
Y17846D01*
X396155Y18068D01*
Y18123D01*
X396183Y18179D01*
Y18207D01*
X396238Y18235D01*
X396266Y18318D01*
X396322Y18457D01*
X396405Y18623D01*
X396461Y18818D01*
X396544Y19068D01*
X396599Y19345D01*
Y19373D01*
X396655Y19484D01*
X396683Y19623D01*
X396738Y19817D01*
X396794Y20040D01*
X396822Y20317D01*
X396877Y20873D01*
Y20928D01*
Y21039D01*
X396905Y21178D01*
X396960Y21317D01*
X396988Y21345D01*
X397016Y21428D01*
X397044Y21539D01*
X397072Y21706D01*
Y21734D01*
Y21845D01*
X397099Y21983D01*
X397127Y22178D01*
X397155Y22539D01*
X397210Y22733D01*
X397238Y22872D01*
Y22900D01*
X397266Y22955D01*
X397294Y23039D01*
X397349Y23178D01*
X397432Y23372D01*
X397544Y23594D01*
X397655Y23900D01*
X397821Y24233D01*
X397849Y24261D01*
X397877Y24372D01*
X397960Y24510D01*
X398043Y24677D01*
X398099Y24844D01*
X398182Y24983D01*
X398210Y25094D01*
X398238Y25149D01*
Y25177D01*
X398266Y25205D01*
X398321Y25316D01*
X398405Y25427D01*
X398432Y25455D01*
X398488Y25566D01*
X398571Y25649D01*
Y25760D01*
Y25788D01*
X398599Y25844D01*
X398654Y25927D01*
X398765Y26010D01*
X398793Y26038D01*
X398877Y26093D01*
X398960Y26177D01*
X398988Y26232D01*
Y26260D01*
X399015Y26371D01*
X399043Y26538D01*
X399127Y26788D01*
Y26815D01*
X399154Y26843D01*
X399210Y26982D01*
X399293Y27149D01*
X399321Y27204D01*
X399376Y27260D01*
X399404Y27288D01*
X399432Y27343D01*
X399460Y27426D01*
X399487Y27482D01*
Y27510D01*
X399515Y27538D01*
X399543Y27621D01*
X399626Y27704D01*
X399654Y27732D01*
X399710Y27815D01*
X399737Y27898D01*
X399793Y28010D01*
X399849Y28148D01*
X399932Y28315D01*
Y28343D01*
X399987Y28398D01*
X400015Y28482D01*
X400099Y28620D01*
X400237Y28870D01*
X400404Y29148D01*
Y29176D01*
X400432Y29204D01*
X400543Y29342D01*
X400654Y29454D01*
X400737Y29481D01*
X400793Y29509D01*
X400848D01*
X400904Y29537D01*
X400987Y29592D01*
X401098Y29648D01*
X401237Y29759D01*
X401431Y29898D01*
X401681Y30092D01*
X401709Y30120D01*
X401765Y30148D01*
X401876Y30231D01*
X402015Y30342D01*
X402209Y30481D01*
X402431Y30620D01*
X402681Y30786D01*
X402986Y30953D01*
X403014Y30981D01*
X403125Y31036D01*
X403264Y31120D01*
X403459Y31203D01*
X403820Y31370D01*
X403959Y31425D01*
X404070Y31453D01*
X404403Y31731D01*
X404458D01*
X404542Y31758D01*
X404597D01*
X404708Y31814D01*
X404847Y31842D01*
X405014Y31897D01*
X405042D01*
X405097Y31925D01*
X405291Y31981D01*
X405486Y32036D01*
X405569Y32064D01*
X405653D01*
X405680Y32092D01*
X405791Y32120D01*
X405902Y32147D01*
X405986Y32203D01*
X406041Y32231D01*
X406152Y32286D01*
X406319Y32314D01*
X406569Y32369D01*
X406736Y32397D01*
X406958Y32425D01*
X407180Y32453D01*
X407457Y32480D01*
X407763Y32508D01*
X408096Y32536D01*
X409679D01*
X409818Y32564D01*
X411262D01*
X411651Y32536D01*
D02*
G37*
G36*
X228706Y273735D02*
X227029D01*
Y278661D01*
X228706D01*
Y273735D01*
D02*
G37*
G36*
X307523Y235943D02*
X297877D01*
Y238600D01*
X307523D01*
Y235943D01*
D02*
G37*
%LPC*%
G36*
X407096Y23427D02*
X407069D01*
X407041Y23400D01*
Y23316D01*
X407069Y23261D01*
X407124Y23178D01*
X407180Y23122D01*
X407263Y23039D01*
X407374Y22928D01*
X407402Y22900D01*
X407457Y22844D01*
X407513Y22761D01*
X407624Y22650D01*
X407763Y22428D01*
X407819Y22317D01*
X407846Y22206D01*
Y22178D01*
X407819Y22150D01*
X407763Y22067D01*
X407652Y21983D01*
X407624D01*
X407513Y22011D01*
X407430Y22067D01*
X407319Y22150D01*
X407180Y22289D01*
X407013Y22456D01*
X406513Y22955D01*
X406319Y22733D01*
Y22705D01*
X406263Y22650D01*
X406124Y22483D01*
X405958Y22317D01*
X405902Y22233D01*
X405819Y22206D01*
X405791D01*
Y22178D01*
X405763Y22122D01*
X405819Y22039D01*
X405902D01*
X405958Y22067D01*
X406013Y22122D01*
X406097Y22233D01*
X406152Y22372D01*
X406458Y22150D01*
X406486D01*
X406541Y22095D01*
X406680Y21956D01*
X406847Y21734D01*
X406874Y21622D01*
X406902Y21484D01*
Y21428D01*
X406847Y21345D01*
X406819D01*
X406791Y21317D01*
X406680Y21289D01*
X406541Y21317D01*
X406513Y21345D01*
X406458Y21373D01*
X406375Y21428D01*
X406347Y21511D01*
Y21539D01*
Y21567D01*
X406291Y21622D01*
X406152D01*
X406124Y21678D01*
Y21706D01*
Y21761D01*
X406097Y21817D01*
X406041Y21845D01*
X406013Y21817D01*
Y21789D01*
Y21706D01*
Y21678D01*
Y21622D01*
X405958Y21567D01*
X405902Y21511D01*
X405819Y21484D01*
X405791D01*
X405680Y21511D01*
X405597Y21539D01*
X405486Y21622D01*
X405375Y21734D01*
X405264Y21900D01*
X405236Y21872D01*
X405208Y21817D01*
X405069Y21650D01*
X404930Y21400D01*
X404819Y21178D01*
Y21150D01*
Y21067D01*
Y20956D01*
X404903Y20900D01*
X404930D01*
X404986Y20928D01*
X405042Y20984D01*
X405097Y21095D01*
X405125Y21123D01*
X405236Y21206D01*
X405403D01*
X405541Y21150D01*
X405680Y21067D01*
X405708Y21039D01*
X405763Y21012D01*
X405930Y20817D01*
X406013Y20706D01*
X406069Y20595D01*
X406097Y20456D01*
X406069Y20345D01*
X406041Y20317D01*
X406013Y20234D01*
X405902Y20206D01*
X405847Y20178D01*
X405763Y20206D01*
X405736Y20234D01*
X405653Y20290D01*
X405541Y20428D01*
X405403Y20623D01*
X405375Y20651D01*
X405347Y20706D01*
X405291D01*
X405264Y20651D01*
X405236Y20595D01*
Y20567D01*
X405180Y20484D01*
X405097Y20428D01*
X404930Y20373D01*
X404792D01*
X404708Y20428D01*
X404653Y20512D01*
X404625D01*
X404542Y20456D01*
X404486Y20401D01*
X404431Y20317D01*
Y20290D01*
X404403Y20262D01*
X404375Y20206D01*
X404319Y20067D01*
X404264Y19901D01*
Y19790D01*
X404292Y19706D01*
X404319Y19679D01*
X404347Y19595D01*
X404375Y19484D01*
X404347Y19429D01*
X404319Y19373D01*
X404292Y19345D01*
X404236D01*
X404125Y19318D01*
X403986Y19373D01*
X403959Y19401D01*
X403875Y19429D01*
X403764Y19456D01*
X403681Y19429D01*
Y19401D01*
Y19373D01*
Y19290D01*
X403764Y19151D01*
X403792Y19123D01*
X403931Y19068D01*
X404014Y19040D01*
X404153Y19012D01*
X404319D01*
X404514Y19040D01*
X404542D01*
X404597Y19068D01*
X404764Y19095D01*
X404903Y19151D01*
X404958Y19179D01*
X404986Y19207D01*
X404875Y19290D01*
X404847Y19318D01*
X404792Y19373D01*
X404736Y19512D01*
X404625Y19679D01*
X404597Y19734D01*
X404569Y19817D01*
Y19929D01*
X404597Y19984D01*
X404653Y20012D01*
X404680D01*
X404764Y19984D01*
X404930Y19929D01*
X405125Y19790D01*
X405153D01*
X405180Y19762D01*
X405291Y19679D01*
X405403Y19568D01*
X405458Y19512D01*
Y19456D01*
Y19429D01*
X405486Y19401D01*
X405514Y19429D01*
X405569Y19484D01*
X405653Y19568D01*
X405819Y19734D01*
X406013Y19984D01*
X406152Y20123D01*
X406319Y20317D01*
X406513Y20512D01*
X406708Y20762D01*
X406736Y20789D01*
X406763Y20817D01*
X406902Y20984D01*
X407096Y21206D01*
X407346Y21456D01*
X407624Y21706D01*
X407902Y21928D01*
X408152Y22095D01*
X408263Y22122D01*
X408374Y22150D01*
X408402Y22178D01*
Y22233D01*
Y22317D01*
Y22344D01*
Y22428D01*
X408374Y22539D01*
X408318Y22705D01*
Y22733D01*
X408291Y22817D01*
X408263Y22928D01*
X408207Y22983D01*
X408180Y23011D01*
X408152Y23039D01*
Y23122D01*
Y23233D01*
Y23261D01*
X407846D01*
X407791Y23233D01*
X407680Y23205D01*
X407596D01*
X407457Y23178D01*
X407402D01*
X407374Y23205D01*
X407346Y23261D01*
Y23289D01*
X407291Y23344D01*
X407208Y23400D01*
X407096Y23427D01*
D02*
G37*
G36*
X411679Y22178D02*
X411595D01*
X411512Y22150D01*
X411429Y22095D01*
X411401Y22067D01*
X411373Y22011D01*
X411290Y21983D01*
X411095D01*
X410984Y21956D01*
X410818Y21900D01*
X410790Y21872D01*
X410679Y21817D01*
X410540Y21734D01*
X410429Y21622D01*
X410401Y21595D01*
Y21539D01*
Y21484D01*
X410457Y21456D01*
X410484Y21484D01*
X410540Y21511D01*
X410596Y21567D01*
X410623Y21595D01*
X410707Y21622D01*
X410818Y21678D01*
X410984Y21706D01*
X411234D01*
X411290Y21650D01*
Y21622D01*
X411317Y21567D01*
Y21456D01*
X411290Y21289D01*
X411262Y21261D01*
X411206Y21178D01*
X411123Y21095D01*
X410984D01*
X410901Y21123D01*
X410790D01*
X410707Y21095D01*
X410623Y20984D01*
X410568Y20928D01*
Y20817D01*
Y20789D01*
Y20706D01*
X410596Y20567D01*
X410651Y20401D01*
Y20373D01*
X410679Y20317D01*
X410707Y20234D01*
X410734Y20123D01*
X410762Y19845D01*
X410790Y19484D01*
Y19262D01*
Y19040D01*
Y18984D01*
Y18873D01*
X410818Y18679D01*
X410845Y18457D01*
X410901Y18235D01*
X410984Y18012D01*
X411095Y17818D01*
X411262Y17679D01*
X411290Y17651D01*
X411373Y17624D01*
X411567D01*
X411595Y17596D01*
X411623Y17568D01*
X411679Y17485D01*
X411817Y17374D01*
Y17401D01*
Y17457D01*
X411790Y17540D01*
Y17568D01*
Y17651D01*
X411845Y17735D01*
X411901Y17762D01*
X411984Y17818D01*
X412012D01*
X412040Y17846D01*
X412151Y17874D01*
X412262Y17929D01*
X412317Y17985D01*
X412345Y18012D01*
X412401Y18068D01*
X412484Y18123D01*
X412595D01*
X412650Y18096D01*
X412678Y18040D01*
X412706Y17901D01*
Y17874D01*
X412678Y17762D01*
X412567Y17596D01*
X412512Y17513D01*
X412401Y17429D01*
X412373Y17401D01*
X412289Y17318D01*
X412206Y17179D01*
X412151Y17040D01*
Y17013D01*
X412178Y16957D01*
X412234Y16874D01*
X412373Y16818D01*
X412401D01*
X412428Y16791D01*
Y16818D01*
Y16874D01*
X412401Y16929D01*
Y16957D01*
X412373Y17040D01*
X412401Y17124D01*
X412456Y17235D01*
X412484Y17263D01*
X412567D01*
X412595Y17207D01*
Y17179D01*
X412623Y17152D01*
X412678Y17124D01*
X412762Y17096D01*
X412789D01*
X412873Y17124D01*
X412984Y17152D01*
X413067Y17207D01*
X413095Y17235D01*
X413123Y17290D01*
X413150Y17318D01*
X413123Y17346D01*
X413095Y17374D01*
X413067Y17401D01*
X413012Y17457D01*
X412984Y17540D01*
X412928Y17707D01*
X412900Y17901D01*
Y18179D01*
Y18207D01*
Y18262D01*
Y18373D01*
X412873Y18484D01*
X412817Y18790D01*
X412678Y19068D01*
Y19095D01*
X412623Y19179D01*
X412595Y19318D01*
X412539Y19484D01*
X412484Y19679D01*
X412428Y19901D01*
X412373Y20373D01*
Y20401D01*
Y20428D01*
X412345Y20595D01*
X412317Y20817D01*
X412262Y21067D01*
X412206Y21373D01*
X412123Y21622D01*
X412040Y21845D01*
X411929Y22011D01*
Y22039D01*
X411873Y22067D01*
X411762Y22150D01*
X411679Y22178D01*
D02*
G37*
G36*
X409013Y21317D02*
X408624D01*
X408457Y21289D01*
X408263Y21261D01*
X408124Y21206D01*
X408013Y21150D01*
X407985Y21067D01*
Y21039D01*
Y21012D01*
X407957Y20984D01*
X407902Y20956D01*
X407874D01*
X407763Y20900D01*
X407707Y20845D01*
X407596Y20789D01*
X407513Y20678D01*
X407402Y20539D01*
Y20512D01*
X407346Y20484D01*
X407263Y20290D01*
X407124Y20040D01*
X407013Y19762D01*
Y19734D01*
X406958Y19623D01*
X406930Y19456D01*
X406874Y19262D01*
X406791Y19068D01*
X406736Y18901D01*
X406680Y18734D01*
X406652Y18651D01*
X406513Y18123D01*
X406069Y18179D01*
X405986D01*
X405819Y18207D01*
X405653Y18262D01*
X405597D01*
X405569Y18290D01*
X405541Y18318D01*
X405458Y18373D01*
X405291Y18429D01*
X405069Y18401D01*
X405042D01*
X405014Y18373D01*
Y18346D01*
Y18290D01*
Y18262D01*
X404986Y18235D01*
X404958D01*
X404875Y18207D01*
X404375D01*
X404264Y18235D01*
X404181Y18290D01*
X404125Y18346D01*
X404097Y18373D01*
X403986D01*
X403959Y18346D01*
X403875D01*
X403764Y18373D01*
X403570Y18457D01*
X403292Y18623D01*
X403264Y18651D01*
X403236Y18679D01*
X403098Y18790D01*
X402959Y18957D01*
X402931Y19040D01*
X402903Y19095D01*
Y19123D01*
X402848Y19151D01*
X402792Y19179D01*
X402626D01*
X402514Y19151D01*
X402320Y19095D01*
X402264D01*
X402153Y19068D01*
X402042Y19040D01*
X401903D01*
X401820Y19012D01*
X401709Y18984D01*
X401487Y18929D01*
X401376Y18901D01*
X401320Y18845D01*
X401293Y18818D01*
X401237Y18734D01*
X401209Y18651D01*
X401154Y18540D01*
X401126Y18373D01*
X401070Y18207D01*
Y18179D01*
Y18123D01*
X401043Y17929D01*
X401015Y17735D01*
Y17624D01*
Y17568D01*
Y17540D01*
Y17485D01*
X401043Y17401D01*
Y17290D01*
X401126Y17040D01*
X401293Y16846D01*
X401320D01*
X401348Y16818D01*
X401431Y16763D01*
X401543Y16735D01*
X401681Y16679D01*
X401876Y16624D01*
X402098Y16596D01*
X402348Y16568D01*
X402542D01*
X402681Y16541D01*
X402903Y16513D01*
X403014Y16457D01*
X403070Y16430D01*
X403098Y16402D01*
X403125Y16318D01*
X403153Y16235D01*
X403181Y16124D01*
X403209Y15957D01*
X403236Y15791D01*
Y15735D01*
X403264Y15624D01*
X403292Y15402D01*
X403375Y15124D01*
X403486Y14791D01*
X403625Y14375D01*
X403847Y13930D01*
X404097Y13430D01*
X404125Y13402D01*
X404153Y13347D01*
X404264Y13153D01*
X404403Y12930D01*
X404486Y12847D01*
X404542Y12792D01*
X404569Y12764D01*
X404625Y12736D01*
X404653Y12680D01*
X404680Y12625D01*
Y12597D01*
X404736Y12514D01*
X404764Y12431D01*
X404847Y12319D01*
X404930Y12153D01*
X405042Y11986D01*
Y11958D01*
X405069Y11931D01*
X405125Y11847D01*
X405208Y11736D01*
X405291Y11597D01*
X405375Y11431D01*
X405486Y11236D01*
X405625Y11014D01*
Y10987D01*
X405653Y10959D01*
X405736Y10820D01*
X405847Y10653D01*
X405930Y10626D01*
X405986Y10598D01*
X406013Y10542D01*
X406097Y10431D01*
X406152Y10348D01*
X406208Y10209D01*
Y10181D01*
X406236Y10153D01*
X406291Y10015D01*
X406402Y9848D01*
X406486Y9820D01*
X406541Y9792D01*
X406569D01*
X406624Y9820D01*
X406736Y9931D01*
X406847Y10015D01*
X406958Y10098D01*
X407096Y10237D01*
X407263Y10403D01*
X407457Y10598D01*
X407707Y10848D01*
X407957Y11125D01*
X408291Y11459D01*
X408624Y11847D01*
X409013Y12292D01*
X409040Y12319D01*
X409124Y12403D01*
X409235Y12542D01*
X409374Y12680D01*
X409513Y12819D01*
X409624Y12958D01*
X409735Y13041D01*
X409818Y13069D01*
X409901D01*
X409929Y13097D01*
X409957Y13125D01*
Y13153D01*
X410012Y13208D01*
X410068Y13264D01*
X410123Y13319D01*
X410234Y13375D01*
X410373Y13458D01*
X410401D01*
X410429Y13486D01*
X410623Y13625D01*
X410873Y13791D01*
X411179Y14041D01*
X411206Y14069D01*
X411262Y14097D01*
X411345Y14180D01*
X411484Y14263D01*
X411651Y14319D01*
X411845Y14402D01*
X412067Y14430D01*
X412317Y14458D01*
X412623D01*
X412789Y14430D01*
X412984D01*
X413206Y14402D01*
X413484Y14375D01*
X413817D01*
X414094Y14402D01*
X414233Y14458D01*
X414372Y14513D01*
X414400Y14541D01*
X414483Y14597D01*
X414622Y14708D01*
X414761Y14874D01*
X414872Y15069D01*
X415011Y15319D01*
X415094Y15624D01*
X415122Y15957D01*
Y15985D01*
Y16013D01*
X415094Y16152D01*
X415066Y16318D01*
X414983Y16485D01*
X414955Y16541D01*
X414900Y16596D01*
X414789Y16679D01*
X414761Y16707D01*
X414706Y16763D01*
X414622Y16846D01*
X414567Y16929D01*
X414511Y16985D01*
X414400Y17068D01*
X414233Y17152D01*
X414150Y17179D01*
X414067Y17152D01*
X414039Y17124D01*
X413956Y17040D01*
X413872Y16902D01*
X413845Y16679D01*
Y16652D01*
Y16624D01*
Y16485D01*
X413817Y16318D01*
X413789Y16180D01*
X413761Y16152D01*
X413733Y16124D01*
X413650Y16096D01*
X413539D01*
X413511Y16124D01*
X413484Y16152D01*
X413428Y16263D01*
X413400Y16374D01*
X413373Y16541D01*
X413317Y16513D01*
X413261Y16457D01*
X413150Y16346D01*
X413095Y16318D01*
X412984Y16235D01*
X412817Y16124D01*
X412623Y16096D01*
X412567D01*
X412484Y16124D01*
X412373Y16152D01*
X412262Y16207D01*
X412095Y16318D01*
X411956Y16430D01*
X411790Y16596D01*
X411762Y16624D01*
X411706Y16679D01*
X411540Y16846D01*
X411317Y16985D01*
X411206Y17040D01*
X411123Y17068D01*
X411095D01*
X410984Y17096D01*
X410845Y17124D01*
X410679Y17179D01*
X410651Y17207D01*
X410568Y17263D01*
X410484Y17318D01*
X410457Y17374D01*
X410429Y17429D01*
X410346Y17513D01*
X410207Y17651D01*
X410179Y17679D01*
X410096Y17818D01*
X410040Y17985D01*
Y18207D01*
Y18262D01*
X410068Y18346D01*
Y18457D01*
X410040Y18512D01*
X410012Y18484D01*
X409957Y18373D01*
X409901Y18290D01*
X409846Y18179D01*
Y18151D01*
X409818Y18123D01*
Y18096D01*
X409790Y18040D01*
X409762Y17929D01*
X409735Y17818D01*
X409707Y17679D01*
Y17568D01*
X409735Y17457D01*
X409818Y17346D01*
X409846Y17318D01*
X409901Y17263D01*
X409929Y17124D01*
X409957Y16957D01*
Y16902D01*
X409929Y16791D01*
X409901Y16652D01*
X409818Y16568D01*
X409790Y16541D01*
X409762Y16513D01*
X409707Y16430D01*
X409679Y16291D01*
Y16263D01*
X409651Y16152D01*
X409596Y16013D01*
X409457Y15819D01*
X409429Y15791D01*
X409401Y15763D01*
X409318Y15680D01*
X409207Y15569D01*
X409068Y15430D01*
X408929Y15263D01*
X408513Y14874D01*
X408485Y14847D01*
X408429Y14791D01*
X408318Y14708D01*
X408207Y14597D01*
X407985Y14402D01*
X407902Y14347D01*
X407846Y14319D01*
X407791D01*
X407735Y14263D01*
X407707Y14208D01*
Y14180D01*
Y14152D01*
X407652D01*
X407624Y14208D01*
Y14236D01*
Y14263D01*
X407596Y14402D01*
Y14430D01*
X407624Y14486D01*
X407652Y14569D01*
X407707Y14680D01*
X407735Y14708D01*
X407763Y14763D01*
X407791Y14847D01*
Y14902D01*
Y14930D01*
X407819Y14985D01*
X407846Y15069D01*
X407874Y15180D01*
X407957Y15346D01*
X408041Y15541D01*
X408180Y15819D01*
X408207Y15846D01*
X408235Y15930D01*
X408291Y16069D01*
X408374Y16263D01*
X408513Y16652D01*
X408624Y17096D01*
Y17124D01*
X408652Y17207D01*
X408679Y17346D01*
X408707Y17568D01*
X408735Y17818D01*
X408790Y18151D01*
X408818Y18540D01*
X408846Y19012D01*
Y19040D01*
Y19123D01*
X408874Y19262D01*
Y19429D01*
X408929Y19817D01*
X408985Y19984D01*
X409040Y20151D01*
X409068Y20178D01*
X409096Y20234D01*
X409207Y20373D01*
X409290Y20428D01*
X409346Y20456D01*
X409429Y20484D01*
X409457Y20428D01*
Y20401D01*
X409485Y20345D01*
X409513Y20262D01*
X409596Y20151D01*
X409651Y20095D01*
X409679Y20012D01*
X409735Y19901D01*
X409818Y19734D01*
X409873Y19512D01*
X409957Y19262D01*
X410012Y18929D01*
Y18901D01*
X410040Y18818D01*
Y18734D01*
X410068Y18679D01*
X410096D01*
X410123Y18707D01*
X410179Y18901D01*
Y18929D01*
Y18957D01*
Y19040D01*
Y19151D01*
Y19179D01*
X410207Y19262D01*
Y19345D01*
Y19429D01*
Y19456D01*
Y19540D01*
Y19651D01*
X410179Y19762D01*
X410151Y19817D01*
X410096Y19929D01*
X410040Y20123D01*
X410012Y20345D01*
Y20373D01*
Y20456D01*
X409985Y20539D01*
X409957Y20567D01*
X409929D01*
X409901Y20595D01*
X409873Y20651D01*
X409846Y20734D01*
Y20762D01*
Y20789D01*
X409790Y20873D01*
X409735Y20956D01*
X409651Y21067D01*
X409485Y21150D01*
X409290Y21234D01*
X409013Y21317D01*
D02*
G37*
G36*
X412040Y17346D02*
X411929D01*
X411901Y17318D01*
Y17290D01*
X411929Y17263D01*
X411956Y17235D01*
X412012D01*
X412040Y17263D01*
Y17318D01*
Y17346D01*
D02*
G37*
G36*
X413150Y17040D02*
X413123D01*
X413095Y17013D01*
X413039Y16957D01*
X413012Y16929D01*
X412956Y16902D01*
X412928Y16874D01*
X412873Y16846D01*
Y16791D01*
Y16763D01*
X412956D01*
X412984Y16791D01*
X413067Y16818D01*
X413123Y16902D01*
Y16929D01*
X413150Y16957D01*
Y16985D01*
Y17013D01*
Y17040D01*
D02*
G37*
%LPD*%
G36*
X412095Y18901D02*
X412178Y18818D01*
X412206Y18651D01*
Y18623D01*
Y18596D01*
X412178Y18457D01*
X412095Y18290D01*
X412012Y18262D01*
X411929Y18235D01*
X411901D01*
X411873Y18207D01*
X411790Y18179D01*
X411651Y18096D01*
X411623Y18068D01*
X411540Y18040D01*
X411456Y17985D01*
X411345D01*
X411317Y18040D01*
X411262Y18123D01*
Y18235D01*
Y18262D01*
X411290Y18346D01*
X411345Y18457D01*
X411456Y18540D01*
X411484Y18568D01*
X411595Y18623D01*
X411679Y18707D01*
X411762Y18790D01*
Y18818D01*
X411817Y18873D01*
X411873Y18901D01*
X411956Y18929D01*
X411984D01*
X412095Y18901D01*
D02*
G37*
G36*
X412123Y19956D02*
X412151Y19901D01*
X412178Y19845D01*
Y19790D01*
Y19679D01*
Y19623D01*
X412151Y19512D01*
X412067Y19373D01*
X412012Y19345D01*
X411956Y19318D01*
X411873D01*
X411790Y19290D01*
X411679Y19262D01*
X411595D01*
X411401Y19234D01*
X411345Y19262D01*
X411290Y19318D01*
X411234Y19429D01*
X411206Y19456D01*
X411179Y19512D01*
Y19595D01*
Y19651D01*
X411206Y19679D01*
X411262Y19706D01*
X411373Y19762D01*
X411567Y19845D01*
X411623Y19873D01*
X411734Y19929D01*
X411873Y19956D01*
X411984Y19984D01*
X412067D01*
X412123Y19956D01*
D02*
G37*
G36*
X412067Y21039D02*
X412095Y21012D01*
Y20928D01*
Y20817D01*
Y20762D01*
X412040Y20678D01*
X411956Y20595D01*
X411790Y20539D01*
X411706D01*
X411567Y20484D01*
X411373Y20428D01*
X411317Y20401D01*
X411234Y20373D01*
X410984D01*
X410956Y20401D01*
X410929Y20456D01*
X410901Y20567D01*
Y20762D01*
Y20789D01*
X410929Y20817D01*
X411040Y20900D01*
X411095Y20928D01*
X411206Y20956D01*
X411234D01*
X411262Y20984D01*
X411401Y21012D01*
X411595Y21039D01*
X411762Y21067D01*
X412012D01*
X412067Y21039D01*
D02*
G37*
G36*
X401848Y18235D02*
X402042Y18151D01*
X402181Y18096D01*
X402348Y18012D01*
X402376D01*
X402431Y17957D01*
X402542Y17901D01*
X402653Y17846D01*
X402931Y17735D01*
X403042Y17707D01*
X403125Y17679D01*
X403153D01*
X403236Y17651D01*
X403320Y17624D01*
X403375Y17568D01*
X403403Y17540D01*
X403486Y17429D01*
X403625Y17263D01*
X403764Y17152D01*
X403903Y17013D01*
X403931Y16985D01*
X403959Y16957D01*
X404042Y16846D01*
X404153Y16735D01*
X404264Y16596D01*
X404431Y16402D01*
X404597Y16180D01*
X404764Y15902D01*
X404792Y15874D01*
X404847Y15791D01*
X404930Y15680D01*
X405014Y15513D01*
X405208Y15235D01*
X405291Y15124D01*
X405347Y15041D01*
X405375Y15013D01*
X405403Y14958D01*
X405486Y14874D01*
X405569Y14763D01*
X405763Y14486D01*
X405930Y14208D01*
X405958Y14152D01*
X406041Y14014D01*
X406152Y13791D01*
X406291Y13569D01*
X406430Y13347D01*
X406597Y13125D01*
X406736Y12986D01*
X406791Y12958D01*
X406847Y12930D01*
X406874D01*
X406985Y12986D01*
X407096Y13014D01*
X407208Y13069D01*
X407374Y13153D01*
X407569Y13264D01*
X407596Y13292D01*
X407652Y13319D01*
X407763Y13402D01*
X407902Y13486D01*
X408152Y13653D01*
X408263Y13763D01*
X408374Y13847D01*
X408402Y13875D01*
X408429D01*
X408485Y13930D01*
X408596Y13986D01*
X408735Y14041D01*
X408902Y14152D01*
X409152Y14263D01*
X409179Y14291D01*
X409263Y14319D01*
X409401Y14402D01*
X409540Y14458D01*
X409679Y14541D01*
X409818Y14624D01*
X409901Y14680D01*
X409957Y14708D01*
X410012Y14736D01*
X410123Y14791D01*
X410290Y14874D01*
X410484Y14985D01*
X410651Y15097D01*
X410818Y15180D01*
X410929Y15263D01*
X410984Y15291D01*
X410901Y15319D01*
X410929Y15346D01*
X410984Y15374D01*
X411068Y15402D01*
X411206Y15430D01*
X411373Y15485D01*
X411623Y15541D01*
X411651D01*
X411734Y15569D01*
X411873Y15596D01*
X412040Y15652D01*
X412428Y15707D01*
X412595Y15735D01*
X412762Y15763D01*
X412900D01*
X413012Y15791D01*
X413178D01*
X413345Y15819D01*
X413484Y15846D01*
X413595D01*
X413650Y15874D01*
X413678D01*
X413706Y15902D01*
X413761Y15930D01*
X413817Y15902D01*
X413872D01*
X413928Y15874D01*
X413956Y15902D01*
X413983Y15985D01*
Y16013D01*
X414011Y16069D01*
X414067Y16124D01*
X414150Y16207D01*
X414178Y16235D01*
X414261Y16263D01*
X414345Y16291D01*
X414428D01*
X414456Y16263D01*
Y16180D01*
Y16041D01*
Y16013D01*
Y15930D01*
Y15791D01*
X414428Y15624D01*
X414400Y15208D01*
X414289Y14791D01*
Y14763D01*
X414233Y14680D01*
X414150Y14624D01*
X414011Y14597D01*
X413983D01*
X413872Y14652D01*
X413733Y14763D01*
X413567Y14902D01*
Y14930D01*
X413511Y14958D01*
X413400Y15069D01*
X413206Y15152D01*
X413095Y15208D01*
X412817D01*
X412595Y15180D01*
X412373Y15152D01*
X412095Y15097D01*
X411790Y14985D01*
X411512Y14874D01*
X411262Y14708D01*
X411206Y14680D01*
X411068Y14569D01*
X410873Y14402D01*
X410651Y14208D01*
X410429Y14041D01*
X410234Y13847D01*
X410096Y13708D01*
X410068Y13653D01*
X410040Y13625D01*
Y13597D01*
Y13569D01*
X410012Y13541D01*
X409985Y13514D01*
X409957D01*
X409901Y13486D01*
X409762Y13375D01*
X409651Y13292D01*
X409513Y13180D01*
X408763Y12569D01*
X408707Y12542D01*
X408568Y12431D01*
X408374Y12236D01*
X408124Y12014D01*
X407846Y11736D01*
X407569Y11403D01*
X407291Y11042D01*
X407069Y10653D01*
X407041Y10626D01*
X406985Y10542D01*
X406874Y10459D01*
X406736Y10431D01*
X406708D01*
X406652Y10459D01*
X406541Y10542D01*
X406458Y10681D01*
X406430Y10709D01*
X406375Y10820D01*
X406291Y10959D01*
X406124Y11181D01*
X406097Y11236D01*
X406041Y11292D01*
X405986Y11403D01*
X405875Y11542D01*
X405763Y11709D01*
X405597Y11958D01*
X405403Y12236D01*
X405375Y12264D01*
X405319Y12375D01*
X405236Y12514D01*
X405153Y12653D01*
X405042Y12819D01*
X404958Y12958D01*
X404903Y13069D01*
X404875Y13125D01*
Y13153D01*
X404847Y13208D01*
X404736Y13319D01*
X404680Y13402D01*
X404569Y13514D01*
X404542Y13541D01*
X404486Y13653D01*
X404375Y13791D01*
X404264Y13958D01*
X404153Y14152D01*
X404042Y14347D01*
X403986Y14513D01*
X403959Y14680D01*
Y14708D01*
Y14736D01*
X403931Y14763D01*
X403903Y14791D01*
X403875D01*
X403847Y14819D01*
Y14847D01*
Y14902D01*
Y14930D01*
X403875Y14985D01*
Y15013D01*
Y15069D01*
X403847Y15152D01*
X403820Y15263D01*
X403764Y15430D01*
X403681Y15652D01*
X403570Y15902D01*
X403403Y16207D01*
X403375Y16235D01*
X403320Y16346D01*
X403236Y16513D01*
X403153Y16679D01*
X403014Y16874D01*
X402903Y17040D01*
X402764Y17179D01*
X402653Y17290D01*
X402626D01*
X402598Y17318D01*
X402459Y17374D01*
X402403Y17401D01*
X402320D01*
X402264Y17429D01*
X402237Y17457D01*
X402209Y17513D01*
X402126Y17596D01*
X401959Y17818D01*
X402015Y17429D01*
Y17374D01*
Y17290D01*
Y17152D01*
X401959Y17068D01*
X401931D01*
X401876Y17040D01*
X401737Y17013D01*
X401515D01*
X401431Y17040D01*
X401320Y17096D01*
X401265Y17179D01*
Y17207D01*
Y17290D01*
Y17429D01*
X401320Y17596D01*
X401348Y17624D01*
X401376Y17679D01*
X401431Y17762D01*
X401459Y17901D01*
Y17929D01*
X401487Y18012D01*
X401515Y18096D01*
X401543Y18179D01*
Y18207D01*
X401570Y18235D01*
X401626Y18262D01*
X401737D01*
X401848Y18235D01*
D02*
G37*
G36*
X405736Y16985D02*
X405763Y16929D01*
X405819Y16791D01*
X405875Y16679D01*
X405902Y16541D01*
Y16513D01*
X405930Y16485D01*
X405958Y16346D01*
X405986Y16152D01*
Y15985D01*
Y15957D01*
X406013Y15874D01*
X406041Y15819D01*
X406097Y15763D01*
X406124D01*
X406180Y15707D01*
X406208Y15596D01*
X406236Y15513D01*
Y15402D01*
Y15346D01*
Y15208D01*
X406263Y15041D01*
X406319Y14819D01*
Y14791D01*
Y14736D01*
Y14541D01*
Y14513D01*
Y14458D01*
X406291Y14402D01*
X406236Y14347D01*
X406180Y14319D01*
X406124Y14347D01*
X406069Y14375D01*
X406041Y14402D01*
X405986Y14486D01*
X405930Y14541D01*
X405875Y14652D01*
X405791Y14791D01*
X405708Y14985D01*
Y15013D01*
X405680Y15069D01*
X405625Y15180D01*
X405597Y15319D01*
X405486Y15596D01*
X405430Y15874D01*
Y15902D01*
Y15957D01*
X405375Y16124D01*
X405347Y16318D01*
X405291Y16513D01*
Y16541D01*
Y16596D01*
X405319Y16707D01*
X405403Y16846D01*
X405430Y16874D01*
X405514Y16957D01*
X405597Y17013D01*
X405708D01*
X405736Y16985D01*
D02*
G37*
%LPC*%
G36*
X411012Y32092D02*
X410596D01*
X410540Y32064D01*
X410512D01*
X410457Y32036D01*
X410151D01*
X409873Y32008D01*
X408679D01*
X408513Y31981D01*
X408318D01*
X407846Y31953D01*
X407319Y31897D01*
X406763Y31814D01*
X406180Y31703D01*
X405597Y31564D01*
X405569D01*
X405541Y31536D01*
X405375Y31509D01*
X405125Y31398D01*
X404847Y31286D01*
X404542Y31148D01*
X404264Y30981D01*
X404014Y30814D01*
X403847Y30592D01*
X403820Y30564D01*
X403792Y30509D01*
X403736Y30453D01*
X403681Y30426D01*
X403597Y30398D01*
X403486Y30314D01*
X403375Y30231D01*
X403264Y30148D01*
X403236D01*
X403209Y30092D01*
X403070Y29981D01*
X402848Y29815D01*
X402626Y29592D01*
X402570Y29537D01*
X402459Y29454D01*
X402348Y29370D01*
X402292Y29315D01*
X402264Y29287D01*
X402181Y29231D01*
X402070Y29120D01*
X402042Y29037D01*
Y29009D01*
X402015Y28926D01*
X401959Y28843D01*
X401820Y28732D01*
X401792Y28704D01*
X401709Y28565D01*
X401681Y28482D01*
X401626Y28343D01*
X401570Y28176D01*
X401543Y27982D01*
Y27954D01*
Y27898D01*
Y27732D01*
Y27648D01*
Y27593D01*
X401570Y27565D01*
X401598D01*
X401626Y27593D01*
X401681Y27676D01*
X401765Y27787D01*
X401903Y27954D01*
X402070Y28121D01*
X402264Y28287D01*
X402459Y28454D01*
X402709Y28593D01*
X402737D01*
X402792Y28620D01*
X402876Y28648D01*
X402986Y28704D01*
X403153Y28732D01*
X403348Y28787D01*
X403597Y28815D01*
X403847Y28843D01*
X403903D01*
X404014Y28870D01*
X404458D01*
X404569Y28843D01*
X404708Y28815D01*
X404875Y28732D01*
X404903D01*
X404930Y28704D01*
X405069Y28620D01*
X405180Y28537D01*
X405236Y28509D01*
X405291D01*
X405319Y28482D01*
X405347Y28454D01*
Y28371D01*
Y28343D01*
X405403Y28287D01*
X405486Y28148D01*
X405569Y28065D01*
X405680Y27954D01*
X405708D01*
X405736Y27898D01*
X405847Y27787D01*
X405986Y27676D01*
X406041Y27648D01*
X406069Y27621D01*
X406152D01*
X406236Y27593D01*
X406319Y27538D01*
X406375Y27510D01*
X406430Y27482D01*
X406513Y27454D01*
X406652Y27399D01*
X406791Y27315D01*
X406985Y27232D01*
X407235Y27121D01*
X407263D01*
X407346Y27065D01*
X407457Y27038D01*
X407624Y26982D01*
X407902Y26899D01*
X408013Y26843D01*
X408096D01*
X408124Y26815D01*
X408207Y26788D01*
X408291Y26732D01*
X408457Y26621D01*
X408652Y26510D01*
X408902Y26343D01*
X408929Y26316D01*
X409013Y26260D01*
X409152Y26177D01*
X409318Y26093D01*
X409457Y26010D01*
X409596Y25927D01*
X409735Y25871D01*
X409790Y25844D01*
X409873D01*
X409929Y25816D01*
X409957Y25760D01*
Y25732D01*
X410040Y25677D01*
X410096Y25621D01*
X410179Y25594D01*
X410318Y25566D01*
X410901D01*
X411206Y25594D01*
X411373D01*
X411484Y25621D01*
X412484D01*
X412678Y25677D01*
X412706D01*
X412734Y25705D01*
X412817D01*
X412928Y25732D01*
X413095Y25760D01*
X413289D01*
X413539Y25788D01*
X414400D01*
X414650Y25760D01*
X414872Y25732D01*
X415066Y25705D01*
X415205Y25677D01*
X415261Y25649D01*
X415400Y25621D01*
X415622D01*
X415900Y25649D01*
X415927D01*
X415983Y25677D01*
X416066D01*
X416177Y25705D01*
X416483D01*
X416872Y25649D01*
X416899D01*
X416983Y25621D01*
X417122D01*
X417260Y25594D01*
X417566Y25566D01*
X417677Y25538D01*
X417843D01*
X417955Y25566D01*
X418066Y25621D01*
X418149Y25705D01*
X418260Y25816D01*
X418316Y25982D01*
X418343Y26204D01*
Y26454D01*
Y26482D01*
Y26566D01*
Y26760D01*
X418316Y27010D01*
Y27038D01*
Y27065D01*
X418288Y27232D01*
Y27426D01*
X418260Y27565D01*
Y27593D01*
Y27648D01*
X418232Y27760D01*
X418177Y27871D01*
X418121Y28037D01*
X418038Y28204D01*
X417927Y28398D01*
X417760Y28593D01*
X417732Y28620D01*
X417677Y28676D01*
X417594Y28787D01*
X417483Y28898D01*
X417260Y29120D01*
X417177Y29231D01*
X417122Y29287D01*
X417066Y29315D01*
X416927Y29426D01*
X416705Y29592D01*
X416455Y29787D01*
X416150Y29981D01*
X415844Y30203D01*
X415539Y30398D01*
X415261Y30564D01*
X415233D01*
X415205Y30592D01*
X415122Y30620D01*
X415011Y30676D01*
X414733Y30786D01*
X414428Y30925D01*
X414067Y31064D01*
X413706Y31203D01*
X413400Y31314D01*
X413123Y31398D01*
X413095D01*
X413012Y31425D01*
X412928Y31453D01*
X412817Y31509D01*
X412678Y31564D01*
X412595Y31620D01*
X412512Y31731D01*
X412484Y31814D01*
Y31842D01*
Y31925D01*
X412456Y31981D01*
X412401Y32008D01*
X412289Y32036D01*
X411540D01*
X411429Y32064D01*
X411095D01*
X411012Y32092D01*
D02*
G37*
G36*
X416288Y25122D02*
X416150D01*
X415983Y25094D01*
X415844Y25066D01*
X415816Y25038D01*
X415705Y25010D01*
X415539Y24955D01*
X415372Y24871D01*
X415011Y24677D01*
X414844Y24594D01*
X414733Y24510D01*
X414706Y24483D01*
X414650Y24427D01*
X414567Y24344D01*
X414483Y24205D01*
X414400Y24038D01*
X414317Y23844D01*
X414261Y23650D01*
X414233Y23400D01*
Y23372D01*
Y23289D01*
X414261Y23261D01*
Y23205D01*
Y23178D01*
X414289Y23094D01*
X414317Y22983D01*
X414345Y22872D01*
X414372Y22761D01*
X414428Y22650D01*
X414511Y22567D01*
X414567Y22539D01*
X414622D01*
X414650Y22483D01*
X414678Y22428D01*
Y22372D01*
X414706Y22317D01*
X414761Y22261D01*
X414844Y22178D01*
X414955Y22067D01*
X415122Y21956D01*
X415344Y21817D01*
X415372D01*
X415455Y21761D01*
X415594Y21706D01*
X415761Y21650D01*
X416150Y21539D01*
X416344Y21511D01*
X416538Y21484D01*
X416705D01*
X416760Y21511D01*
X416872Y21539D01*
X417010Y21595D01*
X417177Y21678D01*
X417371Y21789D01*
X417538Y21928D01*
X417732Y22095D01*
X417760Y22122D01*
X417816Y22178D01*
X417899Y22289D01*
X418010Y22400D01*
X418204Y22705D01*
X418288Y22900D01*
X418316Y23066D01*
Y23094D01*
X418343Y23178D01*
Y23289D01*
Y23427D01*
Y23455D01*
Y23483D01*
X418288Y23650D01*
X418232Y23761D01*
X418149Y23927D01*
X418038Y24094D01*
X417899Y24288D01*
X417871Y24316D01*
X417843Y24372D01*
X417705Y24538D01*
X417538Y24705D01*
X417510Y24760D01*
X417483Y24788D01*
X417455Y24844D01*
X417371Y24899D01*
X417205Y24983D01*
X417177D01*
X417149Y25010D01*
X417066Y25038D01*
X416955Y25066D01*
X416649Y25094D01*
X416288Y25122D01*
D02*
G37*
G36*
X413317Y22789D02*
X413261D01*
X413234Y22733D01*
X413206Y22678D01*
Y22650D01*
X413178Y22539D01*
Y22511D01*
X413206D01*
X413234Y22483D01*
X413289Y22539D01*
X413317Y22567D01*
X413345Y22594D01*
X413373Y22678D01*
Y22733D01*
Y22761D01*
X413317Y22789D01*
D02*
G37*
G36*
X413567Y22622D02*
X413539D01*
Y22594D01*
X413511Y22539D01*
X413567Y22456D01*
X413678Y22400D01*
X413733D01*
X413761Y22372D01*
X413789D01*
Y22400D01*
Y22428D01*
X413761Y22483D01*
X413733Y22511D01*
X413706Y22567D01*
X413623Y22594D01*
X413567Y22622D01*
D02*
G37*
G36*
X413511Y22928D02*
Y22900D01*
X413539Y22844D01*
X413595Y22789D01*
X413650Y22733D01*
X413678Y22761D01*
X413623Y22817D01*
X413595Y22872D01*
X413511Y22928D01*
D02*
G37*
G36*
X404070Y28287D02*
X403986D01*
X403903Y28260D01*
X403764Y28232D01*
X403653D01*
X403542Y28204D01*
X403431D01*
X403348Y28176D01*
X403209Y28121D01*
X403070Y28065D01*
X402876Y27954D01*
X402653Y27815D01*
X402459Y27621D01*
X402237Y27371D01*
X402209Y27343D01*
X402153Y27260D01*
X402070Y27121D01*
X401987Y26926D01*
X401876Y26704D01*
X401792Y26482D01*
X401737Y26204D01*
X401709Y25927D01*
Y25899D01*
Y25871D01*
X401737Y25705D01*
X401765Y25510D01*
X401820Y25316D01*
Y25288D01*
X401876Y25233D01*
X401931Y25149D01*
X402070Y25038D01*
X402237Y24927D01*
X402459Y24788D01*
X402764Y24705D01*
X403153Y24622D01*
X403181D01*
X403264Y24594D01*
X403459Y24566D01*
X403542D01*
X403625Y24538D01*
X403709D01*
X403764Y24566D01*
X403903Y24594D01*
X404125Y24649D01*
X404153D01*
X404208Y24677D01*
X404292Y24733D01*
X404403Y24788D01*
X404653Y24927D01*
X404986Y25149D01*
X405014Y25177D01*
X405069Y25205D01*
X405208Y25344D01*
X405375Y25538D01*
X405430Y25621D01*
X405458Y25705D01*
Y25732D01*
X405486Y25816D01*
Y25982D01*
X405514Y26093D01*
Y26232D01*
Y26260D01*
Y26288D01*
X405541Y26454D01*
X405569Y26621D01*
X405597Y26677D01*
Y26732D01*
Y26760D01*
X405625Y26815D01*
X405597Y26871D01*
X405541Y26954D01*
X405486Y27038D01*
X405430Y27093D01*
X405347Y27204D01*
X405236Y27343D01*
X405097Y27510D01*
X405069Y27538D01*
X405042Y27593D01*
X404958Y27704D01*
X404875Y27787D01*
X404708Y28010D01*
X404625Y28093D01*
X404542Y28148D01*
X404486Y28176D01*
X404375Y28232D01*
X404236Y28260D01*
X404070Y28287D01*
D02*
G37*
G36*
X405097Y24594D02*
X405042D01*
X404930Y24566D01*
X404819Y24538D01*
X404764Y24455D01*
Y24427D01*
Y24399D01*
X404819Y24344D01*
X404903Y24288D01*
X404930D01*
X404958Y24261D01*
X405125D01*
X405264Y24288D01*
X405347Y24344D01*
X405403Y24399D01*
X405375Y24427D01*
X405347Y24483D01*
X405236Y24566D01*
X405097Y24594D01*
D02*
G37*
%LPD*%
G36*
X411734Y30481D02*
X411956Y30426D01*
X411984D01*
X412012Y30398D01*
X412151Y30314D01*
X412262Y30259D01*
X412373Y30148D01*
X412484Y30009D01*
X412595Y29842D01*
X412623Y29815D01*
X412678Y29704D01*
X412789Y29565D01*
X412900Y29426D01*
X413039Y29259D01*
X413150Y29120D01*
X413289Y29009D01*
X413373Y28982D01*
X413400D01*
Y29037D01*
X413956Y28232D01*
X413983Y28176D01*
Y28148D01*
X414011Y28065D01*
X414067Y27954D01*
X414206Y27787D01*
X414233Y27760D01*
X414261Y27732D01*
X414372Y27593D01*
X414483Y27371D01*
X414539Y27260D01*
Y27121D01*
Y27093D01*
Y27038D01*
X414483Y26954D01*
X414428Y26899D01*
X414400D01*
X414317Y26926D01*
X414233Y26954D01*
X414122Y26982D01*
X413956Y27065D01*
X413789Y27149D01*
X413761D01*
X413706Y27204D01*
X413623Y27232D01*
X413511Y27288D01*
X413261Y27343D01*
X413150D01*
X413039Y27315D01*
X412984Y27288D01*
X412845Y27260D01*
X412789D01*
X412734Y27288D01*
X412706D01*
Y27260D01*
Y27232D01*
X412734Y27204D01*
X412817Y27121D01*
X412956Y27010D01*
X412984Y26982D01*
X413095Y26926D01*
X413178Y26871D01*
X413206Y26815D01*
Y26788D01*
X413178Y26704D01*
Y26649D01*
Y26566D01*
Y26538D01*
Y26510D01*
X413123Y26399D01*
X413067Y26316D01*
X412956Y26260D01*
X412845Y26232D01*
X412678Y26204D01*
X412650D01*
X412567Y26232D01*
X412401Y26260D01*
X412206Y26343D01*
X412151Y26371D01*
X411790D01*
X411512Y26316D01*
X411484D01*
X411373Y26288D01*
X411206Y26260D01*
X410984Y26232D01*
X410818D01*
X410651Y26260D01*
X410401Y26316D01*
X410151Y26371D01*
X409901Y26482D01*
X409651Y26649D01*
X409401Y26843D01*
X409346Y26871D01*
X409207Y26954D01*
X408985Y27038D01*
X408679Y27093D01*
X408596D01*
X408402Y27121D01*
X408180Y27176D01*
X408096Y27204D01*
X408013Y27232D01*
X407985Y27260D01*
X407957Y27343D01*
X407902Y27454D01*
Y27593D01*
Y27621D01*
X407930Y27732D01*
X408013Y27843D01*
X408124Y27954D01*
X408152Y27982D01*
X408207Y28093D01*
Y28148D01*
X408180Y28176D01*
X408096Y28232D01*
X407930Y28260D01*
X407874D01*
X407680Y28315D01*
X407457Y28398D01*
X407180Y28509D01*
X407124Y28537D01*
X407013Y28648D01*
X406902Y28787D01*
X406874Y28870D01*
X406847Y28954D01*
X406874Y29009D01*
X406902Y29037D01*
X406985Y29093D01*
X407096Y29148D01*
X407291Y29204D01*
X407541Y29231D01*
X407874Y29259D01*
X407930D01*
X408041Y29287D01*
X408207Y29315D01*
X408402Y29342D01*
X408624Y29398D01*
X408790Y29481D01*
X408957Y29620D01*
X409040Y29759D01*
X409068Y29815D01*
X409124Y29842D01*
X409179Y29926D01*
X409290Y29981D01*
X409429Y30064D01*
X409624Y30176D01*
X409873Y30259D01*
X409901D01*
X410012Y30314D01*
X410151Y30342D01*
X410346Y30398D01*
X410568Y30453D01*
X410790Y30481D01*
X411317Y30537D01*
X411540D01*
X411734Y30481D01*
D02*
G37*
%LPC*%
G36*
X412539Y26843D02*
X412401D01*
X412345Y26788D01*
X412317Y26732D01*
X412373Y26704D01*
X412456Y26732D01*
X412595Y26788D01*
X412567Y26815D01*
X412539Y26843D01*
D02*
G37*
G36*
X408735Y27732D02*
X408652D01*
X408624Y27704D01*
X408596Y27648D01*
Y27621D01*
Y27593D01*
X408624Y27538D01*
X408679Y27510D01*
X408707D01*
X408735Y27538D01*
X408763Y27565D01*
Y27648D01*
Y27676D01*
Y27704D01*
X408735Y27732D01*
D02*
G37*
G36*
X408374Y27648D02*
X408346D01*
X408318Y27621D01*
Y27565D01*
Y27538D01*
X408346Y27510D01*
X408374D01*
X408402Y27565D01*
Y27593D01*
Y27621D01*
X408374Y27648D01*
D02*
G37*
G36*
X411095Y29787D02*
X410540D01*
X410318Y29731D01*
X410096Y29676D01*
X410068D01*
X410040Y29648D01*
X409901Y29565D01*
X409818Y29481D01*
X409707Y29370D01*
X409624Y29231D01*
X409513Y29065D01*
Y29037D01*
X409485Y28982D01*
X409429Y28898D01*
X409401Y28787D01*
X409290Y28509D01*
X409263Y28204D01*
Y28148D01*
X409290Y28037D01*
X409346Y27871D01*
X409457Y27732D01*
X409485Y27704D01*
X409568Y27621D01*
X409651Y27538D01*
X409679Y27426D01*
Y27399D01*
X409707Y27343D01*
X409735Y27260D01*
X409818Y27232D01*
X409901D01*
X409929Y27204D01*
X409957Y27149D01*
X409985Y27121D01*
X410012Y27093D01*
X410068Y27038D01*
X410179Y26982D01*
X410346Y26926D01*
X410596Y26871D01*
X410901Y26788D01*
X411123D01*
X411234Y26815D01*
X411345Y26843D01*
X411484Y26899D01*
X411651Y27010D01*
X411845Y27121D01*
X412012Y27288D01*
X412040Y27315D01*
X412095Y27371D01*
X412151Y27482D01*
X412262Y27621D01*
X412401Y27982D01*
X412456Y28176D01*
X412484Y28371D01*
Y28398D01*
X412456Y28509D01*
X412428Y28676D01*
X412317Y28898D01*
Y28926D01*
X412289Y28954D01*
X412206Y29120D01*
X412095Y29315D01*
X411956Y29481D01*
X411929Y29509D01*
X411901Y29537D01*
X411817Y29592D01*
X411706Y29648D01*
X411540Y29704D01*
X411345Y29731D01*
X411095Y29787D01*
D02*
G37*
%LPD*%
G36*
X411262Y29120D02*
X411290Y29093D01*
Y29065D01*
Y29009D01*
X411262Y28898D01*
X411179Y28787D01*
X411151Y28759D01*
X411123Y28676D01*
X411068Y28537D01*
Y28343D01*
Y28315D01*
X411123Y28232D01*
X411234Y28148D01*
X411290D01*
X411373Y28176D01*
X411429Y28204D01*
X411512D01*
X411623Y28232D01*
X411651D01*
X411734Y28260D01*
X412040D01*
X412095Y28204D01*
X412123Y28148D01*
Y28121D01*
X412067Y27982D01*
X412012Y27898D01*
X411956Y27787D01*
X411845Y27648D01*
X411706Y27510D01*
X411679Y27482D01*
X411651Y27454D01*
X411484Y27315D01*
X411262Y27176D01*
X411123Y27149D01*
X410984Y27121D01*
X410929D01*
X410762Y27149D01*
X410596D01*
X410429Y27176D01*
X410401D01*
X410346Y27204D01*
X410290Y27260D01*
Y27315D01*
Y27343D01*
Y27371D01*
Y27399D01*
X410262D01*
X410207Y27371D01*
X410151Y27343D01*
X410123Y27371D01*
X410068Y27399D01*
Y27426D01*
X410040Y27482D01*
X410012Y27565D01*
X409957Y27704D01*
Y27732D01*
X409929Y27760D01*
X409901Y27926D01*
X409929Y28148D01*
X409957Y28287D01*
X410012Y28426D01*
X410040Y28454D01*
X410068Y28537D01*
X410096Y28620D01*
X410068Y28704D01*
X410012Y28732D01*
X410068Y28787D01*
X410123Y28815D01*
X410179Y28843D01*
X410290Y28898D01*
X410429Y28954D01*
X410457D01*
X410512Y28982D01*
X410679Y29065D01*
X410901Y29120D01*
X411123Y29148D01*
X411206D01*
X411262Y29120D01*
D02*
G37*
%LPC*%
G36*
X410290Y27815D02*
X410262Y27760D01*
X410290Y27732D01*
X410318D01*
X410346Y27760D01*
Y27787D01*
X410290Y27815D01*
D02*
G37*
G36*
X410040Y28093D02*
X409985D01*
X409957Y28065D01*
Y28037D01*
X410012Y28010D01*
X410040D01*
Y28065D01*
Y28093D01*
D02*
G37*
G36*
X410707Y27426D02*
X410679Y27399D01*
X410707Y27343D01*
X410734Y27288D01*
X410790Y27232D01*
X410818Y27260D01*
X410790Y27315D01*
X410707Y27426D01*
D02*
G37*
G36*
X411040Y27315D02*
X410956D01*
X410929Y27288D01*
Y27260D01*
X410984Y27232D01*
X411012D01*
X411040Y27288D01*
Y27315D01*
D02*
G37*
%LPD*%
G36*
X416261Y24538D02*
X416316Y24455D01*
X416344Y24288D01*
Y24261D01*
Y24177D01*
Y24066D01*
X416316Y23983D01*
Y23955D01*
Y23900D01*
X416288Y23816D01*
Y23705D01*
X416261Y23483D01*
X416288Y23400D01*
Y23344D01*
Y23316D01*
X416344Y23289D01*
X416427Y23261D01*
X416538Y23233D01*
X416566D01*
X416677Y23261D01*
X416816Y23289D01*
X416955Y23344D01*
X416983Y23372D01*
X417066Y23427D01*
X417177Y23455D01*
X417288Y23483D01*
X417344D01*
X417455Y23400D01*
X417510Y23344D01*
X417566Y23233D01*
X417621Y23094D01*
Y22900D01*
Y22844D01*
X417594Y22733D01*
X417566Y22594D01*
X417483Y22400D01*
X417344Y22206D01*
X417122Y22067D01*
X416844Y21956D01*
X416455Y21900D01*
X416150D01*
X416038Y21928D01*
X415872D01*
X415761Y21956D01*
X415733D01*
X415705Y21983D01*
X415622Y22039D01*
X415539Y22122D01*
X415511Y22150D01*
X415455Y22206D01*
X415289Y22372D01*
Y22400D01*
X415233Y22428D01*
X415178Y22483D01*
X415122Y22594D01*
X415066Y22705D01*
X415011Y22872D01*
X414983Y23039D01*
X414955Y23261D01*
Y23289D01*
X414983Y23344D01*
X415011Y23455D01*
X415066Y23622D01*
X415150Y23788D01*
X415316Y23955D01*
X415511Y24177D01*
X415789Y24372D01*
X415844Y24399D01*
X415955Y24483D01*
X416066Y24538D01*
X416177Y24566D01*
X416205D01*
X416261Y24538D01*
D02*
G37*
%LPC*%
G36*
X416566Y22150D02*
X416538Y22095D01*
X416566Y22067D01*
X416594D01*
X416622Y22095D01*
Y22122D01*
X416566Y22150D01*
D02*
G37*
G36*
X415705Y22400D02*
X415650D01*
Y22372D01*
X415677Y22317D01*
X415705Y22289D01*
X415733Y22233D01*
X415761Y22178D01*
X415816D01*
X415844Y22233D01*
X415816Y22289D01*
X415761Y22372D01*
X415705Y22400D01*
D02*
G37*
G36*
X416177Y22150D02*
X416150D01*
X416122Y22095D01*
X416177Y22067D01*
X416205D01*
Y22095D01*
Y22122D01*
X416177Y22150D01*
D02*
G37*
G36*
X416011Y22233D02*
X415955D01*
X415927Y22178D01*
X415955Y22150D01*
X416038D01*
Y22178D01*
Y22206D01*
X416011Y22233D01*
D02*
G37*
G36*
X416760D02*
X416733D01*
X416705Y22178D01*
X416760Y22150D01*
X416788D01*
X416816Y22178D01*
Y22206D01*
X416760Y22233D01*
D02*
G37*
G36*
X415122Y22928D02*
X415066D01*
X415039Y22900D01*
Y22872D01*
X415094Y22844D01*
X415122D01*
Y22900D01*
Y22928D01*
D02*
G37*
G36*
X415539Y22428D02*
X415455D01*
X415427Y22400D01*
Y22372D01*
X415455Y22344D01*
X415539D01*
Y22400D01*
Y22428D01*
D02*
G37*
G36*
X415344Y22761D02*
X415289D01*
X415261Y22733D01*
X415233Y22678D01*
X415205Y22622D01*
X415178Y22594D01*
X415205Y22567D01*
X415233Y22594D01*
X415261D01*
X415289Y22622D01*
X415316Y22678D01*
X415344Y22705D01*
Y22733D01*
Y22761D01*
D02*
G37*
%LPD*%
G36*
X403903Y27787D02*
X404070Y27760D01*
X404125Y27704D01*
X404153Y27648D01*
Y27621D01*
X404125Y27565D01*
X404070Y27426D01*
X403959Y27288D01*
X403931Y27232D01*
X403847Y27093D01*
X403736Y26899D01*
X403709Y26649D01*
Y26593D01*
X403736Y26482D01*
X403792Y26343D01*
X403903Y26232D01*
X403959D01*
X404014Y26204D01*
X404208D01*
X404319Y26232D01*
X404431D01*
X404653Y26316D01*
X404736Y26399D01*
X404792Y26482D01*
X404819Y26510D01*
X404875Y26593D01*
X404930Y26649D01*
X404986D01*
X405014Y26621D01*
X405069Y26427D01*
Y26399D01*
Y26343D01*
X405042Y26232D01*
X405014Y26093D01*
X404930Y25927D01*
X404847Y25732D01*
X404708Y25538D01*
X404542Y25316D01*
X404514Y25288D01*
X404458Y25205D01*
X404375Y25094D01*
X404347Y25066D01*
X404319Y25010D01*
X404236Y24927D01*
X404153Y24844D01*
X404125D01*
X404097Y24816D01*
X403903D01*
X403875Y24871D01*
X403847Y24955D01*
X403875Y25010D01*
X403903Y25066D01*
X403931Y25094D01*
Y25122D01*
X403875Y25094D01*
X403820Y25066D01*
X403709Y25010D01*
X403514D01*
X403431Y25038D01*
X403320Y25094D01*
X403292Y25122D01*
X403264Y25177D01*
X403236Y25233D01*
X403209D01*
X403181Y25205D01*
X403098Y25149D01*
X402986D01*
X402931Y25177D01*
X402848Y25233D01*
X402820Y25260D01*
X402792Y25316D01*
Y25371D01*
X402848Y25455D01*
Y25482D01*
X402876Y25510D01*
X402903Y25538D01*
Y25566D01*
X402876D01*
X402848Y25538D01*
X402737D01*
X402709Y25566D01*
Y25594D01*
X402681Y25621D01*
X402598D01*
X402570Y25649D01*
X402542Y25705D01*
Y25732D01*
X402514Y25760D01*
X402487Y25816D01*
X402431Y25844D01*
X402376Y25816D01*
X402320Y25844D01*
X402237Y25871D01*
X402209Y25899D01*
X402181Y25955D01*
X402153Y26038D01*
X402126Y26121D01*
Y26149D01*
X402153Y26177D01*
Y26204D01*
X402181D01*
X402209Y26260D01*
X402237Y26343D01*
X402264Y26510D01*
Y26649D01*
Y26704D01*
X402320Y26815D01*
X402376Y26899D01*
X402459Y27038D01*
X402570Y27149D01*
X402709Y27315D01*
X402737Y27343D01*
X402792Y27399D01*
X402903Y27482D01*
X403014Y27565D01*
X403320Y27732D01*
X403486Y27787D01*
X403653Y27815D01*
X403736D01*
X403903Y27787D01*
D02*
G37*
%LPC*%
G36*
X402514Y26566D02*
X402431D01*
X402403Y26538D01*
Y26482D01*
X402459Y26454D01*
X402542D01*
Y26482D01*
Y26510D01*
Y26538D01*
X402514Y26566D01*
D02*
G37*
G36*
X402792Y26371D02*
X402737D01*
X402709Y26343D01*
Y26288D01*
Y26260D01*
X402764Y26232D01*
X402792D01*
X402820Y26288D01*
Y26316D01*
Y26343D01*
X402792Y26371D01*
D02*
G37*
G36*
X402542Y26066D02*
X402431D01*
X402403Y26038D01*
Y26010D01*
X402431Y25982D01*
X402459Y25955D01*
X402514D01*
X402542Y25982D01*
Y26038D01*
Y26066D01*
D02*
G37*
G36*
X402959Y25955D02*
X402931D01*
X402903Y25899D01*
X402959Y25871D01*
X402986D01*
X403014Y25899D01*
Y25927D01*
X402959Y25955D01*
D02*
G37*
G36*
X403431Y25177D02*
X403403Y25122D01*
X403431Y25094D01*
X403459D01*
X403486Y25122D01*
Y25149D01*
X403431Y25177D01*
D02*
G37*
G36*
X402653Y25871D02*
X402626Y25816D01*
X402653Y25788D01*
X402681D01*
X402709Y25816D01*
Y25844D01*
X402653Y25871D01*
D02*
G37*
G36*
X403042Y25427D02*
X403014D01*
X402959Y25371D01*
X402931Y25316D01*
X402959Y25288D01*
X402986Y25233D01*
X403070D01*
X403098Y25316D01*
Y25344D01*
X403070Y25399D01*
X403042Y25427D01*
D02*
G37*
G36*
X404153Y25177D02*
X404125D01*
X404097Y25122D01*
X404153Y25094D01*
X404181D01*
Y25122D01*
Y25149D01*
X404153Y25177D01*
D02*
G37*
%LPD*%
D44*
X230900Y240400D02*
G03*
X230900Y240400I-500J0D01*
G01*
X269700Y254800D02*
G03*
X269700Y254800I-500J0D01*
G01*
X168900Y86600D02*
G03*
X168900Y86600I-500J0D01*
G01*
X157664Y35626D02*
G03*
X157664Y35626I-19685J0D01*
G01*
X200742Y144900D02*
G03*
X200742Y144900I-14142J0D01*
G01*
X194200Y184000D02*
G03*
X194200Y184000I-500J0D01*
G01*
X424803Y170177D02*
X428740Y174114D01*
X346063Y170177D02*
X424803D01*
X342126Y174114D02*
X346063Y170177D01*
X340158Y174114D02*
X342126D01*
X428740D02*
X441535D01*
X325394D02*
X340158D01*
X445472Y178051D02*
Y290256D01*
X441535Y294193D02*
X445472Y290256D01*
X333268Y294193D02*
X441535D01*
X441535Y174114D02*
X445472Y178051D01*
X325394Y174114D02*
Y290256D01*
X329331Y294193D01*
X333268D01*
X266800Y165599D02*
Y162267D01*
X267466Y161600D01*
X268799D01*
X269466Y162267D01*
Y165599D01*
X273464Y161600D02*
X270799D01*
X273464Y164266D01*
Y164932D01*
X272798Y165599D01*
X271465D01*
X270799Y164932D01*
X164332Y162667D02*
X164999Y163334D01*
Y164667D01*
X164332Y165333D01*
X161667D01*
X161000Y164667D01*
Y163334D01*
X161667Y162667D01*
X161000Y158669D02*
Y161334D01*
X163666Y158669D01*
X164332D01*
X164999Y159335D01*
Y160668D01*
X164332Y161334D01*
X164999Y154670D02*
X164332Y156003D01*
X162999Y157336D01*
X161667D01*
X161000Y156669D01*
Y155336D01*
X161667Y154670D01*
X162333D01*
X162999Y155336D01*
Y157336D01*
X158200Y71899D02*
Y68566D01*
X158867Y67900D01*
X160199D01*
X160866Y68566D01*
Y71899D01*
X164198Y67900D02*
Y71899D01*
X162199Y69899D01*
X164865D01*
X377766Y113032D02*
X377099Y113699D01*
X375766D01*
X375100Y113032D01*
Y112366D01*
X375766Y111699D01*
X377099D01*
X377766Y111033D01*
Y110366D01*
X377099Y109700D01*
X375766D01*
X375100Y110366D01*
X379099Y109700D02*
Y113699D01*
X381098D01*
X381765Y113032D01*
Y111699D01*
X381098Y111033D01*
X379099D01*
X383097Y113699D02*
X384430D01*
X383764D01*
Y109700D01*
X383097D01*
X384430D01*
X386430Y109034D02*
X389095D01*
X390428Y113699D02*
Y109700D01*
X392428D01*
X393094Y110366D01*
Y111033D01*
X392428Y111699D01*
X390428D01*
X392428D01*
X393094Y112366D01*
Y113032D01*
X392428Y113699D01*
X390428D01*
X394427D02*
Y110366D01*
X395094Y109700D01*
X396427D01*
X397093Y110366D01*
Y113699D01*
X401092Y113032D02*
X400425Y113699D01*
X399092D01*
X398426Y113032D01*
Y112366D01*
X399092Y111699D01*
X400425D01*
X401092Y111033D01*
Y110366D01*
X400425Y109700D01*
X399092D01*
X398426Y110366D01*
X358000Y75799D02*
Y72466D01*
X358666Y71800D01*
X359999D01*
X360666Y72466D01*
Y75799D01*
X361999Y75132D02*
X362665Y75799D01*
X363998D01*
X364665Y75132D01*
Y74466D01*
X363998Y73799D01*
X363332D01*
X363998D01*
X364665Y73133D01*
Y72466D01*
X363998Y71800D01*
X362665D01*
X361999Y72466D01*
X421666Y341332D02*
X420999Y341999D01*
X419666D01*
X419000Y341332D01*
Y338666D01*
X419666Y338000D01*
X420999D01*
X421666Y338666D01*
Y339999D01*
X420333D01*
X422999Y338000D02*
Y341999D01*
X425665Y338000D01*
Y341999D01*
X426997D02*
Y338000D01*
X428997D01*
X429663Y338666D01*
Y341332D01*
X428997Y341999D01*
X426997D01*
X203000Y273499D02*
Y270166D01*
X203666Y269500D01*
X204999D01*
X205666Y270166D01*
Y273499D01*
X206999D02*
X209665D01*
Y272832D01*
X206999Y270166D01*
Y269500D01*
X289500Y117199D02*
Y116532D01*
X290833Y115199D01*
X292166Y116532D01*
Y117199D01*
X290833Y115199D02*
Y113200D01*
X296164D02*
X293499D01*
X296164Y115866D01*
Y116532D01*
X295498Y117199D01*
X294165D01*
X293499Y116532D01*
X222900Y189199D02*
Y188532D01*
X224233Y187199D01*
X225566Y188532D01*
Y189199D01*
X224233Y187199D02*
Y185200D01*
X226899D02*
X228232D01*
X227565D01*
Y189199D01*
X226899Y188532D01*
X311699Y132732D02*
X312365Y133399D01*
X313698D01*
X314365Y132732D01*
Y132066D01*
X313698Y131399D01*
X313032D01*
X313698D01*
X314365Y130733D01*
Y130067D01*
X313698Y129400D01*
X312365D01*
X311699Y130067D01*
X315697Y133399D02*
Y130733D01*
X317030Y129400D01*
X318363Y130733D01*
Y133399D01*
X319696Y132732D02*
X320363Y133399D01*
X321695D01*
X322362Y132732D01*
Y132066D01*
X321695Y131399D01*
X321029D01*
X321695D01*
X322362Y130733D01*
Y130067D01*
X321695Y129400D01*
X320363D01*
X319696Y130067D01*
X286500Y188332D02*
X287166Y188999D01*
X288499D01*
X289166Y188332D01*
Y187666D01*
X288499Y186999D01*
X287833D01*
X288499D01*
X289166Y186333D01*
Y185667D01*
X288499Y185000D01*
X287166D01*
X286500Y185667D01*
X290499Y188999D02*
Y186333D01*
X291832Y185000D01*
X293164Y186333D01*
Y188999D01*
X294497Y188332D02*
X295164Y188999D01*
X296497D01*
X297163Y188332D01*
Y187666D01*
X296497Y186999D01*
X295830D01*
X296497D01*
X297163Y186333D01*
Y185667D01*
X296497Y185000D01*
X295164D01*
X294497Y185667D01*
X225100Y285199D02*
Y281200D01*
X227099D01*
X227766Y281866D01*
Y284532D01*
X227099Y285199D01*
X225100D01*
X231765Y281200D02*
X229099D01*
X231765Y283866D01*
Y284532D01*
X231098Y285199D01*
X229765D01*
X229099Y284532D01*
X237000Y222200D02*
X233001D01*
Y224199D01*
X233668Y224866D01*
X235001D01*
X235667Y224199D01*
Y222200D01*
Y223533D02*
X237000Y224866D01*
Y226199D02*
Y227532D01*
Y226865D01*
X233001D01*
X233668Y226199D01*
X237000Y229531D02*
Y230864D01*
Y230197D01*
X233001D01*
X233668Y229531D01*
X137900Y81100D02*
Y85099D01*
X139899D01*
X140566Y84432D01*
Y83099D01*
X139899Y82433D01*
X137900D01*
X139233D02*
X140566Y81100D01*
X141899D02*
X143232D01*
X142565D01*
Y85099D01*
X141899Y84432D01*
X145231D02*
X145897Y85099D01*
X147230D01*
X147897Y84432D01*
Y81766D01*
X147230Y81100D01*
X145897D01*
X145231Y81766D01*
Y84432D01*
X206500Y147500D02*
Y151499D01*
X208499D01*
X209166Y150832D01*
Y149499D01*
X208499Y148833D01*
X206500D01*
X207833D02*
X209166Y147500D01*
X210499Y148167D02*
X211165Y147500D01*
X212498D01*
X213164Y148167D01*
Y150832D01*
X212498Y151499D01*
X211165D01*
X210499Y150832D01*
Y150166D01*
X211165Y149499D01*
X213164D01*
X216200Y199000D02*
X212201D01*
Y200999D01*
X212868Y201666D01*
X214201D01*
X214867Y200999D01*
Y199000D01*
X212868Y205664D02*
X212201Y204998D01*
Y203665D01*
X212868Y202999D01*
X215534D01*
X216200Y203665D01*
Y204998D01*
X215534Y205664D01*
X214201D01*
Y204332D01*
X212201Y208997D02*
Y207664D01*
X212868Y206997D01*
X215534D01*
X216200Y207664D01*
Y208997D01*
X215534Y209663D01*
X212868D01*
X212201Y208997D01*
Y212996D02*
Y211663D01*
X212868Y210996D01*
X215534D01*
X216200Y211663D01*
Y212996D01*
X215534Y213662D01*
X212868D01*
X212201Y212996D01*
Y214995D02*
X216200D01*
Y216994D01*
X215534Y217661D01*
X212868D01*
X212201Y216994D01*
Y214995D01*
X216866Y218994D02*
Y221659D01*
X212201Y222992D02*
Y224325D01*
Y223659D01*
X216200D01*
Y222992D01*
Y224325D01*
X212868Y228990D02*
X212201Y228324D01*
Y226991D01*
X212868Y226325D01*
X213534D01*
X214201Y226991D01*
Y228324D01*
X214867Y228990D01*
X215534D01*
X216200Y228324D01*
Y226991D01*
X215534Y226325D01*
X212201Y232323D02*
Y230990D01*
X212868Y230323D01*
X215534D01*
X216200Y230990D01*
Y232323D01*
X215534Y232989D01*
X212868D01*
X212201Y232323D01*
X188068Y244866D02*
X187401Y244199D01*
Y242866D01*
X188068Y242200D01*
X190734D01*
X191400Y242866D01*
Y244199D01*
X190734Y244866D01*
X191400Y246199D02*
Y247532D01*
Y246865D01*
X187401D01*
X188068Y246199D01*
X191400Y249531D02*
Y250864D01*
Y250197D01*
X187401D01*
X188068Y249531D01*
X123866Y304232D02*
X123199Y304899D01*
X121867D01*
X121200Y304232D01*
Y301566D01*
X121867Y300900D01*
X123199D01*
X123866Y301566D01*
X125199D02*
X125865Y300900D01*
X127198D01*
X127865Y301566D01*
Y304232D01*
X127198Y304899D01*
X125865D01*
X125199Y304232D01*
Y303566D01*
X125865Y302899D01*
X127865D01*
X240666Y304232D02*
X239999Y304899D01*
X238666D01*
X238000Y304232D01*
Y301566D01*
X238666Y300900D01*
X239999D01*
X240666Y301566D01*
X241999Y304899D02*
X244665D01*
Y304232D01*
X241999Y301566D01*
Y300900D01*
X243166Y238332D02*
X242499Y238999D01*
X241166D01*
X240500Y238332D01*
Y235666D01*
X241166Y235000D01*
X242499D01*
X243166Y235666D01*
X247165Y238999D02*
X245832Y238332D01*
X244499Y236999D01*
Y235666D01*
X245165Y235000D01*
X246498D01*
X247165Y235666D01*
Y236333D01*
X246498Y236999D01*
X244499D01*
X123201Y56400D02*
X127200D01*
X125867Y57733D01*
X127200Y59066D01*
X123201D01*
Y60399D02*
Y61732D01*
Y61065D01*
X127200D01*
Y60399D01*
Y61732D01*
X123201Y66397D02*
Y63731D01*
X125201D01*
Y65064D01*
Y63731D01*
X127200D01*
X123201Y67730D02*
Y69063D01*
Y68396D01*
X127200D01*
Y67730D01*
Y69063D01*
X127866Y71062D02*
Y73728D01*
X127200Y75061D02*
X123201D01*
Y77060D01*
X123868Y77726D01*
X125201D01*
X125867Y77060D01*
Y75061D01*
X127200Y79059D02*
X124534D01*
X123201Y80392D01*
X124534Y81725D01*
X127200D01*
X125201D01*
Y79059D01*
X127866Y83058D02*
Y85724D01*
X123201Y87057D02*
Y88390D01*
Y87723D01*
X127200D01*
Y87057D01*
Y88390D01*
X123868Y93055D02*
X123201Y92388D01*
Y91056D01*
X123868Y90389D01*
X124534D01*
X125201Y91056D01*
Y92388D01*
X125867Y93055D01*
X126533D01*
X127200Y92388D01*
Y91056D01*
X126533Y90389D01*
X123201Y96387D02*
Y95054D01*
X123868Y94388D01*
X126533D01*
X127200Y95054D01*
Y96387D01*
X126533Y97053D01*
X123868D01*
X123201Y96387D01*
X222701Y135200D02*
X226700D01*
Y137199D01*
X226034Y137866D01*
X223368D01*
X222701Y137199D01*
Y135200D01*
X223368Y139199D02*
X222701Y139865D01*
Y141198D01*
X223368Y141865D01*
X224034D01*
X224701Y141198D01*
Y140532D01*
Y141198D01*
X225367Y141865D01*
X226034D01*
X226700Y141198D01*
Y139865D01*
X226034Y139199D01*
X182700Y169400D02*
Y173399D01*
X184699D01*
X185366Y172732D01*
Y171399D01*
X184699Y170733D01*
X182700D01*
X184033D02*
X185366Y169400D01*
X189365Y172732D02*
X188698Y173399D01*
X187365D01*
X186699Y172732D01*
Y172066D01*
X187365Y171399D01*
X188698D01*
X189365Y170733D01*
Y170066D01*
X188698Y169400D01*
X187365D01*
X186699Y170066D01*
X190697Y173399D02*
X193363D01*
X192030D01*
Y169400D01*
X226800Y123900D02*
X222801D01*
Y125899D01*
X223468Y126566D01*
X224801D01*
X225467Y125899D01*
Y123900D01*
Y125233D02*
X226800Y126566D01*
X223468Y127899D02*
X222801Y128565D01*
Y129898D01*
X223468Y130564D01*
X226134D01*
X226800Y129898D01*
Y128565D01*
X226134Y127899D01*
X223468D01*
X254466Y218132D02*
X253799Y218799D01*
X252466D01*
X251800Y218132D01*
Y217466D01*
X252466Y216799D01*
X253799D01*
X254466Y216133D01*
Y215466D01*
X253799Y214800D01*
X252466D01*
X251800Y215466D01*
X255799Y218799D02*
Y214800D01*
X257132Y216133D01*
X258465Y214800D01*
Y218799D01*
X261797D02*
X260464D01*
X259797Y218132D01*
Y215466D01*
X260464Y214800D01*
X261797D01*
X262463Y215466D01*
Y218132D01*
X261797Y218799D01*
X267266Y218132D02*
X266599Y218799D01*
X265266D01*
X264600Y218132D01*
Y217466D01*
X265266Y216799D01*
X266599D01*
X267266Y216133D01*
Y215466D01*
X266599Y214800D01*
X265266D01*
X264600Y215466D01*
X268599Y218799D02*
Y214800D01*
X269932Y216133D01*
X271265Y214800D01*
Y218799D01*
X272597D02*
Y214800D01*
X274597D01*
X275263Y215466D01*
Y218132D01*
X274597Y218799D01*
X272597D01*
X276596D02*
X277929D01*
X277263D01*
Y214800D01*
X276596D01*
X277929D01*
X281928Y218799D02*
X280595D01*
X279928Y218132D01*
Y215466D01*
X280595Y214800D01*
X281928D01*
X282594Y215466D01*
Y218132D01*
X281928Y218799D01*
X281266Y212632D02*
X280599Y213299D01*
X279266D01*
X278600Y212632D01*
Y211966D01*
X279266Y211299D01*
X280599D01*
X281266Y210633D01*
Y209966D01*
X280599Y209300D01*
X279266D01*
X278600Y209966D01*
X282599Y213299D02*
Y209300D01*
X283932Y210633D01*
X285264Y209300D01*
Y213299D01*
X289263Y212632D02*
X288597Y213299D01*
X287264D01*
X286597Y212632D01*
Y209966D01*
X287264Y209300D01*
X288597D01*
X289263Y209966D01*
X290596Y213299D02*
Y209300D01*
X293262D01*
X294595Y213299D02*
Y209300D01*
Y210633D01*
X297261Y213299D01*
X295261Y211299D01*
X297261Y209300D01*
X249768Y128966D02*
X249101Y128299D01*
Y126967D01*
X249768Y126300D01*
X252434D01*
X253100Y126967D01*
Y128299D01*
X252434Y128966D01*
X253100Y132965D02*
Y130299D01*
X250434Y132965D01*
X249768D01*
X249101Y132298D01*
Y130965D01*
X249768Y130299D01*
X241066Y173332D02*
X240399Y173999D01*
X239066D01*
X238400Y173332D01*
Y170667D01*
X239066Y170000D01*
X240399D01*
X241066Y170667D01*
X242399Y173332D02*
X243065Y173999D01*
X244398D01*
X245064Y173332D01*
Y172666D01*
X244398Y171999D01*
X243732D01*
X244398D01*
X245064Y171333D01*
Y170667D01*
X244398Y170000D01*
X243065D01*
X242399Y170667D01*
X290168Y135166D02*
X289501Y134499D01*
Y133167D01*
X290168Y132500D01*
X292834D01*
X293500Y133167D01*
Y134499D01*
X292834Y135166D01*
X293500Y138498D02*
X289501D01*
X291501Y136499D01*
Y139164D01*
X296668Y135166D02*
X296001Y134499D01*
Y133167D01*
X296668Y132500D01*
X299334D01*
X300000Y133167D01*
Y134499D01*
X299334Y135166D01*
X296001Y139164D02*
Y136499D01*
X298001D01*
X297334Y137832D01*
Y138498D01*
X298001Y139164D01*
X299334D01*
X300000Y138498D01*
Y137165D01*
X299334Y136499D01*
X271766Y155232D02*
X271099Y155899D01*
X269766D01*
X269100Y155232D01*
Y152567D01*
X269766Y151900D01*
X271099D01*
X271766Y152567D01*
X273099Y155232D02*
X273765Y155899D01*
X275098D01*
X275764Y155232D01*
Y154566D01*
X275098Y153899D01*
X275764Y153233D01*
Y152567D01*
X275098Y151900D01*
X273765D01*
X273099Y152567D01*
Y153233D01*
X273765Y153899D01*
X273099Y154566D01*
Y155232D01*
X273765Y153899D02*
X275098D01*
X303168Y135166D02*
X302501Y134499D01*
Y133167D01*
X303168Y132500D01*
X305834D01*
X306500Y133167D01*
Y134499D01*
X305834Y135166D01*
X306500Y136499D02*
Y137832D01*
Y137165D01*
X302501D01*
X303168Y136499D01*
Y139831D02*
X302501Y140497D01*
Y141830D01*
X303168Y142497D01*
X305834D01*
X306500Y141830D01*
Y140497D01*
X305834Y139831D01*
X303168D01*
X226666Y177932D02*
X225999Y178599D01*
X224666D01*
X224000Y177932D01*
Y175267D01*
X224666Y174600D01*
X225999D01*
X226666Y175267D01*
X227999Y174600D02*
X229332D01*
X228665D01*
Y178599D01*
X227999Y177932D01*
X231331D02*
X231997Y178599D01*
X233330D01*
X233997Y177932D01*
Y177266D01*
X233330Y176599D01*
X232664D01*
X233330D01*
X233997Y175933D01*
Y175267D01*
X233330Y174600D01*
X231997D01*
X231331Y175267D01*
X359110Y108532D02*
X358443Y109199D01*
X357111D01*
X356444Y108532D01*
Y105866D01*
X357111Y105200D01*
X358443D01*
X359110Y105866D01*
X360443Y105200D02*
X361776D01*
X361109D01*
Y109199D01*
X360443Y108532D01*
X365774Y105200D02*
Y109199D01*
X363775Y107199D01*
X366441D01*
X134166Y73432D02*
X133499Y74099D01*
X132167D01*
X131500Y73432D01*
Y70766D01*
X132167Y70100D01*
X133499D01*
X134166Y70766D01*
X135499Y70100D02*
X136832D01*
X136165D01*
Y74099D01*
X135499Y73432D01*
X141497Y74099D02*
X138831D01*
Y72099D01*
X140164Y72766D01*
X140830D01*
X141497Y72099D01*
Y70766D01*
X140830Y70100D01*
X139497D01*
X138831Y70766D01*
X155068Y98666D02*
X154401Y97999D01*
Y96666D01*
X155068Y96000D01*
X157734D01*
X158400Y96666D01*
Y97999D01*
X157734Y98666D01*
X158400Y99999D02*
Y101332D01*
Y100665D01*
X154401D01*
X155068Y99999D01*
X154401Y105997D02*
X155068Y104664D01*
X156401Y103331D01*
X157734D01*
X158400Y103997D01*
Y105330D01*
X157734Y105997D01*
X157067D01*
X156401Y105330D01*
Y103331D01*
X170166Y60832D02*
X169499Y61499D01*
X168166D01*
X167500Y60832D01*
Y58166D01*
X168166Y57500D01*
X169499D01*
X170166Y58166D01*
X171499Y57500D02*
X172832D01*
X172165D01*
Y61499D01*
X171499Y60832D01*
X174831Y61499D02*
X177497D01*
Y60832D01*
X174831Y58166D01*
Y57500D01*
X166168Y94166D02*
X165501Y93499D01*
Y92166D01*
X166168Y91500D01*
X168833D01*
X169500Y92166D01*
Y93499D01*
X168833Y94166D01*
X169500Y95499D02*
Y96832D01*
Y96165D01*
X165501D01*
X166168Y95499D01*
Y98831D02*
X165501Y99497D01*
Y100830D01*
X166168Y101497D01*
X166834D01*
X167501Y100830D01*
X168167Y101497D01*
X168833D01*
X169500Y100830D01*
Y99497D01*
X168833Y98831D01*
X168167D01*
X167501Y99497D01*
X166834Y98831D01*
X166168D01*
X167501Y99497D02*
Y100830D01*
X183310Y86832D02*
X182643Y87499D01*
X181310D01*
X180644Y86832D01*
Y84166D01*
X181310Y83500D01*
X182643D01*
X183310Y84166D01*
X184643Y83500D02*
X185976D01*
X185309D01*
Y87499D01*
X184643Y86832D01*
X187975Y84166D02*
X188642Y83500D01*
X189974D01*
X190641Y84166D01*
Y86832D01*
X189974Y87499D01*
X188642D01*
X187975Y86832D01*
Y86166D01*
X188642Y85499D01*
X190641D01*
X154468Y195066D02*
X153801Y194399D01*
Y193067D01*
X154468Y192400D01*
X157133D01*
X157800Y193067D01*
Y194399D01*
X157133Y195066D01*
X157800Y199065D02*
Y196399D01*
X155134Y199065D01*
X154468D01*
X153801Y198398D01*
Y197065D01*
X154468Y196399D01*
X157800Y200397D02*
Y201730D01*
Y201064D01*
X153801D01*
X154468Y200397D01*
X382566Y304932D02*
X381899Y305599D01*
X380566D01*
X379900Y304932D01*
Y302266D01*
X380566Y301600D01*
X381899D01*
X382566Y302266D01*
X386564Y301600D02*
X383899D01*
X386564Y304266D01*
Y304932D01*
X385898Y305599D01*
X384565D01*
X383899Y304932D01*
X390563Y301600D02*
X387897D01*
X390563Y304266D01*
Y304932D01*
X389897Y305599D01*
X388564D01*
X387897Y304932D01*
X249866Y265632D02*
X249199Y266299D01*
X247866D01*
X247200Y265632D01*
Y262966D01*
X247866Y262300D01*
X249199D01*
X249866Y262966D01*
X253865Y262300D02*
X251199D01*
X253865Y264966D01*
Y265632D01*
X253198Y266299D01*
X251865D01*
X251199Y265632D01*
X255197D02*
X255864Y266299D01*
X257197D01*
X257863Y265632D01*
Y264966D01*
X257197Y264299D01*
X256530D01*
X257197D01*
X257863Y263633D01*
Y262966D01*
X257197Y262300D01*
X255864D01*
X255197Y262966D01*
X314366Y305332D02*
X313699Y305999D01*
X312366D01*
X311700Y305332D01*
Y302666D01*
X312366Y302000D01*
X313699D01*
X314366Y302666D01*
X318365Y302000D02*
X315699D01*
X318365Y304666D01*
Y305332D01*
X317698Y305999D01*
X316365D01*
X315699Y305332D01*
X321697Y302000D02*
Y305999D01*
X319697Y303999D01*
X322363D01*
X300600Y252299D02*
Y248300D01*
X302599D01*
X303266Y248966D01*
Y251632D01*
X302599Y252299D01*
X300600D01*
X304599Y248300D02*
X305932D01*
X305265D01*
Y252299D01*
X304599Y251632D01*
X159466Y233199D02*
X158133D01*
X158799D01*
Y229866D01*
X158133Y229200D01*
X157466D01*
X156800Y229866D01*
X160799Y229200D02*
X162132D01*
X161465D01*
Y233199D01*
X160799Y232532D01*
X190100Y201199D02*
Y197200D01*
X192766D01*
X194099D02*
X195432D01*
X194765D01*
Y201199D01*
X194099Y200532D01*
X285598Y294599D02*
Y290600D01*
X288264D01*
X292263D02*
X289597D01*
X292263Y293266D01*
Y293932D01*
X291597Y294599D01*
X290264D01*
X289597Y293932D01*
X261900Y196299D02*
Y192300D01*
X263899D01*
X264566Y192966D01*
Y195632D01*
X263899Y196299D01*
X261900D01*
X268565D02*
X265899D01*
Y192300D01*
X268565D01*
X265899Y194299D02*
X267232D01*
X269897Y196299D02*
Y192300D01*
X271897D01*
X272563Y192966D01*
Y193633D01*
X271897Y194299D01*
X269897D01*
X271897D01*
X272563Y194966D01*
Y195632D01*
X271897Y196299D01*
X269897D01*
X273896D02*
Y192966D01*
X274563Y192300D01*
X275896D01*
X276562Y192966D01*
Y196299D01*
X280561Y195632D02*
X279894Y196299D01*
X278561D01*
X277895Y195632D01*
Y192966D01*
X278561Y192300D01*
X279894D01*
X280561Y192966D01*
Y194299D01*
X279228D01*
X138400Y176300D02*
Y180299D01*
X140399D01*
X141066Y179632D01*
Y178299D01*
X140399Y177633D01*
X138400D01*
X142399Y179632D02*
X143065Y180299D01*
X144398D01*
X145064Y179632D01*
Y176967D01*
X144398Y176300D01*
X143065D01*
X142399Y176967D01*
Y179632D01*
X202468Y16466D02*
X201801Y15799D01*
Y14467D01*
X202468Y13800D01*
X203134D01*
X203801Y14467D01*
Y15799D01*
X204467Y16466D01*
X205134D01*
X205800Y15799D01*
Y14467D01*
X205134Y13800D01*
X201801Y17799D02*
X205800D01*
X204467Y19132D01*
X205800Y20464D01*
X201801D01*
Y21797D02*
X205800D01*
Y23797D01*
X205134Y24463D01*
X202468D01*
X201801Y23797D01*
Y21797D01*
X206466Y25796D02*
Y28462D01*
X201801Y29795D02*
X205800D01*
Y31794D01*
X205134Y32461D01*
X202468D01*
X201801Y31794D01*
Y29795D01*
Y36459D02*
Y33794D01*
X205800D01*
Y36459D01*
X203801Y33794D02*
Y35126D01*
X201801Y37792D02*
X205800D01*
Y39792D01*
X205134Y40458D01*
X204467D01*
X203801Y39792D01*
Y37792D01*
Y39792D01*
X203134Y40458D01*
X202468D01*
X201801Y39792D01*
Y37792D01*
Y41791D02*
X205134D01*
X205800Y42457D01*
Y43790D01*
X205134Y44457D01*
X201801D01*
X202468Y48456D02*
X201801Y47789D01*
Y46456D01*
X202468Y45790D01*
X205134D01*
X205800Y46456D01*
Y47789D01*
X205134Y48456D01*
X203801D01*
Y47123D01*
X388000Y192000D02*
Y195999D01*
X389999D01*
X390666Y195332D01*
Y193999D01*
X389999Y193333D01*
X388000D01*
X389333D02*
X390666Y192000D01*
X391999D02*
X393332D01*
X392665D01*
Y195999D01*
X391999Y195332D01*
X204100Y192000D02*
Y195999D01*
X206099D01*
X206766Y195332D01*
Y193999D01*
X206099Y193333D01*
X204100D01*
X205433D02*
X206766Y192000D01*
X210765D02*
X208099D01*
X210765Y194666D01*
Y195332D01*
X210098Y195999D01*
X208765D01*
X208099Y195332D01*
X134900Y59500D02*
Y63499D01*
X136899D01*
X137566Y62832D01*
Y61499D01*
X136899Y60833D01*
X134900D01*
X136233D02*
X137566Y59500D01*
X138899Y62832D02*
X139565Y63499D01*
X140898D01*
X141565Y62832D01*
Y62166D01*
X140898Y61499D01*
X140232D01*
X140898D01*
X141565Y60833D01*
Y60166D01*
X140898Y59500D01*
X139565D01*
X138899Y60166D01*
X179200Y63100D02*
Y67099D01*
X181199D01*
X181866Y66432D01*
Y65099D01*
X181199Y64433D01*
X179200D01*
X180533D02*
X181866Y63100D01*
X185198D02*
Y67099D01*
X183199Y65099D01*
X185864D01*
X179253Y69600D02*
Y73599D01*
X181252D01*
X181919Y72932D01*
Y71599D01*
X181252Y70933D01*
X179253D01*
X180586D02*
X181919Y69600D01*
X185917Y73599D02*
X183252D01*
Y71599D01*
X184584Y72266D01*
X185251D01*
X185917Y71599D01*
Y70266D01*
X185251Y69600D01*
X183918D01*
X183252Y70266D01*
X238500Y244900D02*
X234501D01*
Y246899D01*
X235168Y247566D01*
X236501D01*
X237167Y246899D01*
Y244900D01*
Y246233D02*
X238500Y247566D01*
X234501Y251565D02*
X235168Y250232D01*
X236501Y248899D01*
X237834D01*
X238500Y249565D01*
Y250898D01*
X237834Y251565D01*
X237167D01*
X236501Y250898D01*
Y248899D01*
X323500Y219700D02*
X319501D01*
Y221699D01*
X320168Y222366D01*
X321501D01*
X322167Y221699D01*
Y219700D01*
Y221033D02*
X323500Y222366D01*
X319501Y223699D02*
Y226364D01*
X320168D01*
X322834Y223699D01*
X323500D01*
X401800Y190766D02*
Y188767D01*
X402466Y188100D01*
X404466D01*
Y190766D01*
X408464Y191432D02*
X407798Y192099D01*
X406465D01*
X405799Y191432D01*
Y188767D01*
X406465Y188100D01*
X407798D01*
X408464Y188767D01*
X409797Y188100D02*
Y190766D01*
X411130Y192099D01*
X412463Y190766D01*
Y188100D01*
Y190099D01*
X409797D01*
X413796Y188100D02*
Y192099D01*
X415129Y190766D01*
X416462Y192099D01*
Y188100D01*
X417795Y187434D02*
X420461D01*
X421794Y192099D02*
Y188767D01*
X422460Y188100D01*
X423793D01*
X424459Y188767D01*
Y192099D01*
X425792Y188100D02*
Y190766D01*
X427125Y192099D01*
X428458Y190766D01*
Y188100D01*
Y190099D01*
X425792D01*
X429791Y188100D02*
Y192099D01*
X431790D01*
X432457Y191432D01*
Y190099D01*
X431790Y189433D01*
X429791D01*
X431124D02*
X432457Y188100D01*
X433790Y192099D02*
X436455D01*
X435123D01*
Y188100D01*
X203100Y136499D02*
Y133167D01*
X203766Y132500D01*
X205099D01*
X205766Y133167D01*
Y136499D01*
X209765D02*
X208432Y135832D01*
X207099Y134499D01*
Y133167D01*
X207765Y132500D01*
X209098D01*
X209765Y133167D01*
Y133833D01*
X209098Y134499D01*
X207099D01*
X285900Y230399D02*
Y227066D01*
X286566Y226400D01*
X287899D01*
X288566Y227066D01*
Y230399D01*
X289899Y229732D02*
X290565Y230399D01*
X291898D01*
X292565Y229732D01*
Y229066D01*
X291898Y228399D01*
X292565Y227733D01*
Y227066D01*
X291898Y226400D01*
X290565D01*
X289899Y227066D01*
Y227733D01*
X290565Y228399D01*
X289899Y229066D01*
Y229732D01*
X290565Y228399D02*
X291898D01*
X117800Y18299D02*
Y14966D01*
X118466Y14300D01*
X119799D01*
X120466Y14966D01*
Y18299D01*
X124464D02*
X121799D01*
Y16299D01*
X123132Y16966D01*
X123798D01*
X124464Y16299D01*
Y14966D01*
X123798Y14300D01*
X122465D01*
X121799Y14966D01*
X131400Y7700D02*
Y10366D01*
X132733Y11699D01*
X134066Y10366D01*
Y7700D01*
Y9699D01*
X131400D01*
X135399Y11699D02*
X138065D01*
X136732D01*
Y7700D01*
X139397Y11699D02*
Y7700D01*
Y9033D01*
X142063Y11699D01*
X140064Y9699D01*
X142063Y7700D01*
X143396D02*
X146062Y10366D01*
X147395Y7700D02*
Y11699D01*
X149394D01*
X150061Y11032D01*
Y9699D01*
X149394Y9033D01*
X147395D01*
X148728D02*
X150061Y7700D01*
X154059Y11699D02*
X151394D01*
Y7700D01*
X154059D01*
X151394Y9699D02*
X152726D01*
X155392Y11699D02*
Y7700D01*
X158058D01*
X159391Y7034D02*
X162057D01*
X166056Y11032D02*
X165389Y11699D01*
X164056D01*
X163390Y11032D01*
Y10366D01*
X164056Y9699D01*
X165389D01*
X166056Y9033D01*
Y8366D01*
X165389Y7700D01*
X164056D01*
X163390Y8366D01*
X170054Y11699D02*
X167388D01*
Y7700D01*
X170054D01*
X167388Y9699D02*
X168721D01*
X171387Y11699D02*
Y7700D01*
X174053D01*
X188168Y17066D02*
X187501Y16399D01*
Y15067D01*
X188168Y14400D01*
X190833D01*
X191500Y15067D01*
Y16399D01*
X190833Y17066D01*
X189501D01*
Y15733D01*
X191500Y18399D02*
X188834D01*
X187501Y19732D01*
X188834Y21065D01*
X191500D01*
X189501D01*
Y18399D01*
X187501Y22397D02*
Y23730D01*
Y23064D01*
X191500D01*
Y22397D01*
Y23730D01*
Y25730D02*
X187501D01*
X191500Y28396D01*
X187501D01*
X192166Y29728D02*
Y32394D01*
X188168Y36393D02*
X187501Y35726D01*
Y34394D01*
X188168Y33727D01*
X188834D01*
X189501Y34394D01*
Y35726D01*
X190167Y36393D01*
X190833D01*
X191500Y35726D01*
Y34394D01*
X190833Y33727D01*
X187501Y40392D02*
Y37726D01*
X191500D01*
Y40392D01*
X189501Y37726D02*
Y39059D01*
X187501Y41725D02*
X191500D01*
Y44390D01*
X303700Y5200D02*
X299701D01*
Y7199D01*
X300368Y7866D01*
X301701D01*
X302367Y7199D01*
Y5200D01*
Y6533D02*
X303700Y7866D01*
X299701Y11864D02*
Y9199D01*
X301701D01*
Y10532D01*
Y9199D01*
X303700D01*
X304366Y13197D02*
Y15863D01*
X299701Y17196D02*
X303700D01*
Y19196D01*
X303034Y19862D01*
X300368D01*
X299701Y19196D01*
Y17196D01*
Y23861D02*
Y21195D01*
X303700D01*
Y23861D01*
X301701Y21195D02*
Y22528D01*
X299701Y25194D02*
X303700D01*
Y27193D01*
X303034Y27859D01*
X302367D01*
X301701Y27193D01*
Y25194D01*
Y27193D01*
X301034Y27859D01*
X300368D01*
X299701Y27193D01*
Y25194D01*
Y29192D02*
X303034D01*
X303700Y29859D01*
Y31192D01*
X303034Y31858D01*
X299701D01*
X300368Y35857D02*
X299701Y35190D01*
Y33857D01*
X300368Y33191D01*
X303034D01*
X303700Y33857D01*
Y35190D01*
X303034Y35857D01*
X301701D01*
Y34524D01*
X304366Y37190D02*
Y39856D01*
X300368Y43854D02*
X299701Y43188D01*
Y41855D01*
X300368Y41188D01*
X301034D01*
X301701Y41855D01*
Y43188D01*
X302367Y43854D01*
X303034D01*
X303700Y43188D01*
Y41855D01*
X303034Y41188D01*
X303700Y45187D02*
X299701D01*
Y47186D01*
X300368Y47853D01*
X301701D01*
X302367Y47186D01*
Y45187D01*
X299701Y49186D02*
Y50519D01*
Y49852D01*
X303700D01*
Y49186D01*
Y50519D01*
X260668Y117066D02*
X260001Y116399D01*
Y115067D01*
X260668Y114400D01*
X263334D01*
X264000Y115067D01*
Y116399D01*
X263334Y117066D01*
X264000Y118399D02*
Y119732D01*
Y119065D01*
X260001D01*
X260668Y118399D01*
X251100Y181800D02*
Y185799D01*
X253099D01*
X253766Y185132D01*
Y183799D01*
X253099Y183133D01*
X251100D01*
X252433D02*
X253766Y181800D01*
X255099Y185132D02*
X255765Y185799D01*
X257098D01*
X257765Y185132D01*
Y184466D01*
X257098Y183799D01*
X257765Y183133D01*
Y182466D01*
X257098Y181800D01*
X255765D01*
X255099Y182466D01*
Y183133D01*
X255765Y183799D01*
X255099Y184466D01*
Y185132D01*
X255765Y183799D02*
X257098D01*
X226400Y87199D02*
Y83866D01*
X227066Y83200D01*
X228399D01*
X229066Y83866D01*
Y87199D01*
X230399Y83866D02*
X231065Y83200D01*
X232398D01*
X233065Y83866D01*
Y86532D01*
X232398Y87199D01*
X231065D01*
X230399Y86532D01*
Y85866D01*
X231065Y85199D01*
X233065D01*
X293000Y86999D02*
Y83000D01*
X294333Y84333D01*
X295666Y83000D01*
Y86999D01*
X296999D02*
X298332D01*
X297665D01*
Y83000D01*
X296999D01*
X298332D01*
X302997Y86999D02*
X300331D01*
Y84999D01*
X301664D01*
X300331D01*
Y83000D01*
X304330Y86999D02*
X305663D01*
X304996D01*
Y83000D01*
X304330D01*
X305663D01*
X307662Y82334D02*
X310328D01*
X314327Y86332D02*
X313660Y86999D01*
X312327D01*
X311661Y86332D01*
Y83666D01*
X312327Y83000D01*
X313660D01*
X314327Y83666D01*
X318325Y86332D02*
X317659Y86999D01*
X316326D01*
X315659Y86332D01*
Y85666D01*
X316326Y84999D01*
X317659D01*
X318325Y84333D01*
Y83666D01*
X317659Y83000D01*
X316326D01*
X315659Y83666D01*
X331400Y139900D02*
Y143899D01*
X333399D01*
X334066Y143232D01*
Y141899D01*
X333399Y141233D01*
X331400D01*
X335399Y143232D02*
X336065Y143899D01*
X337398D01*
X338065Y143232D01*
Y142566D01*
X337398Y141899D01*
X338065Y141233D01*
Y140567D01*
X337398Y139900D01*
X336065D01*
X335399Y140567D01*
Y141233D01*
X336065Y141899D01*
X335399Y142566D01*
Y143232D01*
X336065Y141899D02*
X337398D01*
X409000Y164666D02*
Y162666D01*
X409666Y162000D01*
X411666D01*
Y164666D01*
X415664Y165332D02*
X414998Y165999D01*
X413665D01*
X412999Y165332D01*
Y162666D01*
X413665Y162000D01*
X414998D01*
X415664Y162666D01*
X417664Y164666D02*
X418997D01*
X419663Y163999D01*
Y162000D01*
X417664D01*
X416997Y162666D01*
X417664Y163333D01*
X419663D01*
X420996Y162000D02*
Y164666D01*
X421663D01*
X422329Y163999D01*
Y162000D01*
Y163999D01*
X422996Y164666D01*
X423662Y163999D01*
Y162000D01*
X424995Y165999D02*
X426328D01*
X425661D01*
Y162000D01*
X424995D01*
X426328D01*
X428327Y165999D02*
X429660D01*
X428994D01*
Y162000D01*
X428327D01*
X429660D01*
X431659Y165999D02*
X432992D01*
X432326D01*
Y162000D01*
X431659D01*
X432992D01*
X178000Y298599D02*
Y295266D01*
X178666Y294600D01*
X179999D01*
X180666Y295266D01*
Y298599D01*
X181999Y294600D02*
X183332D01*
X182665D01*
Y298599D01*
X181999Y297932D01*
X185331D02*
X185997Y298599D01*
X187330D01*
X187997Y297932D01*
Y295266D01*
X187330Y294600D01*
X185997D01*
X185331Y295266D01*
Y297932D01*
X249400Y224532D02*
X250066Y225199D01*
X251399D01*
X252066Y224532D01*
Y223866D01*
X251399Y223199D01*
X250733D01*
X251399D01*
X252066Y222533D01*
Y221866D01*
X251399Y221200D01*
X250066D01*
X249400Y221866D01*
X253399Y225199D02*
Y222533D01*
X254732Y221200D01*
X256065Y222533D01*
Y225199D01*
X257397Y220534D02*
X260063D01*
X261396Y225199D02*
X262729D01*
X262063D01*
Y221200D01*
X261396D01*
X262729D01*
X267394Y224532D02*
X266728Y225199D01*
X265395D01*
X264728Y224532D01*
Y223866D01*
X265395Y223199D01*
X266728D01*
X267394Y222533D01*
Y221866D01*
X266728Y221200D01*
X265395D01*
X264728Y221866D01*
X270726Y225199D02*
X269394D01*
X268727Y224532D01*
Y221866D01*
X269394Y221200D01*
X270726D01*
X271393Y221866D01*
Y224532D01*
X270726Y225199D01*
X301401Y187866D02*
Y185200D01*
X303401D01*
X302734Y186533D01*
Y187199D01*
X303401Y187866D01*
X304734D01*
X305400Y187199D01*
Y185866D01*
X304734Y185200D01*
X301401Y189199D02*
X304067D01*
X305400Y190532D01*
X304067Y191865D01*
X301401D01*
X306066Y193197D02*
Y195863D01*
X301401Y197196D02*
Y198529D01*
Y197863D01*
X305400D01*
Y197196D01*
Y198529D01*
X302068Y203194D02*
X301401Y202528D01*
Y201195D01*
X302068Y200528D01*
X302734D01*
X303401Y201195D01*
Y202528D01*
X304067Y203194D01*
X304734D01*
X305400Y202528D01*
Y201195D01*
X304734Y200528D01*
X301401Y206526D02*
Y205194D01*
X302068Y204527D01*
X304734D01*
X305400Y205194D01*
Y206526D01*
X304734Y207193D01*
X302068D01*
X301401Y206526D01*
X165566Y133499D02*
X162900D01*
Y131499D01*
X164233Y132166D01*
X164899D01*
X165566Y131499D01*
Y130166D01*
X164899Y129500D01*
X163567D01*
X162900Y130166D01*
X166899Y133499D02*
Y130833D01*
X168232Y129500D01*
X169564Y130833D01*
Y133499D01*
X307101Y270464D02*
Y267799D01*
X309101D01*
X308434Y269132D01*
Y269798D01*
X309101Y270464D01*
X310434D01*
X311100Y269798D01*
Y268465D01*
X310434Y267799D01*
X307101Y271797D02*
X309767D01*
X311100Y273130D01*
X309767Y274463D01*
X307101D01*
X333165Y39932D02*
X332498Y40599D01*
X331165D01*
X330499Y39932D01*
Y37266D01*
X331165Y36600D01*
X332498D01*
X333165Y37266D01*
Y38599D01*
X331832D01*
X334497Y36600D02*
Y40599D01*
X337163Y36600D01*
Y40599D01*
X338496D02*
Y36600D01*
X340495D01*
X341162Y37266D01*
Y39932D01*
X340495Y40599D01*
X338496D01*
X145201Y208500D02*
X147867D01*
X149200Y209833D01*
X147867Y211166D01*
X145201D01*
Y212499D02*
X149200D01*
Y214498D01*
X148533Y215164D01*
X147867D01*
X147201Y214498D01*
Y212499D01*
Y214498D01*
X146534Y215164D01*
X145868D01*
X145201Y214498D01*
Y212499D01*
X149200Y216497D02*
X146534D01*
X145201Y217830D01*
X146534Y219163D01*
X149200D01*
X147201D01*
Y216497D01*
X145201Y220496D02*
Y223162D01*
Y221829D01*
X149200D01*
X132700Y299799D02*
Y297133D01*
X134033Y295800D01*
X135366Y297133D01*
Y299799D01*
X136699D02*
X138032D01*
X137365D01*
Y295800D01*
X136699D01*
X138032D01*
X140031D02*
Y299799D01*
X142697Y295800D01*
Y299799D01*
X242466Y215232D02*
X241799Y215899D01*
X240466D01*
X239800Y215232D01*
Y212566D01*
X240466Y211900D01*
X241799D01*
X242466Y212566D01*
X243799Y211900D02*
X245132D01*
X244465D01*
Y215899D01*
X243799Y215232D01*
X249797Y211900D02*
X247131D01*
X249797Y214566D01*
Y215232D01*
X249130Y215899D01*
X247797D01*
X247131Y215232D01*
X291568Y147466D02*
X290901Y146799D01*
Y145466D01*
X291568Y144800D01*
X294234D01*
X294900Y145466D01*
Y146799D01*
X294234Y147466D01*
X294900Y151464D02*
Y148799D01*
X292234Y151464D01*
X291568D01*
X290901Y150798D01*
Y149465D01*
X291568Y148799D01*
Y152797D02*
X290901Y153464D01*
Y154797D01*
X291568Y155463D01*
X294234D01*
X294900Y154797D01*
Y153464D01*
X294234Y152797D01*
X291568D01*
X179066Y258332D02*
X178399Y258999D01*
X177067D01*
X176400Y258332D01*
Y255666D01*
X177067Y255000D01*
X178399D01*
X179066Y255666D01*
X183064Y255000D02*
X180399D01*
X183064Y257666D01*
Y258332D01*
X182398Y258999D01*
X181065D01*
X180399Y258332D01*
X187063Y258999D02*
X184397D01*
Y256999D01*
X185730Y257666D01*
X186397D01*
X187063Y256999D01*
Y255666D01*
X186397Y255000D01*
X185064D01*
X184397Y255666D01*
X271300Y179616D02*
X267301D01*
Y181615D01*
X267968Y182282D01*
X269301D01*
X269967Y181615D01*
Y179616D01*
Y180949D02*
X271300Y182282D01*
Y183615D02*
Y184947D01*
Y184281D01*
X267301D01*
X267968Y183615D01*
X271300Y189613D02*
Y186947D01*
X268634Y189613D01*
X267968D01*
X267301Y188946D01*
Y187613D01*
X267968Y186947D01*
X181866Y111632D02*
X181199Y112299D01*
X179867D01*
X179200Y111632D01*
Y110966D01*
X179867Y110299D01*
X181199D01*
X181866Y109633D01*
Y108967D01*
X181199Y108300D01*
X179867D01*
X179200Y108967D01*
X185864Y112299D02*
X183199D01*
Y108300D01*
X185864D01*
X183199Y110299D02*
X184532D01*
X187197Y108300D02*
Y112299D01*
X189863Y108300D01*
Y112299D01*
X193862Y111632D02*
X193195Y112299D01*
X191863D01*
X191196Y111632D01*
Y110966D01*
X191863Y110299D01*
X193195D01*
X193862Y109633D01*
Y108967D01*
X193195Y108300D01*
X191863D01*
X191196Y108967D01*
X197861Y112299D02*
X195195D01*
Y108300D01*
X197861D01*
X195195Y110299D02*
X196528D01*
X134900Y100400D02*
X130901D01*
X132234Y101733D01*
X130901Y103066D01*
X134900D01*
X130901Y104399D02*
Y105732D01*
Y105065D01*
X134900D01*
Y104399D01*
Y105732D01*
X131568Y110397D02*
X130901Y109730D01*
Y108397D01*
X131568Y107731D01*
X134233D01*
X134900Y108397D01*
Y109730D01*
X134233Y110397D01*
X168000Y240999D02*
Y238333D01*
X169333Y237000D01*
X170666Y238333D01*
Y240999D01*
X171999Y237000D02*
Y240999D01*
X173998D01*
X174664Y240332D01*
Y238999D01*
X173998Y238333D01*
X171999D01*
X173332D02*
X174664Y237000D01*
X178663Y240999D02*
X175997D01*
Y237000D01*
X178663D01*
X175997Y238999D02*
X177330D01*
X182662Y240332D02*
X181995Y240999D01*
X180663D01*
X179996Y240332D01*
Y237666D01*
X180663Y237000D01*
X181995D01*
X182662Y237666D01*
Y238999D01*
X181329D01*
X209566Y163232D02*
X208899Y163899D01*
X207566D01*
X206900Y163232D01*
Y162566D01*
X207566Y161899D01*
X208899D01*
X209566Y161233D01*
Y160566D01*
X208899Y159900D01*
X207566D01*
X206900Y160566D01*
X210899Y163232D02*
X211565Y163899D01*
X212898D01*
X213564Y163232D01*
Y160566D01*
X212898Y159900D01*
X211565D01*
X210899Y160566D01*
Y163232D01*
X359095Y23899D02*
X361761D01*
X360428D01*
Y19900D01*
X365093D02*
X363760D01*
X363093Y20567D01*
Y21899D01*
X363760Y22566D01*
X365093D01*
X365759Y21899D01*
Y21233D01*
X363093D01*
X367759Y22566D02*
X369092D01*
X369758Y21899D01*
Y19900D01*
X367759D01*
X367092Y20567D01*
X367759Y21233D01*
X369758D01*
X371091Y19900D02*
Y22566D01*
X371757D01*
X372424Y21899D01*
Y19900D01*
Y21899D01*
X373090Y22566D01*
X373757Y21899D01*
Y19900D01*
X379088Y23232D02*
X379755Y23899D01*
X381088D01*
X381754Y23232D01*
Y22566D01*
X381088Y21899D01*
X380421D01*
X381088D01*
X381754Y21233D01*
Y20567D01*
X381088Y19900D01*
X379755D01*
X379088Y20567D01*
X385753Y23899D02*
X383087D01*
Y19900D01*
X385753D01*
X383087Y21899D02*
X384420D01*
X387086Y19900D02*
Y23899D01*
X389085D01*
X389752Y23232D01*
Y21899D01*
X389085Y21233D01*
X387086D01*
X388419D02*
X389752Y19900D01*
X348700Y13900D02*
Y17899D01*
X350699D01*
X351366Y17232D01*
Y15899D01*
X350699Y15233D01*
X348700D01*
X353365Y16566D02*
X354698D01*
X355364Y15899D01*
Y13900D01*
X353365D01*
X352699Y14567D01*
X353365Y15233D01*
X355364D01*
X356697Y13900D02*
Y16566D01*
X358697D01*
X359363Y15899D01*
Y13900D01*
X361363D02*
X362696D01*
X363362Y14567D01*
Y15899D01*
X362696Y16566D01*
X361363D01*
X360696Y15899D01*
Y14567D01*
X361363Y13900D01*
X364695Y12567D02*
Y16566D01*
X366694D01*
X367361Y15899D01*
Y14567D01*
X366694Y13900D01*
X364695D01*
X369360Y17232D02*
Y16566D01*
X368694D01*
X370026D01*
X369360D01*
Y14567D01*
X370026Y13900D01*
X372026D02*
X373359D01*
X372692D01*
Y16566D01*
X372026D01*
X375358Y13900D02*
Y17899D01*
X378024Y13900D01*
Y17899D01*
X380023Y13900D02*
X381356D01*
X382023Y14567D01*
Y15899D01*
X381356Y16566D01*
X380023D01*
X379357Y15899D01*
Y14567D01*
X380023Y13900D01*
X386021Y17899D02*
Y13900D01*
X384022D01*
X383355Y14567D01*
Y15899D01*
X384022Y16566D01*
X386021D01*
X389353Y13900D02*
X388021D01*
X387354Y14567D01*
Y15899D01*
X388021Y16566D01*
X389353D01*
X390020Y15899D01*
Y15233D01*
X387354D01*
X376500Y11999D02*
Y9333D01*
X377833Y8000D01*
X379166Y9333D01*
Y11999D01*
X380499Y8000D02*
X381832D01*
X381165D01*
Y11999D01*
X380499Y11332D01*
X383831Y8000D02*
Y8666D01*
X384497D01*
Y8000D01*
X383831D01*
X387163Y11332D02*
X387830Y11999D01*
X389163D01*
X389829Y11332D01*
Y8666D01*
X389163Y8000D01*
X387830D01*
X387163Y8666D01*
Y11332D01*
X340000Y161999D02*
Y158667D01*
X340666Y158000D01*
X341999D01*
X342666Y158667D01*
Y161999D01*
X343999Y158000D02*
Y160666D01*
X345332Y161999D01*
X346665Y160666D01*
Y158000D01*
Y159999D01*
X343999D01*
X347997Y158000D02*
Y161999D01*
X349997D01*
X350663Y161332D01*
Y159999D01*
X349997Y159333D01*
X347997D01*
X349330D02*
X350663Y158000D01*
X351996Y161999D02*
X354662D01*
X353329D01*
Y158000D01*
X355995Y157334D02*
X358661D01*
X359994Y158000D02*
Y161999D01*
X361993D01*
X362659Y161332D01*
Y159999D01*
X361993Y159333D01*
X359994D01*
X361327D02*
X362659Y158000D01*
X363992Y161999D02*
X366658Y158000D01*
Y161999D02*
X363992Y158000D01*
X340000Y151999D02*
Y148667D01*
X340666Y148000D01*
X341999D01*
X342666Y148667D01*
Y151999D01*
X343999Y148000D02*
Y150666D01*
X345332Y151999D01*
X346665Y150666D01*
Y148000D01*
Y149999D01*
X343999D01*
X347997Y148000D02*
Y151999D01*
X349997D01*
X350663Y151332D01*
Y149999D01*
X349997Y149333D01*
X347997D01*
X349330D02*
X350663Y148000D01*
X351996Y151999D02*
X354662D01*
X353329D01*
Y148000D01*
X355995Y147334D02*
X358661D01*
X359994Y151999D02*
X362659D01*
X361327D01*
Y148000D01*
X363992Y151999D02*
X366658Y148000D01*
Y151999D02*
X363992Y148000D01*
X395400Y98700D02*
Y102699D01*
X396733Y101366D01*
X398066Y102699D01*
Y98700D01*
X402065Y102699D02*
X399399D01*
Y98700D01*
X402065D01*
X399399Y100699D02*
X400732D01*
X403397Y98700D02*
Y102699D01*
X404730Y101366D01*
X406063Y102699D01*
Y98700D01*
X407396Y98033D02*
X410062D01*
X411395Y102699D02*
Y98700D01*
Y100699D01*
X414061D01*
Y102699D01*
Y98700D01*
X415393Y102699D02*
Y98700D01*
X418059D01*
X419392Y102699D02*
Y98700D01*
X421392D01*
X422058Y99366D01*
Y102032D01*
X421392Y102699D01*
X419392D01*
X424057Y98700D02*
Y102699D01*
X425390D02*
Y98700D01*
X423391Y101366D02*
X425390D01*
X426057D01*
X423391Y100033D02*
X426057D01*
X398066Y91866D02*
X397399Y92532D01*
X396066D01*
X395400Y91866D01*
Y91199D01*
X396066Y90533D01*
X397399D01*
X398066Y89866D01*
Y89200D01*
X397399Y88533D01*
X396066D01*
X395400Y89200D01*
X399399Y88533D02*
Y92532D01*
X401398D01*
X402065Y91866D01*
Y90533D01*
X401398Y89866D01*
X399399D01*
X403397Y92532D02*
X404730D01*
X404064D01*
Y88533D01*
X403397D01*
X404730D01*
X406730Y87867D02*
X409396D01*
X413394Y91866D02*
X412728Y92532D01*
X411395D01*
X410728Y91866D01*
Y89200D01*
X411395Y88533D01*
X412728D01*
X413394Y89200D01*
X414727Y92532D02*
Y88533D01*
X417393D01*
X418726Y92532D02*
Y88533D01*
Y89866D01*
X421392Y92532D01*
X419392Y90533D01*
X421392Y88533D01*
X398066Y81699D02*
X397399Y82365D01*
X396066D01*
X395400Y81699D01*
Y81032D01*
X396066Y80366D01*
X397399D01*
X398066Y79699D01*
Y79033D01*
X397399Y78367D01*
X396066D01*
X395400Y79033D01*
X399399Y78367D02*
Y82365D01*
X401398D01*
X402065Y81699D01*
Y80366D01*
X401398Y79699D01*
X399399D01*
X403397Y82365D02*
X404730D01*
X404064D01*
Y78367D01*
X403397D01*
X404730D01*
X406730Y77700D02*
X409396D01*
X410728Y82365D02*
X413394D01*
X412061D01*
Y78367D01*
X414727Y82365D02*
X417393Y78367D01*
Y82365D02*
X414727Y78367D01*
X395400Y68200D02*
Y72199D01*
X396733Y70866D01*
X398066Y72199D01*
Y68200D01*
X402065Y72199D02*
X399399D01*
Y68200D01*
X402065D01*
X399399Y70199D02*
X400732D01*
X403397Y68200D02*
Y72199D01*
X404730Y70866D01*
X406063Y72199D01*
Y68200D01*
X407396Y67533D02*
X410062D01*
X414061Y71532D02*
X413394Y72199D01*
X412061D01*
X411395Y71532D01*
Y68866D01*
X412061Y68200D01*
X413394D01*
X414061Y68866D01*
X418059Y71532D02*
X417393Y72199D01*
X416060D01*
X415393Y71532D01*
Y70866D01*
X416060Y70199D01*
X417393D01*
X418059Y69533D01*
Y68866D01*
X417393Y68200D01*
X416060D01*
X415393Y68866D01*
X398066Y61366D02*
X397399Y62032D01*
X396066D01*
X395400Y61366D01*
Y60699D01*
X396066Y60033D01*
X397399D01*
X398066Y59366D01*
Y58700D01*
X397399Y58033D01*
X396066D01*
X395400Y58700D01*
X399399Y58033D02*
Y62032D01*
X401398D01*
X402065Y61366D01*
Y60033D01*
X401398Y59366D01*
X399399D01*
X403397Y62032D02*
X404730D01*
X404064D01*
Y58033D01*
X403397D01*
X404730D01*
X406730Y57367D02*
X409396D01*
X410728Y58033D02*
Y62032D01*
X412728D01*
X413394Y61366D01*
Y60033D01*
X412728Y59366D01*
X410728D01*
X412061D02*
X413394Y58033D01*
X414727Y62032D02*
X417393Y58033D01*
Y62032D02*
X414727Y58033D01*
X395400Y47867D02*
Y51865D01*
X396733Y50533D01*
X398066Y51865D01*
Y47867D01*
X402065Y51865D02*
X399399D01*
Y47867D01*
X402065D01*
X399399Y49866D02*
X400732D01*
X403397Y47867D02*
Y51865D01*
X404730Y50533D01*
X406063Y51865D01*
Y47867D01*
X407396Y47200D02*
X410062D01*
X411395Y51865D02*
Y47867D01*
X412728Y49200D01*
X414061Y47867D01*
Y51865D01*
X415393Y47867D02*
Y51865D01*
X417393D01*
X418059Y51199D01*
Y49866D01*
X417393Y49200D01*
X415393D01*
X420059Y47867D02*
Y51865D01*
X421392D02*
Y47867D01*
X419392Y50533D02*
X421392D01*
X422058D01*
X419392Y49200D02*
X422058D01*
X395400Y41699D02*
Y37700D01*
X396733Y39033D01*
X398066Y37700D01*
Y41699D01*
X399399D02*
X400732D01*
X400065D01*
Y37700D01*
X399399D01*
X400732D01*
X405397Y41699D02*
X402731D01*
Y39699D01*
X404064D01*
X402731D01*
Y37700D01*
X406730Y41699D02*
X408063D01*
X407396D01*
Y37700D01*
X406730D01*
X408063D01*
X410062Y37034D02*
X412728D01*
X414061Y41699D02*
X415393D01*
X414727D01*
Y37700D01*
X414061D01*
X415393D01*
X417393D02*
Y41699D01*
X420059Y37700D01*
Y41699D01*
X421392D02*
X424057D01*
X422724D01*
Y37700D01*
X450500Y400D02*
Y351500D01*
X99500Y400D02*
X450500D01*
X99500Y351500D02*
X450500D01*
X99500Y400D02*
Y351500D01*
D47*
X297582Y232100D02*
Y238600D01*
X307818Y232600D02*
Y238600D01*
X106115Y238283D02*
X112020D01*
X106115Y273717D02*
X112020D01*
X106115Y238283D02*
Y273717D01*
D58*
X262992Y167354D02*
G03*
X262992Y167354I-394J0D01*
G01*
X262828Y167394D02*
G03*
X262828Y167394I-230J0D01*
G01*
X262774Y167315D02*
G03*
X262774Y167315I-176J0D01*
G01*
X262615Y167394D02*
G03*
X262615Y167394I-56J0D01*
G01*
X233824Y278562D02*
X234612D01*
X234218Y278169D02*
Y278956D01*
D59*
X139292Y119041D02*
G03*
X139292Y119041I-1392J0D01*
G01*
X263000Y322600D02*
G03*
X263000Y322600I-1392J0D01*
G01*
X331033Y322200D02*
G03*
X331033Y322200I-1392J0D01*
G01*
X188933Y321500D02*
G03*
X188933Y321500I-1392J0D01*
G01*
X179551Y321700D02*
G03*
X179551Y321700I-1392J0D01*
G01*
D60*
X169500Y264000D02*
G03*
X169500Y264000I-500J0D01*
G01*
X339275Y99300D02*
G03*
X339275Y99300I-519J0D01*
G01*
X234417Y183110D02*
G03*
X234417Y183110I-339J0D01*
G01*
X143694Y188406D02*
G03*
X143694Y188406I-500J0D01*
G01*
X263779Y164598D02*
Y165779D01*
X262598D02*
X263779D01*
X236221D02*
X237402D01*
X236221Y164598D02*
Y165779D01*
X262598Y138221D02*
X263779D01*
Y139402D01*
X236221Y138221D02*
Y139402D01*
Y138221D02*
X237402D01*
X117231Y133805D02*
Y167269D01*
X158569Y133805D02*
Y167269D01*
X117231Y133805D02*
X125105Y125931D01*
X150695D02*
X158569Y133805D01*
X144790Y125931D02*
X150695D01*
X125105D02*
X131010D01*
X143806Y167269D02*
X158569D01*
X117231D02*
X131994D01*
X343579Y96946D02*
X358933D01*
X343579Y77654D02*
X358933D01*
X140979Y49626D02*
X144979D01*
X142979Y47626D02*
Y51626D01*
X268307Y283080D02*
Y288592D01*
X294291D01*
Y283080D02*
Y288592D01*
X268307Y262608D02*
Y268120D01*
Y262608D02*
X294291D01*
Y268120D01*
X168708Y203109D02*
X174220D01*
X168708D02*
Y229093D01*
X174220D01*
X189180Y203109D02*
X194692D01*
Y229093D01*
X189180D02*
X194692D01*
X276372Y343269D02*
X309836D01*
X276372Y301931D02*
X309836D01*
X268498Y335395D02*
X276372Y343269D01*
X268498Y309805D02*
X276372Y301931D01*
X268498Y309805D02*
Y315710D01*
Y329490D02*
Y335395D01*
X309836Y301931D02*
Y316694D01*
Y328505D02*
Y343269D01*
X344405Y342869D02*
X377869D01*
X344405Y301531D02*
X377869D01*
X336531Y334995D02*
X344405Y342869D01*
X336531Y309405D02*
X344405Y301531D01*
X336531Y309405D02*
Y315310D01*
Y329090D02*
Y334995D01*
X377869Y301531D02*
Y316295D01*
Y328105D02*
Y342869D01*
X202305Y342169D02*
X235769D01*
X202305Y300831D02*
X235769D01*
X194431Y334295D02*
X202305Y342169D01*
X194431Y308705D02*
X202305Y300831D01*
X194431Y308705D02*
Y314610D01*
Y328390D02*
Y334295D01*
X235769Y300831D02*
Y315595D01*
Y327406D02*
Y342169D01*
X129931Y301031D02*
X163395D01*
X129931Y342369D02*
X163395D01*
Y301031D02*
X171269Y308905D01*
X163395Y342369D02*
X171269Y334495D01*
Y328590D02*
Y334495D01*
Y308905D02*
Y314810D01*
X129931Y327606D02*
Y342369D01*
Y301031D02*
Y315794D01*
X225753Y273641D02*
X232447D01*
X225753Y278759D02*
X232447D01*
X238213Y194921D02*
X239787D01*
X238213Y185079D02*
X239787D01*
X232701Y189213D02*
Y190787D01*
X245299Y189213D02*
Y190787D01*
X114258Y180236D02*
Y211535D01*
X209360Y178500D02*
X213700D01*
X207360Y180500D02*
X209360Y178500D01*
X196342D02*
X200681D01*
X202681Y180500D01*
X209360Y170000D02*
X213700D01*
X207360Y168000D02*
X209360Y170000D01*
X196342D02*
X200681D01*
X202681Y168000D01*
X207360D01*
X213700Y170000D02*
Y178500D01*
X196342Y170000D02*
Y178500D01*
X202681Y180500D02*
X207360D01*
D61*
X220100Y241400D02*
G03*
X217700Y241400I-1200J0D01*
G01*
X196200Y269700D02*
Y284300D01*
X169800D02*
X196200D01*
X169800Y269700D02*
Y284300D01*
Y269700D02*
X196200D01*
X220100Y241400D02*
X226500D01*
X217700D02*
X220100D01*
X211300D02*
X217700D01*
X211300Y267400D02*
X226500D01*
X271800Y232400D02*
X288600D01*
X271800Y253200D02*
X288600D01*
X155300Y77000D02*
Y84200D01*
X167500Y77000D02*
Y84200D01*
D62*
X381400Y105700D02*
X391400D01*
Y35700D02*
Y105700D01*
X381400Y35700D02*
X391400D01*
X381400D02*
Y105700D01*
X308000Y186200D02*
Y206200D01*
Y186200D02*
X318000D01*
Y206200D01*
X308000D02*
X318000D01*
X252000Y230000D02*
Y250000D01*
Y230000D02*
X262000D01*
Y250000D01*
X252000D02*
X262000D01*
X337776Y146181D02*
Y166181D01*
X327776D02*
X337776D01*
X327776Y146181D02*
Y166181D01*
Y146181D02*
X337776D01*
X257578Y190413D02*
Y191987D01*
X254822Y190413D02*
Y191987D01*
X305900Y4800D02*
Y64800D01*
X315900Y4800D02*
Y64800D01*
X305900D02*
X315900D01*
X305900Y4800D02*
X315900D01*
X175600Y43700D02*
X185600D01*
Y13700D02*
Y43700D01*
X175600Y13700D02*
X185600D01*
X175600D02*
Y43700D01*
X162700D02*
X172700D01*
Y13700D02*
Y43700D01*
X162700Y13700D02*
X172700D01*
X162700D02*
Y43700D01*
X367400Y175020D02*
Y185020D01*
X417400D01*
X367400Y175020D02*
X417400D01*
Y185020D01*
X317878Y222413D02*
Y223987D01*
X315122Y222413D02*
Y223987D01*
X243213Y246622D02*
X244787D01*
X243213Y249378D02*
X244787D01*
X173013Y73078D02*
X174587D01*
X173013Y70322D02*
X174587D01*
X172265Y65978D02*
X173840D01*
X172265Y63222D02*
X173840D01*
X146765Y60422D02*
X148340D01*
X146765Y63178D02*
X148340D01*
X206613Y189878D02*
X208187D01*
X206613Y187122D02*
X208187D01*
X390813Y189778D02*
X392387D01*
X390813Y187022D02*
X392387D01*
X208900Y62000D02*
X218900D01*
Y12000D02*
Y62000D01*
X208900Y12000D02*
Y62000D01*
Y12000D02*
X218900D01*
X221000Y208000D02*
X281000D01*
X221000Y198000D02*
X281000D01*
Y208000D01*
X221000Y198000D02*
Y208000D01*
X229022Y126113D02*
Y127687D01*
X231778Y126113D02*
Y127687D01*
X221500Y218000D02*
X231500D01*
X221500D02*
Y238000D01*
X231500D01*
Y218000D02*
Y238000D01*
X208713Y153622D02*
X210287D01*
X208713Y156378D02*
X210287D01*
X147213Y89378D02*
X148787D01*
X147213Y86622D02*
X148787D01*
X236878Y235213D02*
Y236787D01*
X234122Y235213D02*
Y236787D01*
X286335Y120547D02*
X290665D01*
X286335Y126453D02*
X290665D01*
X262722Y184413D02*
Y185987D01*
X265478Y184413D02*
Y185987D01*
X111300Y62700D02*
X121300D01*
X111300D02*
Y82700D01*
X121300D01*
Y62700D02*
Y82700D01*
M02*
