G04 Layer_Color=16711935*
%FSLAX25Y25*%
%MOIN*%
G70*
G01*
G75*
%ADD44C,0.01000*%
%ADD47C,0.00800*%
%ADD97C,0.08800*%
%ADD98C,0.06706*%
%ADD99R,0.06706X0.06706*%
%ADD100C,0.06800*%
%ADD101C,0.05950*%
%ADD102R,0.05950X0.05950*%
%ADD103C,0.04800*%
%ADD104R,0.06706X0.06706*%
%ADD105C,0.02800*%
%ADD106C,0.05800*%
D44*
X450500Y400D02*
Y351500D01*
X99500Y400D02*
X450500D01*
X99500Y351500D02*
X450500D01*
X99500Y400D02*
Y351500D01*
D47*
X106115Y238283D02*
X112020D01*
X106115Y273717D02*
X112020D01*
X106115Y238283D02*
Y273717D01*
D97*
X143800Y256000D02*
D03*
X125800D02*
D03*
D98*
X386400Y60700D02*
D03*
Y50700D02*
D03*
Y70700D02*
D03*
Y80700D02*
D03*
Y90700D02*
D03*
Y100700D02*
D03*
X313000Y201200D02*
D03*
X257000Y245000D02*
D03*
X332776Y151181D02*
D03*
X310900Y9800D02*
D03*
Y19800D02*
D03*
Y29800D02*
D03*
Y39800D02*
D03*
Y49800D02*
D03*
X180600Y18700D02*
D03*
Y28700D02*
D03*
X167700Y18700D02*
D03*
Y28700D02*
D03*
X412400Y180020D02*
D03*
X402400D02*
D03*
X392400D02*
D03*
X382400D02*
D03*
X213900Y27000D02*
D03*
Y37000D02*
D03*
Y47000D02*
D03*
Y57000D02*
D03*
X226000Y203000D02*
D03*
X236000D02*
D03*
X246000D02*
D03*
X256000D02*
D03*
X266000D02*
D03*
X226500Y223000D02*
D03*
X116300Y67700D02*
D03*
D99*
X386400Y40700D02*
D03*
X313000Y191200D02*
D03*
X257000Y235000D02*
D03*
X332776Y161181D02*
D03*
X310900Y59800D02*
D03*
X180600Y38700D02*
D03*
X167700D02*
D03*
X213900Y17000D02*
D03*
X226500Y233000D02*
D03*
X116300Y77700D02*
D03*
D100*
X331299Y180020D02*
D03*
Y288287D02*
D03*
X439567D02*
D03*
Y180020D02*
D03*
D101*
X133057Y43500D02*
D03*
D102*
X142900D02*
D03*
D103*
X176600Y154900D02*
D03*
X196600D02*
D03*
Y134900D02*
D03*
D104*
X372400Y180020D02*
D03*
X276000Y203000D02*
D03*
D105*
X242300Y143400D02*
D03*
Y146200D02*
D03*
Y151900D02*
D03*
Y149100D02*
D03*
Y157700D02*
D03*
Y160500D02*
D03*
Y154800D02*
D03*
X244800Y143400D02*
D03*
Y146200D02*
D03*
Y151900D02*
D03*
Y149100D02*
D03*
Y157700D02*
D03*
Y160500D02*
D03*
Y154800D02*
D03*
X247400Y143500D02*
D03*
Y146300D02*
D03*
Y152000D02*
D03*
Y149200D02*
D03*
Y157800D02*
D03*
Y160600D02*
D03*
Y154900D02*
D03*
X250100Y143500D02*
D03*
Y146300D02*
D03*
Y152000D02*
D03*
Y149200D02*
D03*
Y157800D02*
D03*
Y160600D02*
D03*
Y154900D02*
D03*
X252700Y143500D02*
D03*
Y146300D02*
D03*
Y152000D02*
D03*
Y149200D02*
D03*
Y157800D02*
D03*
Y160600D02*
D03*
Y154900D02*
D03*
X255400Y143600D02*
D03*
Y146400D02*
D03*
Y152100D02*
D03*
Y149300D02*
D03*
Y157900D02*
D03*
Y160700D02*
D03*
Y155000D02*
D03*
X258400D02*
D03*
Y160700D02*
D03*
Y157900D02*
D03*
Y149300D02*
D03*
Y152100D02*
D03*
Y146400D02*
D03*
Y143600D02*
D03*
X203000Y289400D02*
D03*
X210400Y282000D02*
D03*
X216700Y287700D02*
D03*
X209100Y295000D02*
D03*
X313700Y156800D02*
D03*
X297800Y157000D02*
D03*
X313700Y166500D02*
D03*
X298000Y166600D02*
D03*
D106*
X147600Y160900D02*
D03*
X176300Y79000D02*
D03*
X260100Y177700D02*
D03*
X254500Y97400D02*
D03*
X241600Y223500D02*
D03*
X220100Y214600D02*
D03*
X320800Y112000D02*
D03*
X324300Y81800D02*
D03*
X341300Y73500D02*
D03*
X174200Y110100D02*
D03*
X239200Y260800D02*
D03*
X140600Y91800D02*
D03*
X306600Y152400D02*
D03*
Y170500D02*
D03*
X220400Y172100D02*
D03*
X158200Y58100D02*
D03*
X262300Y108400D02*
D03*
X308700Y97400D02*
D03*
X241100Y52600D02*
D03*
X165600Y55100D02*
D03*
X246000Y231000D02*
D03*
X149816Y242416D02*
D03*
X126000Y243000D02*
D03*
X123300Y322000D02*
D03*
X371400Y334800D02*
D03*
X303500Y333100D02*
D03*
X239300Y8500D02*
D03*
X295200Y12900D02*
D03*
X412500Y330000D02*
D03*
X265000Y229000D02*
D03*
X213000Y237500D02*
D03*
X218366Y272500D02*
D03*
X255500Y258000D02*
D03*
X238000Y267500D02*
D03*
X244000Y322500D02*
D03*
X257000Y122000D02*
D03*
X269500Y123000D02*
D03*
X267000Y137500D02*
D03*
X202000Y280000D02*
D03*
X151000Y80500D02*
D03*
X258700Y32200D02*
D03*
X258600Y39500D02*
D03*
Y46500D02*
D03*
Y25900D02*
D03*
X221298Y78498D02*
D03*
X230500Y116800D02*
D03*
X274200Y143300D02*
D03*
X280500Y146500D02*
D03*
X150900Y98800D02*
D03*
X162300Y105000D02*
D03*
X369700Y101600D02*
D03*
X305700Y76400D02*
D03*
X257200Y73100D02*
D03*
X260100Y94500D02*
D03*
X249600Y92500D02*
D03*
X250400Y72500D02*
D03*
X270400Y73800D02*
D03*
X264000Y73600D02*
D03*
X248100Y66100D02*
D03*
X285400Y84300D02*
D03*
X153200Y67200D02*
D03*
X291800Y255800D02*
D03*
X276800Y26500D02*
D03*
Y33100D02*
D03*
X277000Y40500D02*
D03*
Y47700D02*
D03*
X117951Y191949D02*
D03*
X150300Y188200D02*
D03*
X267700Y93600D02*
D03*
X183000Y274000D02*
D03*
X219200Y263800D02*
D03*
X322000Y31000D02*
D03*
X216500Y295000D02*
D03*
X170400Y289900D02*
D03*
X161200Y256800D02*
D03*
X250000Y190000D02*
D03*
X253300Y177650D02*
D03*
X199300Y251200D02*
D03*
X189500Y237900D02*
D03*
X215900Y188400D02*
D03*
M02*
