M48
;Layer_Color=9474304
;FILE_FORMAT=2:5
INCH,LZ
;TYPE=PLATED
T1F00S00C0.01000
T2F00S00C0.01800
T3F00S00C0.02800
T4F00S00C0.03150
T5F00S00C0.03543
%
T01
X02423Y01434
X02448
X02474Y01435
X02501
X02527
Y01463
X02501
X02474
X02448Y01462
X02423
Y01491
X02448
X02474Y01492
X02501
X02527
Y0152
X02501
X02474
X02448Y01519
X02423
Y01548
X02448
X02474Y01549
X02501
X02527
X02554Y0155
Y01521
Y01493
Y01464
Y01436
X02584
Y01464
Y01493
Y01521
Y0155
X03137Y01568
Y01665
X0298Y01666
X02978Y0157
X02584Y01579
Y01607
X02554
X02527Y01606
X02501
X02474
X02448Y01605
X02423
Y01577
X02448
X02474Y01578
X02501
X02527
X02554Y01579
X02167Y02877
X02104Y0282
X02091Y0295
X0203Y02894
T02
X01766Y01549
X01966
Y01349
T03
X01532Y00672
X0151Y00805
X01509Y00988
X01406Y00918
X01623Y0105
X01742Y01101
X01763Y0079
X01656Y00551
X01582Y00581
X0221298Y0078498
X02504Y00725
X02572Y00731
X0264Y00736
X02704Y00738
X02677Y00936
X02601Y00945
X02545Y00974
X02496Y00925
X02481Y00661
X02411Y00526
X02586Y00465
Y00395
X02587Y00322
X02586Y00259
X02768Y00265
Y00331
X0277Y00405
Y00477
X02854Y00843
X03057Y00764
X03087Y00974
X03066Y01524
X02805Y01465
X02742Y01433
X0267Y01375
X02695Y0123
X0257Y0122
X02623Y01084
X02305Y01168
X02393Y00085
X02952Y00129
X0322Y0031
X03243Y00818
X03413Y00735
X03697Y01016
X03208Y0112
X03066Y01705
X02601Y01777
X02533Y017765
X025Y019
X02159Y01884
X02204Y01721
X02201Y02146
X0213Y02375
X01895Y02379
X01993Y02512
X0202Y028
X0218366Y02725
X02192Y02638
X0238Y02675
X02392Y02608
X02555Y0258
X0246Y0231
X02416Y02235
X0265Y0229
X02918Y02558
X02165Y0295
X01704Y02899
X0183Y0274
X01612Y02568
X0149816Y0242416
X0126Y0243
X0117951Y0191949
X01503Y01882
X01476Y01609
X01233Y0322
X0244Y03225
X03035Y03331
X03714Y03348
X04125Y033
T04
X0133057Y00435
X01429
T05
X01163Y00677
Y00777
X01677Y00387
Y00287
Y00187
X01806
Y00287
Y00387
X02139Y0037
Y0027
Y0017
Y0047
Y0057
X03109Y00598
Y00498
Y00398
Y00298
Y00198
Y00098
X03864Y00407
Y00507
Y00607
Y00707
Y00807
Y00907
Y01007
X0332776Y0151181
Y0161181
X0313Y01912
Y02012
X03724Y018002
X03824
X03924
X04024
X04124
X0276Y0203
X0266
X0256
X0246
X0236
X0226
X02265Y0223
Y0233
X0257Y0235
Y0245
M30
