G04 Layer_Color=8421504*
%FSLAX25Y25*%
%MOIN*%
G70*
G01*
G75*
%ADD10R,0.01024X0.03386*%
%ADD11R,0.03386X0.01024*%
%ADD12R,0.20866X0.20866*%
%ADD13R,0.09842X0.17323*%
%ADD14R,0.03500X0.06400*%
%ADD15R,0.12500X0.06400*%
%ADD16R,0.09400X0.13400*%
%ADD17R,0.05800X0.01400*%
%ADD18R,0.07800X0.02100*%
%ADD19R,0.07756X0.02362*%
%ADD20R,0.01000X0.02800*%
%ADD21R,0.09100X0.06700*%
%ADD22R,0.11024X0.09449*%
%ADD23R,0.14961X0.07992*%
%ADD24R,0.07992X0.14961*%
%ADD25R,0.02000X0.02000*%
G04:AMPARAMS|DCode=26|XSize=90.55mil|YSize=39.37mil|CornerRadius=19.68mil|HoleSize=0mil|Usage=FLASHONLY|Rotation=180.000|XOffset=0mil|YOffset=0mil|HoleType=Round|Shape=RoundedRectangle|*
%AMROUNDEDRECTD26*
21,1,0.09055,0.00000,0,0,180.0*
21,1,0.05118,0.03937,0,0,180.0*
1,1,0.03937,-0.02559,0.00000*
1,1,0.03937,0.02559,0.00000*
1,1,0.03937,0.02559,0.00000*
1,1,0.03937,-0.02559,0.00000*
%
%ADD26ROUNDEDRECTD26*%
G04:AMPARAMS|DCode=27|XSize=90.55mil|YSize=39.37mil|CornerRadius=19.68mil|HoleSize=0mil|Usage=FLASHONLY|Rotation=270.000|XOffset=0mil|YOffset=0mil|HoleType=Round|Shape=RoundedRectangle|*
%AMROUNDEDRECTD27*
21,1,0.09055,0.00000,0,0,270.0*
21,1,0.05118,0.03937,0,0,270.0*
1,1,0.03937,0.00000,-0.02559*
1,1,0.03937,0.00000,0.02559*
1,1,0.03937,0.00000,0.02559*
1,1,0.03937,0.00000,-0.02559*
%
%ADD27ROUNDEDRECTD27*%
%ADD28R,0.03543X0.02756*%
%ADD29R,0.03543X0.03150*%
%ADD30R,0.02756X0.03543*%
%ADD31R,0.11811X0.12598*%
%ADD32R,0.12598X0.11811*%
%ADD33R,0.09449X0.07087*%
%ADD34R,0.17323X0.09842*%
%ADD35R,0.03150X0.03543*%
%ADD36R,0.02000X0.02000*%
%ADD37R,0.03937X0.04331*%
%ADD38R,0.02362X0.01968*%
%ADD39R,0.04331X0.03858*%
%ADD40R,0.04528X0.08858*%
%ADD41R,0.21654X0.03937*%
%ADD42R,0.11811X0.06299*%
%ADD43R,0.02756X0.02756*%
%ADD44C,0.01000*%
%ADD47C,0.00800*%
G36*
X258698Y150761D02*
Y143402D01*
X251337D01*
Y150763D01*
X258698D01*
Y150761D01*
D02*
G37*
G36*
X248252Y143390D02*
X240894D01*
Y150773D01*
X248252D01*
Y143390D01*
D02*
G37*
G36*
X258710Y153847D02*
X251327D01*
Y161206D01*
X258710D01*
Y153847D01*
D02*
G37*
G36*
X248265Y153835D02*
X240881D01*
Y161219D01*
X248265D01*
Y153835D01*
D02*
G37*
D10*
X260827Y165524D02*
D03*
X258858D02*
D03*
X256890D02*
D03*
X254921D02*
D03*
X252953D02*
D03*
X250984D02*
D03*
X249016D02*
D03*
X247047D02*
D03*
X245079D02*
D03*
X243110D02*
D03*
X241142D02*
D03*
X239173D02*
D03*
Y138476D02*
D03*
X241142D02*
D03*
X243110D02*
D03*
X245079D02*
D03*
X247047D02*
D03*
X249016D02*
D03*
X250984D02*
D03*
X252953D02*
D03*
X254921D02*
D03*
X256890D02*
D03*
X258858D02*
D03*
X260827D02*
D03*
D11*
X236476Y162827D02*
D03*
Y160858D02*
D03*
Y158890D02*
D03*
Y156921D02*
D03*
Y154953D02*
D03*
Y152984D02*
D03*
Y151016D02*
D03*
Y149047D02*
D03*
Y147079D02*
D03*
Y145110D02*
D03*
Y143142D02*
D03*
Y141173D02*
D03*
X263524D02*
D03*
Y143142D02*
D03*
Y145110D02*
D03*
Y147079D02*
D03*
Y149047D02*
D03*
Y151016D02*
D03*
Y152984D02*
D03*
Y154953D02*
D03*
Y156921D02*
D03*
Y158890D02*
D03*
Y160858D02*
D03*
Y162827D02*
D03*
D12*
X250000Y152000D02*
D03*
D13*
X137900Y132033D02*
D03*
Y161167D02*
D03*
D14*
X173900Y264400D02*
D03*
X183000D02*
D03*
X192100D02*
D03*
D15*
X183000Y289600D02*
D03*
D16*
X218900Y254400D02*
D03*
D17*
X207400Y242900D02*
D03*
Y245400D02*
D03*
Y248000D02*
D03*
Y250600D02*
D03*
Y253100D02*
D03*
Y255700D02*
D03*
Y258200D02*
D03*
Y260800D02*
D03*
Y263400D02*
D03*
Y265900D02*
D03*
X230400D02*
D03*
Y263400D02*
D03*
Y260800D02*
D03*
Y258200D02*
D03*
Y255700D02*
D03*
Y253100D02*
D03*
Y250600D02*
D03*
Y248000D02*
D03*
Y245400D02*
D03*
Y242900D02*
D03*
D18*
X270500Y250300D02*
D03*
Y245300D02*
D03*
Y240300D02*
D03*
Y235300D02*
D03*
X289900D02*
D03*
Y240300D02*
D03*
Y245300D02*
D03*
Y250300D02*
D03*
D19*
X341512Y94800D02*
D03*
Y89800D02*
D03*
Y84800D02*
D03*
Y79800D02*
D03*
X361000D02*
D03*
Y84800D02*
D03*
Y89800D02*
D03*
Y94800D02*
D03*
D20*
X166100Y86500D02*
D03*
X164500D02*
D03*
X163000D02*
D03*
X161400D02*
D03*
X159800D02*
D03*
X158300D02*
D03*
X156700D02*
D03*
Y74700D02*
D03*
X158300D02*
D03*
X159800D02*
D03*
X161400D02*
D03*
X163000D02*
D03*
X164500D02*
D03*
X166100D02*
D03*
D21*
X161400Y80600D02*
D03*
D22*
X149816Y233559D02*
D03*
Y278441D02*
D03*
X125800Y233559D02*
D03*
Y278441D02*
D03*
D23*
X137500Y290600D02*
D03*
X337500Y31000D02*
D03*
X318900Y124000D02*
D03*
X427000Y330000D02*
D03*
X184300Y117800D02*
D03*
X175000Y246100D02*
D03*
D24*
X154800Y214900D02*
D03*
X316500Y274900D02*
D03*
X166100Y120600D02*
D03*
X291800Y198000D02*
D03*
X140600Y105700D02*
D03*
D25*
X294900Y78100D02*
D03*
D26*
X285524Y4680D02*
D03*
Y9601D02*
D03*
Y14522D02*
D03*
Y19443D02*
D03*
Y24365D02*
D03*
Y29286D02*
D03*
Y34207D02*
D03*
Y39128D02*
D03*
Y44050D02*
D03*
Y48971D02*
D03*
Y53892D02*
D03*
Y58813D02*
D03*
Y63735D02*
D03*
Y68656D02*
D03*
Y73577D02*
D03*
Y78498D02*
D03*
X231586D02*
D03*
Y73577D02*
D03*
Y68656D02*
D03*
Y63735D02*
D03*
Y58813D02*
D03*
Y53892D02*
D03*
Y48971D02*
D03*
Y44050D02*
D03*
Y39128D02*
D03*
Y34207D02*
D03*
Y29286D02*
D03*
Y24365D02*
D03*
Y19443D02*
D03*
Y14522D02*
D03*
Y9601D02*
D03*
Y4680D02*
D03*
X267610Y29286D02*
D03*
X249500D02*
D03*
X267610Y34207D02*
D03*
X249500D02*
D03*
X267610Y39128D02*
D03*
X249500D02*
D03*
X267610Y44050D02*
D03*
X249500D02*
D03*
X267610Y48971D02*
D03*
X249500D02*
D03*
X267610Y53892D02*
D03*
X249500D02*
D03*
D27*
X275779Y81845D02*
D03*
X270858D02*
D03*
X265937D02*
D03*
X261016D02*
D03*
X256094D02*
D03*
X251173D02*
D03*
X246252D02*
D03*
X241331D02*
D03*
D28*
X256200Y194153D02*
D03*
Y188247D02*
D03*
X316500Y226153D02*
D03*
Y220247D02*
D03*
X230400Y123947D02*
D03*
Y129853D02*
D03*
X235500Y238953D02*
D03*
Y233047D02*
D03*
X264100Y182247D02*
D03*
Y188153D02*
D03*
D29*
X262000Y127756D02*
D03*
Y122244D02*
D03*
X150300Y199756D02*
D03*
Y194244D02*
D03*
X162300Y99212D02*
D03*
Y93700D02*
D03*
X163500Y59944D02*
D03*
Y65456D02*
D03*
X286100Y132544D02*
D03*
Y138056D02*
D03*
X280800Y132444D02*
D03*
Y137956D02*
D03*
X275800Y132444D02*
D03*
Y137956D02*
D03*
X256500Y132256D02*
D03*
Y126744D02*
D03*
X194300Y240944D02*
D03*
Y246456D02*
D03*
X288000Y153456D02*
D03*
Y147944D02*
D03*
D30*
X246953Y248000D02*
D03*
X241047D02*
D03*
X170847Y71700D02*
D03*
X176753D02*
D03*
X170100Y64600D02*
D03*
X176005D02*
D03*
X150505Y61800D02*
D03*
X144600D02*
D03*
X204447Y188500D02*
D03*
X210353D02*
D03*
X388647Y188400D02*
D03*
X394553D02*
D03*
X212453Y155000D02*
D03*
X206547D02*
D03*
X145047Y88000D02*
D03*
X150953D02*
D03*
D31*
X270000Y275600D02*
D03*
X292598D02*
D03*
D32*
X181700Y204802D02*
D03*
Y227400D02*
D03*
D33*
X302700Y227128D02*
D03*
Y243072D02*
D03*
D34*
X274600Y322600D02*
D03*
X303734D02*
D03*
X342633Y322200D02*
D03*
X371767D02*
D03*
X200533Y321500D02*
D03*
X229667D02*
D03*
X165167Y321700D02*
D03*
X136033D02*
D03*
D35*
X241500Y253500D02*
D03*
X247012D02*
D03*
X171344Y88300D02*
D03*
X176856D02*
D03*
X156956Y92900D02*
D03*
X151444D02*
D03*
X150112Y72300D02*
D03*
X144600D02*
D03*
X358644Y102100D02*
D03*
X364156D02*
D03*
X231556Y171800D02*
D03*
X226044D02*
D03*
X275600Y149100D02*
D03*
X270088D02*
D03*
X247900Y171800D02*
D03*
X253412D02*
D03*
X246512Y242000D02*
D03*
X241000D02*
D03*
X173856Y256900D02*
D03*
X168344D02*
D03*
X247556Y218500D02*
D03*
X242044D02*
D03*
D36*
X275900Y212200D02*
D03*
X266000Y212000D02*
D03*
X255900Y212200D02*
D03*
X188100Y167400D02*
D03*
D37*
X230300Y135507D02*
D03*
Y142200D02*
D03*
D38*
X233234Y276200D02*
D03*
X224966D02*
D03*
D39*
X234669Y186653D02*
D03*
X243331D02*
D03*
Y193347D02*
D03*
X234669D02*
D03*
D40*
X294406Y123500D02*
D03*
X282594D02*
D03*
D41*
X132958Y191949D02*
D03*
Y199823D02*
D03*
D42*
X124100Y209272D02*
D03*
Y182500D02*
D03*
D43*
X196440Y181390D02*
D03*
X213960D02*
D03*
Y167610D02*
D03*
X196440D02*
D03*
D44*
X450500Y400D02*
Y351500D01*
X99500Y400D02*
X450500D01*
X99500Y351500D02*
X450500D01*
X99500Y400D02*
Y351500D01*
D47*
X106115Y238283D02*
X112020D01*
X106115Y273717D02*
X112020D01*
X106115Y238283D02*
Y273717D01*
M02*
