G04 Layer_Color=128*
%FSLAX25Y25*%
%MOIN*%
G70*
G01*
G75*
%ADD44C,0.01000*%
%ADD47C,0.00800*%
%ADD107C,0.00200*%
D44*
X450500Y400D02*
Y351500D01*
X99500Y400D02*
X450500D01*
X99500Y351500D02*
X450500D01*
X99500Y400D02*
Y351500D01*
D47*
X106115Y238283D02*
X112020D01*
X106115Y273717D02*
X112020D01*
X106115Y238283D02*
Y273717D01*
D107*
X139800Y256000D02*
X147800D01*
X143800Y252000D02*
Y260000D01*
X121800Y256000D02*
X129800D01*
X125800Y252000D02*
Y260000D01*
X384628Y60700D02*
X388172D01*
X386400Y58928D02*
Y62472D01*
X384628Y40700D02*
X388172D01*
X386400Y38928D02*
Y42472D01*
X384628Y50700D02*
X388172D01*
X386400Y48928D02*
Y52472D01*
X384628Y70700D02*
X388172D01*
X386400Y68928D02*
Y72472D01*
X384628Y80700D02*
X388172D01*
X386400Y78928D02*
Y82472D01*
X384628Y90700D02*
X388172D01*
X386400Y88928D02*
Y92472D01*
X384628Y100700D02*
X388172D01*
X386400Y98928D02*
Y102472D01*
X311228Y201200D02*
X314772D01*
X313000Y199428D02*
Y202972D01*
X311228Y191200D02*
X314772D01*
X313000Y189428D02*
Y192972D01*
X255228Y245000D02*
X258772D01*
X257000Y243228D02*
Y246772D01*
X255228Y235000D02*
X258772D01*
X257000Y233228D02*
Y236772D01*
X327165Y180020D02*
X335433D01*
X331299Y175886D02*
Y184153D01*
X327165Y288287D02*
X335433D01*
X331299Y284154D02*
Y292421D01*
X435433Y288287D02*
X443701D01*
X439567Y284154D02*
Y292421D01*
X435433Y180020D02*
X443701D01*
X439567Y175886D02*
Y184153D01*
X331004Y151181D02*
X334547D01*
X332776Y149409D02*
Y152953D01*
X331004Y161181D02*
X334547D01*
X332776Y159409D02*
Y162953D01*
X309128Y9800D02*
X312672D01*
X310900Y8028D02*
Y11572D01*
X309128Y19800D02*
X312672D01*
X310900Y18028D02*
Y21572D01*
X309128Y29800D02*
X312672D01*
X310900Y28028D02*
Y31572D01*
X309128Y39800D02*
X312672D01*
X310900Y38028D02*
Y41572D01*
X309128Y49800D02*
X312672D01*
X310900Y48028D02*
Y51572D01*
X309128Y59800D02*
X312672D01*
X310900Y58028D02*
Y61572D01*
X178828Y18700D02*
X182372D01*
X180600Y16928D02*
Y20472D01*
X178828Y28700D02*
X182372D01*
X180600Y26928D02*
Y30472D01*
X178828Y38700D02*
X182372D01*
X180600Y36928D02*
Y40472D01*
X165928Y18700D02*
X169472D01*
X167700Y16928D02*
Y20472D01*
X165928Y28700D02*
X169472D01*
X167700Y26928D02*
Y30472D01*
X165928Y38700D02*
X169472D01*
X167700Y36928D02*
Y40472D01*
X131483Y43500D02*
X134632D01*
X133057Y41925D02*
Y45075D01*
X141325Y43500D02*
X144475D01*
X142900Y41925D02*
Y45075D01*
X175700Y154900D02*
X177500D01*
X176600Y154000D02*
Y155800D01*
X195700Y154900D02*
X197500D01*
X196600Y154000D02*
Y155800D01*
X195700Y134900D02*
X197500D01*
X196600Y134000D02*
Y135800D01*
X410628Y180020D02*
X414172D01*
X412400Y178248D02*
Y181791D01*
X400628Y180020D02*
X404172D01*
X402400Y178248D02*
Y181791D01*
X390628Y180020D02*
X394172D01*
X392400Y178248D02*
Y181791D01*
X380628Y180020D02*
X384172D01*
X382400Y178248D02*
Y181791D01*
X370628Y180020D02*
X374172D01*
X372400Y178248D02*
Y181791D01*
X212128Y17000D02*
X215672D01*
X213900Y15228D02*
Y18772D01*
X212128Y27000D02*
X215672D01*
X213900Y25228D02*
Y28772D01*
X212128Y37000D02*
X215672D01*
X213900Y35228D02*
Y38772D01*
X212128Y47000D02*
X215672D01*
X213900Y45228D02*
Y48772D01*
X212128Y57000D02*
X215672D01*
X213900Y55228D02*
Y58772D01*
X224228Y203000D02*
X227772D01*
X226000Y201228D02*
Y204772D01*
X234228Y203000D02*
X237772D01*
X236000Y201228D02*
Y204772D01*
X244228Y203000D02*
X247772D01*
X246000Y201228D02*
Y204772D01*
X254228Y203000D02*
X257772D01*
X256000Y201228D02*
Y204772D01*
X264228Y203000D02*
X267772D01*
X266000Y201228D02*
Y204772D01*
X274228Y203000D02*
X277772D01*
X276000Y201228D02*
Y204772D01*
X224728Y233000D02*
X228272D01*
X226500Y231228D02*
Y234772D01*
X224728Y223000D02*
X228272D01*
X226500Y221228D02*
Y224772D01*
X114528Y77700D02*
X118072D01*
X116300Y75928D02*
Y79472D01*
X114528Y67700D02*
X118072D01*
X116300Y65928D02*
Y69472D01*
X241800Y143400D02*
X242800D01*
X242300Y142900D02*
Y143900D01*
X241800Y146200D02*
X242800D01*
X242300Y145700D02*
Y146700D01*
X241800Y151900D02*
X242800D01*
X242300Y151400D02*
Y152400D01*
X241800Y149100D02*
X242800D01*
X242300Y148600D02*
Y149600D01*
X241800Y157700D02*
X242800D01*
X242300Y157200D02*
Y158200D01*
X241800Y160500D02*
X242800D01*
X242300Y160000D02*
Y161000D01*
X241800Y154800D02*
X242800D01*
X242300Y154300D02*
Y155300D01*
X244300Y143400D02*
X245300D01*
X244800Y142900D02*
Y143900D01*
X244300Y146200D02*
X245300D01*
X244800Y145700D02*
Y146700D01*
X244300Y151900D02*
X245300D01*
X244800Y151400D02*
Y152400D01*
X244300Y149100D02*
X245300D01*
X244800Y148600D02*
Y149600D01*
X244300Y157700D02*
X245300D01*
X244800Y157200D02*
Y158200D01*
X244300Y160500D02*
X245300D01*
X244800Y160000D02*
Y161000D01*
X244300Y154800D02*
X245300D01*
X244800Y154300D02*
Y155300D01*
X246900Y143500D02*
X247900D01*
X247400Y143000D02*
Y144000D01*
X246900Y146300D02*
X247900D01*
X247400Y145800D02*
Y146800D01*
X246900Y152000D02*
X247900D01*
X247400Y151500D02*
Y152500D01*
X246900Y149200D02*
X247900D01*
X247400Y148700D02*
Y149700D01*
X246900Y157800D02*
X247900D01*
X247400Y157300D02*
Y158300D01*
X246900Y160600D02*
X247900D01*
X247400Y160100D02*
Y161100D01*
X246900Y154900D02*
X247900D01*
X247400Y154400D02*
Y155400D01*
X249600Y143500D02*
X250600D01*
X250100Y143000D02*
Y144000D01*
X249600Y146300D02*
X250600D01*
X250100Y145800D02*
Y146800D01*
X249600Y152000D02*
X250600D01*
X250100Y151500D02*
Y152500D01*
X249600Y149200D02*
X250600D01*
X250100Y148700D02*
Y149700D01*
X249600Y157800D02*
X250600D01*
X250100Y157300D02*
Y158300D01*
X249600Y160600D02*
X250600D01*
X250100Y160100D02*
Y161100D01*
X249600Y154900D02*
X250600D01*
X250100Y154400D02*
Y155400D01*
X252200Y143500D02*
X253200D01*
X252700Y143000D02*
Y144000D01*
X252200Y146300D02*
X253200D01*
X252700Y145800D02*
Y146800D01*
X252200Y152000D02*
X253200D01*
X252700Y151500D02*
Y152500D01*
X252200Y149200D02*
X253200D01*
X252700Y148700D02*
Y149700D01*
X252200Y157800D02*
X253200D01*
X252700Y157300D02*
Y158300D01*
X252200Y160600D02*
X253200D01*
X252700Y160100D02*
Y161100D01*
X252200Y154900D02*
X253200D01*
X252700Y154400D02*
Y155400D01*
X254900Y143600D02*
X255900D01*
X255400Y143100D02*
Y144100D01*
X254900Y146400D02*
X255900D01*
X255400Y145900D02*
Y146900D01*
X254900Y152100D02*
X255900D01*
X255400Y151600D02*
Y152600D01*
X254900Y149300D02*
X255900D01*
X255400Y148800D02*
Y149800D01*
X254900Y157900D02*
X255900D01*
X255400Y157400D02*
Y158400D01*
X254900Y160700D02*
X255900D01*
X255400Y160200D02*
Y161200D01*
X254900Y155000D02*
X255900D01*
X255400Y154500D02*
Y155500D01*
X257900Y155000D02*
X258900D01*
X258400Y154500D02*
Y155500D01*
X257900Y160700D02*
X258900D01*
X258400Y160200D02*
Y161200D01*
X257900Y157900D02*
X258900D01*
X258400Y157400D02*
Y158400D01*
X257900Y149300D02*
X258900D01*
X258400Y148800D02*
Y149800D01*
X257900Y152100D02*
X258900D01*
X258400Y151600D02*
Y152600D01*
X257900Y146400D02*
X258900D01*
X258400Y145900D02*
Y146900D01*
X257900Y143600D02*
X258900D01*
X258400Y143100D02*
Y144100D01*
X146200Y160900D02*
X149000D01*
X147600Y159500D02*
Y162300D01*
X174900Y79000D02*
X177700D01*
X176300Y77600D02*
Y80400D01*
X258700Y177700D02*
X261500D01*
X260100Y176300D02*
Y179100D01*
X253100Y97400D02*
X255900D01*
X254500Y96000D02*
Y98800D01*
X240200Y223500D02*
X243000D01*
X241600Y222100D02*
Y224900D01*
X218700Y214600D02*
X221500D01*
X220100Y213200D02*
Y216000D01*
X319400Y112000D02*
X322200D01*
X320800Y110600D02*
Y113400D01*
X322900Y81800D02*
X325700D01*
X324300Y80400D02*
Y83200D01*
X339900Y73500D02*
X342700D01*
X341300Y72100D02*
Y74900D01*
X172800Y110100D02*
X175600D01*
X174200Y108700D02*
Y111500D01*
X237800Y260800D02*
X240600D01*
X239200Y259400D02*
Y262200D01*
X139200Y91800D02*
X142000D01*
X140600Y90400D02*
Y93200D01*
X202500Y289400D02*
X203500D01*
X203000Y288900D02*
Y289900D01*
X209900Y282000D02*
X210900D01*
X210400Y281500D02*
Y282500D01*
X216200Y287700D02*
X217200D01*
X216700Y287200D02*
Y288200D01*
X208600Y295000D02*
X209600D01*
X209100Y294500D02*
Y295500D01*
X313200Y156800D02*
X314200D01*
X313700Y156300D02*
Y157300D01*
X297300Y157000D02*
X298300D01*
X297800Y156500D02*
Y157500D01*
X313200Y166500D02*
X314200D01*
X313700Y166000D02*
Y167000D01*
X297500Y166600D02*
X298500D01*
X298000Y166100D02*
Y167100D01*
X305200Y152400D02*
X308000D01*
X306600Y151000D02*
Y153800D01*
X305200Y170500D02*
X308000D01*
X306600Y169100D02*
Y171900D01*
X219000Y172100D02*
X221800D01*
X220400Y170700D02*
Y173500D01*
X156800Y58100D02*
X159600D01*
X158200Y56700D02*
Y59500D01*
X260900Y108400D02*
X263700D01*
X262300Y107000D02*
Y109800D01*
X307300Y97400D02*
X310100D01*
X308700Y96000D02*
Y98800D01*
X239700Y52600D02*
X242500D01*
X241100Y51200D02*
Y54000D01*
X164200Y55100D02*
X167000D01*
X165600Y53700D02*
Y56500D01*
X244600Y231000D02*
X247400D01*
X246000Y229600D02*
Y232400D01*
X148416Y242416D02*
X151216D01*
X149816Y241016D02*
Y243816D01*
X124600Y243000D02*
X127400D01*
X126000Y241600D02*
Y244400D01*
X121900Y322000D02*
X124700D01*
X123300Y320600D02*
Y323400D01*
X370000Y334800D02*
X372800D01*
X371400Y333400D02*
Y336200D01*
X302100Y333100D02*
X304900D01*
X303500Y331700D02*
Y334500D01*
X237900Y8500D02*
X240700D01*
X239300Y7100D02*
Y9900D01*
X293800Y12900D02*
X296600D01*
X295200Y11500D02*
Y14300D01*
X411100Y330000D02*
X413900D01*
X412500Y328600D02*
Y331400D01*
X263600Y229000D02*
X266400D01*
X265000Y227600D02*
Y230400D01*
X211600Y237500D02*
X214400D01*
X213000Y236100D02*
Y238900D01*
X216966Y272500D02*
X219766D01*
X218366Y271100D02*
Y273900D01*
X254100Y258000D02*
X256900D01*
X255500Y256600D02*
Y259400D01*
X236600Y267500D02*
X239400D01*
X238000Y266100D02*
Y268900D01*
X242600Y322500D02*
X245400D01*
X244000Y321100D02*
Y323900D01*
X255600Y122000D02*
X258400D01*
X257000Y120600D02*
Y123400D01*
X268100Y123000D02*
X270900D01*
X269500Y121600D02*
Y124400D01*
X265600Y137500D02*
X268400D01*
X267000Y136100D02*
Y138900D01*
X200600Y280000D02*
X203400D01*
X202000Y278600D02*
Y281400D01*
X149600Y80500D02*
X152400D01*
X151000Y79100D02*
Y81900D01*
X257300Y32200D02*
X260100D01*
X258700Y30800D02*
Y33600D01*
X257200Y39500D02*
X260000D01*
X258600Y38100D02*
Y40900D01*
X257200Y46500D02*
X260000D01*
X258600Y45100D02*
Y47900D01*
X257200Y25900D02*
X260000D01*
X258600Y24500D02*
Y27300D01*
X219898Y78498D02*
X222698D01*
X221298Y77098D02*
Y79898D01*
X229100Y116800D02*
X231900D01*
X230500Y115400D02*
Y118200D01*
X272800Y143300D02*
X275600D01*
X274200Y141900D02*
Y144700D01*
X279100Y146500D02*
X281900D01*
X280500Y145100D02*
Y147900D01*
X149500Y98800D02*
X152300D01*
X150900Y97400D02*
Y100200D01*
X160900Y105000D02*
X163700D01*
X162300Y103600D02*
Y106400D01*
X368300Y101600D02*
X371100D01*
X369700Y100200D02*
Y103000D01*
X304300Y76400D02*
X307100D01*
X305700Y75000D02*
Y77800D01*
X255800Y73100D02*
X258600D01*
X257200Y71700D02*
Y74500D01*
X258700Y94500D02*
X261500D01*
X260100Y93100D02*
Y95900D01*
X248200Y92500D02*
X251000D01*
X249600Y91100D02*
Y93900D01*
X249000Y72500D02*
X251800D01*
X250400Y71100D02*
Y73900D01*
X269000Y73800D02*
X271800D01*
X270400Y72400D02*
Y75200D01*
X262600Y73600D02*
X265400D01*
X264000Y72200D02*
Y75000D01*
X246700Y66100D02*
X249500D01*
X248100Y64700D02*
Y67500D01*
X284000Y84300D02*
X286800D01*
X285400Y82900D02*
Y85700D01*
X151800Y67200D02*
X154600D01*
X153200Y65800D02*
Y68600D01*
X290400Y255800D02*
X293200D01*
X291800Y254400D02*
Y257200D01*
X275400Y26500D02*
X278200D01*
X276800Y25100D02*
Y27900D01*
X275400Y33100D02*
X278200D01*
X276800Y31700D02*
Y34500D01*
X275600Y40500D02*
X278400D01*
X277000Y39100D02*
Y41900D01*
X275600Y47700D02*
X278400D01*
X277000Y46300D02*
Y49100D01*
X116551Y191949D02*
X119351D01*
X117951Y190549D02*
Y193349D01*
X148900Y188200D02*
X151700D01*
X150300Y186800D02*
Y189600D01*
X266300Y93600D02*
X269100D01*
X267700Y92200D02*
Y95000D01*
X181600Y274000D02*
X184400D01*
X183000Y272600D02*
Y275400D01*
X217800Y263800D02*
X220600D01*
X219200Y262400D02*
Y265200D01*
X320600Y31000D02*
X323400D01*
X322000Y29600D02*
Y32400D01*
X215100Y295000D02*
X217900D01*
X216500Y293600D02*
Y296400D01*
X169000Y289900D02*
X171800D01*
X170400Y288500D02*
Y291300D01*
X159800Y256800D02*
X162600D01*
X161200Y255400D02*
Y258200D01*
X248600Y190000D02*
X251400D01*
X250000Y188600D02*
Y191400D01*
X251900Y177650D02*
X254700D01*
X253300Y176250D02*
Y179050D01*
X197900Y251200D02*
X200700D01*
X199300Y249800D02*
Y252600D01*
X188100Y237900D02*
X190900D01*
X189500Y236500D02*
Y239300D01*
X214500Y188400D02*
X217300D01*
X215900Y187000D02*
Y189800D01*
M02*
